G75*
G70*
%OFA0B0*%
%FSLAX24Y24*%
%IPPOS*%
%LPD*%
%AMOC8*
5,1,8,0,0,1.08239X$1,22.5*
%
%ADD10C,0.0000*%
%ADD11R,0.0157X0.0276*%
%ADD12R,0.0512X0.0591*%
%ADD13R,0.0630X0.0709*%
%ADD14R,0.0280X0.0120*%
%ADD15R,0.0236X0.0217*%
%ADD16R,0.0551X0.0177*%
%ADD17C,0.0007*%
%ADD18R,0.0256X0.0256*%
%ADD19R,0.0039X0.0085*%
%ADD20R,0.0039X0.0083*%
%ADD21R,0.0236X0.0118*%
%ADD22R,0.0236X0.0138*%
%ADD23R,0.0197X0.0256*%
%ADD24R,0.0768X0.0984*%
%ADD25R,0.0591X0.0512*%
%ADD26R,0.0433X0.0394*%
%ADD27R,0.1260X0.0709*%
%ADD28R,0.0320X0.0120*%
%ADD29R,0.0610X0.0910*%
%ADD30C,0.0185*%
%ADD31R,0.0630X0.1063*%
%ADD32R,0.0551X0.1181*%
%ADD33R,0.0394X0.0433*%
%ADD34R,0.0630X0.0472*%
%ADD35R,0.0315X0.0315*%
%ADD36R,0.0394X0.1811*%
%ADD37R,0.0630X0.1339*%
%ADD38R,0.0240X0.0140*%
%ADD39R,0.0390X0.0630*%
%ADD40R,0.1929X0.0827*%
%ADD41R,0.0551X0.0551*%
%ADD42R,0.0260X0.0120*%
%ADD43R,0.0330X0.0940*%
%ADD44R,0.0787X0.0787*%
%ADD45R,0.0984X0.0787*%
%ADD46R,0.1181X0.0787*%
%ADD47R,0.0630X0.0118*%
%ADD48R,0.0118X0.0630*%
%ADD49R,0.0315X0.0098*%
%ADD50R,0.0709X0.0748*%
%ADD51R,0.0906X0.0512*%
%ADD52R,0.0157X0.0531*%
%ADD53R,0.0630X0.0551*%
%ADD54R,0.0472X0.0787*%
%ADD55R,0.0315X0.0787*%
%ADD56R,0.0827X0.1181*%
%ADD57R,0.0276X0.0236*%
%ADD58R,0.0400X0.0140*%
%ADD59R,0.0870X0.0240*%
%ADD60R,0.0440X0.0120*%
%ADD61R,0.0120X0.0440*%
%ADD62R,0.0120X0.0320*%
%ADD63R,0.0610X0.0610*%
D10*
X000189Y003356D02*
X000189Y026978D01*
X039559Y026978D01*
X039559Y003356D01*
X000189Y003356D01*
X002827Y004341D02*
X002829Y004376D01*
X002835Y004411D01*
X002845Y004445D01*
X002858Y004478D01*
X002875Y004509D01*
X002896Y004537D01*
X002919Y004564D01*
X002946Y004587D01*
X002974Y004608D01*
X003005Y004625D01*
X003038Y004638D01*
X003072Y004648D01*
X003107Y004654D01*
X003142Y004656D01*
X003177Y004654D01*
X003212Y004648D01*
X003246Y004638D01*
X003279Y004625D01*
X003310Y004608D01*
X003338Y004587D01*
X003365Y004564D01*
X003388Y004537D01*
X003409Y004509D01*
X003426Y004478D01*
X003439Y004445D01*
X003449Y004411D01*
X003455Y004376D01*
X003457Y004341D01*
X003455Y004306D01*
X003449Y004271D01*
X003439Y004237D01*
X003426Y004204D01*
X003409Y004173D01*
X003388Y004145D01*
X003365Y004118D01*
X003338Y004095D01*
X003310Y004074D01*
X003279Y004057D01*
X003246Y004044D01*
X003212Y004034D01*
X003177Y004028D01*
X003142Y004026D01*
X003107Y004028D01*
X003072Y004034D01*
X003038Y004044D01*
X003005Y004057D01*
X002974Y004074D01*
X002946Y004095D01*
X002919Y004118D01*
X002896Y004145D01*
X002875Y004173D01*
X002858Y004204D01*
X002845Y004237D01*
X002835Y004271D01*
X002829Y004306D01*
X002827Y004341D01*
X002827Y005915D02*
X002829Y005950D01*
X002835Y005985D01*
X002845Y006019D01*
X002858Y006052D01*
X002875Y006083D01*
X002896Y006111D01*
X002919Y006138D01*
X002946Y006161D01*
X002974Y006182D01*
X003005Y006199D01*
X003038Y006212D01*
X003072Y006222D01*
X003107Y006228D01*
X003142Y006230D01*
X003177Y006228D01*
X003212Y006222D01*
X003246Y006212D01*
X003279Y006199D01*
X003310Y006182D01*
X003338Y006161D01*
X003365Y006138D01*
X003388Y006111D01*
X003409Y006083D01*
X003426Y006052D01*
X003439Y006019D01*
X003449Y005985D01*
X003455Y005950D01*
X003457Y005915D01*
X003455Y005880D01*
X003449Y005845D01*
X003439Y005811D01*
X003426Y005778D01*
X003409Y005747D01*
X003388Y005719D01*
X003365Y005692D01*
X003338Y005669D01*
X003310Y005648D01*
X003279Y005631D01*
X003246Y005618D01*
X003212Y005608D01*
X003177Y005602D01*
X003142Y005600D01*
X003107Y005602D01*
X003072Y005608D01*
X003038Y005618D01*
X003005Y005631D01*
X002974Y005648D01*
X002946Y005669D01*
X002919Y005692D01*
X002896Y005719D01*
X002875Y005747D01*
X002858Y005778D01*
X002845Y005811D01*
X002835Y005845D01*
X002829Y005880D01*
X002827Y005915D01*
X020170Y005325D02*
X020172Y005377D01*
X020178Y005429D01*
X020188Y005480D01*
X020201Y005530D01*
X020219Y005580D01*
X020240Y005627D01*
X020264Y005673D01*
X020293Y005717D01*
X020324Y005759D01*
X020358Y005798D01*
X020395Y005835D01*
X020435Y005868D01*
X020478Y005899D01*
X020522Y005926D01*
X020568Y005950D01*
X020617Y005970D01*
X020666Y005986D01*
X020717Y005999D01*
X020768Y006008D01*
X020820Y006013D01*
X020872Y006014D01*
X020924Y006011D01*
X020976Y006004D01*
X021027Y005993D01*
X021077Y005979D01*
X021126Y005960D01*
X021173Y005938D01*
X021218Y005913D01*
X021262Y005884D01*
X021303Y005852D01*
X021342Y005817D01*
X021377Y005779D01*
X021410Y005738D01*
X021440Y005696D01*
X021466Y005651D01*
X021489Y005604D01*
X021508Y005555D01*
X021524Y005505D01*
X021536Y005455D01*
X021544Y005403D01*
X021548Y005351D01*
X021548Y005299D01*
X021544Y005247D01*
X021536Y005195D01*
X021524Y005145D01*
X021508Y005095D01*
X021489Y005046D01*
X021466Y004999D01*
X021440Y004954D01*
X021410Y004912D01*
X021377Y004871D01*
X021342Y004833D01*
X021303Y004798D01*
X021262Y004766D01*
X021218Y004737D01*
X021173Y004712D01*
X021126Y004690D01*
X021077Y004671D01*
X021027Y004657D01*
X020976Y004646D01*
X020924Y004639D01*
X020872Y004636D01*
X020820Y004637D01*
X020768Y004642D01*
X020717Y004651D01*
X020666Y004664D01*
X020617Y004680D01*
X020568Y004700D01*
X020522Y004724D01*
X020478Y004751D01*
X020435Y004782D01*
X020395Y004815D01*
X020358Y004852D01*
X020324Y004891D01*
X020293Y004933D01*
X020264Y004977D01*
X020240Y005023D01*
X020219Y005070D01*
X020201Y005120D01*
X020188Y005170D01*
X020178Y005221D01*
X020172Y005273D01*
X020170Y005325D01*
X035228Y005325D02*
X035230Y005364D01*
X035236Y005403D01*
X035246Y005441D01*
X035259Y005478D01*
X035276Y005513D01*
X035296Y005547D01*
X035320Y005578D01*
X035347Y005607D01*
X035376Y005633D01*
X035408Y005656D01*
X035442Y005676D01*
X035478Y005692D01*
X035515Y005704D01*
X035554Y005713D01*
X035593Y005718D01*
X035632Y005719D01*
X035671Y005716D01*
X035710Y005709D01*
X035747Y005698D01*
X035784Y005684D01*
X035819Y005666D01*
X035852Y005645D01*
X035883Y005620D01*
X035911Y005593D01*
X035936Y005563D01*
X035958Y005530D01*
X035977Y005496D01*
X035992Y005460D01*
X036004Y005422D01*
X036012Y005384D01*
X036016Y005345D01*
X036016Y005305D01*
X036012Y005266D01*
X036004Y005228D01*
X035992Y005190D01*
X035977Y005154D01*
X035958Y005120D01*
X035936Y005087D01*
X035911Y005057D01*
X035883Y005030D01*
X035852Y005005D01*
X035819Y004984D01*
X035784Y004966D01*
X035747Y004952D01*
X035710Y004941D01*
X035671Y004934D01*
X035632Y004931D01*
X035593Y004932D01*
X035554Y004937D01*
X035515Y004946D01*
X035478Y004958D01*
X035442Y004974D01*
X035408Y004994D01*
X035376Y005017D01*
X035347Y005043D01*
X035320Y005072D01*
X035296Y005103D01*
X035276Y005137D01*
X035259Y005172D01*
X035246Y005209D01*
X035236Y005247D01*
X035230Y005286D01*
X035228Y005325D01*
X035228Y007096D02*
X035230Y007135D01*
X035236Y007174D01*
X035246Y007212D01*
X035259Y007249D01*
X035276Y007284D01*
X035296Y007318D01*
X035320Y007349D01*
X035347Y007378D01*
X035376Y007404D01*
X035408Y007427D01*
X035442Y007447D01*
X035478Y007463D01*
X035515Y007475D01*
X035554Y007484D01*
X035593Y007489D01*
X035632Y007490D01*
X035671Y007487D01*
X035710Y007480D01*
X035747Y007469D01*
X035784Y007455D01*
X035819Y007437D01*
X035852Y007416D01*
X035883Y007391D01*
X035911Y007364D01*
X035936Y007334D01*
X035958Y007301D01*
X035977Y007267D01*
X035992Y007231D01*
X036004Y007193D01*
X036012Y007155D01*
X036016Y007116D01*
X036016Y007076D01*
X036012Y007037D01*
X036004Y006999D01*
X035992Y006961D01*
X035977Y006925D01*
X035958Y006891D01*
X035936Y006858D01*
X035911Y006828D01*
X035883Y006801D01*
X035852Y006776D01*
X035819Y006755D01*
X035784Y006737D01*
X035747Y006723D01*
X035710Y006712D01*
X035671Y006705D01*
X035632Y006702D01*
X035593Y006703D01*
X035554Y006708D01*
X035515Y006717D01*
X035478Y006729D01*
X035442Y006745D01*
X035408Y006765D01*
X035376Y006788D01*
X035347Y006814D01*
X035320Y006843D01*
X035296Y006874D01*
X035276Y006908D01*
X035259Y006943D01*
X035246Y006980D01*
X035236Y007018D01*
X035230Y007057D01*
X035228Y007096D01*
D11*
X008674Y015226D03*
X008418Y015226D03*
X008162Y015226D03*
X008162Y015896D03*
X008674Y015896D03*
D12*
X007138Y017132D03*
X006469Y017132D03*
X006469Y018018D03*
X007138Y018018D03*
X005642Y015207D03*
X004973Y015207D03*
X002886Y013199D03*
X002217Y013199D03*
X002138Y020183D03*
X002807Y020183D03*
X019225Y014057D03*
X019894Y014057D03*
X031587Y017608D03*
X032256Y017608D03*
X036453Y017128D03*
X037122Y017128D03*
X037319Y022577D03*
X036650Y022577D03*
D13*
X005859Y012923D03*
X004756Y012923D03*
D14*
X005307Y017195D03*
X005307Y017385D03*
X005307Y017585D03*
X005307Y017785D03*
X005307Y017975D03*
X004127Y017975D03*
X004127Y017785D03*
X004127Y017585D03*
X004127Y017385D03*
X004127Y017195D03*
D15*
X004579Y017220D03*
X004894Y017220D03*
X004894Y017870D03*
X004579Y017870D03*
D16*
X004737Y017555D03*
D17*
X010856Y017627D02*
X010940Y017627D01*
X010856Y017627D02*
X010856Y017935D01*
X010940Y017935D01*
X010940Y017627D01*
X010940Y017633D02*
X010856Y017633D01*
X010856Y017639D02*
X010940Y017639D01*
X010940Y017645D02*
X010856Y017645D01*
X010856Y017651D02*
X010940Y017651D01*
X010940Y017657D02*
X010856Y017657D01*
X010856Y017663D02*
X010940Y017663D01*
X010940Y017669D02*
X010856Y017669D01*
X010856Y017675D02*
X010940Y017675D01*
X010940Y017681D02*
X010856Y017681D01*
X010856Y017687D02*
X010940Y017687D01*
X010940Y017693D02*
X010856Y017693D01*
X010856Y017699D02*
X010940Y017699D01*
X010940Y017705D02*
X010856Y017705D01*
X010856Y017711D02*
X010940Y017711D01*
X010940Y017717D02*
X010856Y017717D01*
X010856Y017723D02*
X010940Y017723D01*
X010940Y017729D02*
X010856Y017729D01*
X010856Y017735D02*
X010940Y017735D01*
X010940Y017741D02*
X010856Y017741D01*
X010856Y017747D02*
X010940Y017747D01*
X010940Y017753D02*
X010856Y017753D01*
X010856Y017759D02*
X010940Y017759D01*
X010940Y017765D02*
X010856Y017765D01*
X010856Y017771D02*
X010940Y017771D01*
X010940Y017777D02*
X010856Y017777D01*
X010856Y017783D02*
X010940Y017783D01*
X010940Y017789D02*
X010856Y017789D01*
X010856Y017795D02*
X010940Y017795D01*
X010940Y017801D02*
X010856Y017801D01*
X010856Y017807D02*
X010940Y017807D01*
X010940Y017813D02*
X010856Y017813D01*
X010856Y017819D02*
X010940Y017819D01*
X010940Y017825D02*
X010856Y017825D01*
X010856Y017831D02*
X010940Y017831D01*
X010940Y017837D02*
X010856Y017837D01*
X010856Y017843D02*
X010940Y017843D01*
X010940Y017849D02*
X010856Y017849D01*
X010856Y017855D02*
X010940Y017855D01*
X010940Y017861D02*
X010856Y017861D01*
X010856Y017867D02*
X010940Y017867D01*
X010940Y017873D02*
X010856Y017873D01*
X010856Y017879D02*
X010940Y017879D01*
X010940Y017885D02*
X010856Y017885D01*
X010856Y017891D02*
X010940Y017891D01*
X010940Y017897D02*
X010856Y017897D01*
X010856Y017903D02*
X010940Y017903D01*
X010940Y017909D02*
X010856Y017909D01*
X010856Y017915D02*
X010940Y017915D01*
X010940Y017921D02*
X010856Y017921D01*
X010856Y017927D02*
X010940Y017927D01*
X010940Y017933D02*
X010856Y017933D01*
X011053Y017627D02*
X011137Y017627D01*
X011053Y017627D02*
X011053Y017935D01*
X011137Y017935D01*
X011137Y017627D01*
X011137Y017633D02*
X011053Y017633D01*
X011053Y017639D02*
X011137Y017639D01*
X011137Y017645D02*
X011053Y017645D01*
X011053Y017651D02*
X011137Y017651D01*
X011137Y017657D02*
X011053Y017657D01*
X011053Y017663D02*
X011137Y017663D01*
X011137Y017669D02*
X011053Y017669D01*
X011053Y017675D02*
X011137Y017675D01*
X011137Y017681D02*
X011053Y017681D01*
X011053Y017687D02*
X011137Y017687D01*
X011137Y017693D02*
X011053Y017693D01*
X011053Y017699D02*
X011137Y017699D01*
X011137Y017705D02*
X011053Y017705D01*
X011053Y017711D02*
X011137Y017711D01*
X011137Y017717D02*
X011053Y017717D01*
X011053Y017723D02*
X011137Y017723D01*
X011137Y017729D02*
X011053Y017729D01*
X011053Y017735D02*
X011137Y017735D01*
X011137Y017741D02*
X011053Y017741D01*
X011053Y017747D02*
X011137Y017747D01*
X011137Y017753D02*
X011053Y017753D01*
X011053Y017759D02*
X011137Y017759D01*
X011137Y017765D02*
X011053Y017765D01*
X011053Y017771D02*
X011137Y017771D01*
X011137Y017777D02*
X011053Y017777D01*
X011053Y017783D02*
X011137Y017783D01*
X011137Y017789D02*
X011053Y017789D01*
X011053Y017795D02*
X011137Y017795D01*
X011137Y017801D02*
X011053Y017801D01*
X011053Y017807D02*
X011137Y017807D01*
X011137Y017813D02*
X011053Y017813D01*
X011053Y017819D02*
X011137Y017819D01*
X011137Y017825D02*
X011053Y017825D01*
X011053Y017831D02*
X011137Y017831D01*
X011137Y017837D02*
X011053Y017837D01*
X011053Y017843D02*
X011137Y017843D01*
X011137Y017849D02*
X011053Y017849D01*
X011053Y017855D02*
X011137Y017855D01*
X011137Y017861D02*
X011053Y017861D01*
X011053Y017867D02*
X011137Y017867D01*
X011137Y017873D02*
X011053Y017873D01*
X011053Y017879D02*
X011137Y017879D01*
X011137Y017885D02*
X011053Y017885D01*
X011053Y017891D02*
X011137Y017891D01*
X011137Y017897D02*
X011053Y017897D01*
X011053Y017903D02*
X011137Y017903D01*
X011137Y017909D02*
X011053Y017909D01*
X011053Y017915D02*
X011137Y017915D01*
X011137Y017921D02*
X011053Y017921D01*
X011053Y017927D02*
X011137Y017927D01*
X011137Y017933D02*
X011053Y017933D01*
X011250Y017627D02*
X011334Y017627D01*
X011250Y017627D02*
X011250Y017935D01*
X011334Y017935D01*
X011334Y017627D01*
X011334Y017633D02*
X011250Y017633D01*
X011250Y017639D02*
X011334Y017639D01*
X011334Y017645D02*
X011250Y017645D01*
X011250Y017651D02*
X011334Y017651D01*
X011334Y017657D02*
X011250Y017657D01*
X011250Y017663D02*
X011334Y017663D01*
X011334Y017669D02*
X011250Y017669D01*
X011250Y017675D02*
X011334Y017675D01*
X011334Y017681D02*
X011250Y017681D01*
X011250Y017687D02*
X011334Y017687D01*
X011334Y017693D02*
X011250Y017693D01*
X011250Y017699D02*
X011334Y017699D01*
X011334Y017705D02*
X011250Y017705D01*
X011250Y017711D02*
X011334Y017711D01*
X011334Y017717D02*
X011250Y017717D01*
X011250Y017723D02*
X011334Y017723D01*
X011334Y017729D02*
X011250Y017729D01*
X011250Y017735D02*
X011334Y017735D01*
X011334Y017741D02*
X011250Y017741D01*
X011250Y017747D02*
X011334Y017747D01*
X011334Y017753D02*
X011250Y017753D01*
X011250Y017759D02*
X011334Y017759D01*
X011334Y017765D02*
X011250Y017765D01*
X011250Y017771D02*
X011334Y017771D01*
X011334Y017777D02*
X011250Y017777D01*
X011250Y017783D02*
X011334Y017783D01*
X011334Y017789D02*
X011250Y017789D01*
X011250Y017795D02*
X011334Y017795D01*
X011334Y017801D02*
X011250Y017801D01*
X011250Y017807D02*
X011334Y017807D01*
X011334Y017813D02*
X011250Y017813D01*
X011250Y017819D02*
X011334Y017819D01*
X011334Y017825D02*
X011250Y017825D01*
X011250Y017831D02*
X011334Y017831D01*
X011334Y017837D02*
X011250Y017837D01*
X011250Y017843D02*
X011334Y017843D01*
X011334Y017849D02*
X011250Y017849D01*
X011250Y017855D02*
X011334Y017855D01*
X011334Y017861D02*
X011250Y017861D01*
X011250Y017867D02*
X011334Y017867D01*
X011334Y017873D02*
X011250Y017873D01*
X011250Y017879D02*
X011334Y017879D01*
X011334Y017885D02*
X011250Y017885D01*
X011250Y017891D02*
X011334Y017891D01*
X011334Y017897D02*
X011250Y017897D01*
X011250Y017903D02*
X011334Y017903D01*
X011334Y017909D02*
X011250Y017909D01*
X011250Y017915D02*
X011334Y017915D01*
X011334Y017921D02*
X011250Y017921D01*
X011250Y017927D02*
X011334Y017927D01*
X011334Y017933D02*
X011250Y017933D01*
X011447Y017627D02*
X011531Y017627D01*
X011447Y017627D02*
X011447Y017935D01*
X011531Y017935D01*
X011531Y017627D01*
X011531Y017633D02*
X011447Y017633D01*
X011447Y017639D02*
X011531Y017639D01*
X011531Y017645D02*
X011447Y017645D01*
X011447Y017651D02*
X011531Y017651D01*
X011531Y017657D02*
X011447Y017657D01*
X011447Y017663D02*
X011531Y017663D01*
X011531Y017669D02*
X011447Y017669D01*
X011447Y017675D02*
X011531Y017675D01*
X011531Y017681D02*
X011447Y017681D01*
X011447Y017687D02*
X011531Y017687D01*
X011531Y017693D02*
X011447Y017693D01*
X011447Y017699D02*
X011531Y017699D01*
X011531Y017705D02*
X011447Y017705D01*
X011447Y017711D02*
X011531Y017711D01*
X011531Y017717D02*
X011447Y017717D01*
X011447Y017723D02*
X011531Y017723D01*
X011531Y017729D02*
X011447Y017729D01*
X011447Y017735D02*
X011531Y017735D01*
X011531Y017741D02*
X011447Y017741D01*
X011447Y017747D02*
X011531Y017747D01*
X011531Y017753D02*
X011447Y017753D01*
X011447Y017759D02*
X011531Y017759D01*
X011531Y017765D02*
X011447Y017765D01*
X011447Y017771D02*
X011531Y017771D01*
X011531Y017777D02*
X011447Y017777D01*
X011447Y017783D02*
X011531Y017783D01*
X011531Y017789D02*
X011447Y017789D01*
X011447Y017795D02*
X011531Y017795D01*
X011531Y017801D02*
X011447Y017801D01*
X011447Y017807D02*
X011531Y017807D01*
X011531Y017813D02*
X011447Y017813D01*
X011447Y017819D02*
X011531Y017819D01*
X011531Y017825D02*
X011447Y017825D01*
X011447Y017831D02*
X011531Y017831D01*
X011531Y017837D02*
X011447Y017837D01*
X011447Y017843D02*
X011531Y017843D01*
X011531Y017849D02*
X011447Y017849D01*
X011447Y017855D02*
X011531Y017855D01*
X011531Y017861D02*
X011447Y017861D01*
X011447Y017867D02*
X011531Y017867D01*
X011531Y017873D02*
X011447Y017873D01*
X011447Y017879D02*
X011531Y017879D01*
X011531Y017885D02*
X011447Y017885D01*
X011447Y017891D02*
X011531Y017891D01*
X011531Y017897D02*
X011447Y017897D01*
X011447Y017903D02*
X011531Y017903D01*
X011531Y017909D02*
X011447Y017909D01*
X011447Y017915D02*
X011531Y017915D01*
X011531Y017921D02*
X011447Y017921D01*
X011447Y017927D02*
X011531Y017927D01*
X011531Y017933D02*
X011447Y017933D01*
X011643Y017627D02*
X011727Y017627D01*
X011643Y017627D02*
X011643Y017935D01*
X011727Y017935D01*
X011727Y017627D01*
X011727Y017633D02*
X011643Y017633D01*
X011643Y017639D02*
X011727Y017639D01*
X011727Y017645D02*
X011643Y017645D01*
X011643Y017651D02*
X011727Y017651D01*
X011727Y017657D02*
X011643Y017657D01*
X011643Y017663D02*
X011727Y017663D01*
X011727Y017669D02*
X011643Y017669D01*
X011643Y017675D02*
X011727Y017675D01*
X011727Y017681D02*
X011643Y017681D01*
X011643Y017687D02*
X011727Y017687D01*
X011727Y017693D02*
X011643Y017693D01*
X011643Y017699D02*
X011727Y017699D01*
X011727Y017705D02*
X011643Y017705D01*
X011643Y017711D02*
X011727Y017711D01*
X011727Y017717D02*
X011643Y017717D01*
X011643Y017723D02*
X011727Y017723D01*
X011727Y017729D02*
X011643Y017729D01*
X011643Y017735D02*
X011727Y017735D01*
X011727Y017741D02*
X011643Y017741D01*
X011643Y017747D02*
X011727Y017747D01*
X011727Y017753D02*
X011643Y017753D01*
X011643Y017759D02*
X011727Y017759D01*
X011727Y017765D02*
X011643Y017765D01*
X011643Y017771D02*
X011727Y017771D01*
X011727Y017777D02*
X011643Y017777D01*
X011643Y017783D02*
X011727Y017783D01*
X011727Y017789D02*
X011643Y017789D01*
X011643Y017795D02*
X011727Y017795D01*
X011727Y017801D02*
X011643Y017801D01*
X011643Y017807D02*
X011727Y017807D01*
X011727Y017813D02*
X011643Y017813D01*
X011643Y017819D02*
X011727Y017819D01*
X011727Y017825D02*
X011643Y017825D01*
X011643Y017831D02*
X011727Y017831D01*
X011727Y017837D02*
X011643Y017837D01*
X011643Y017843D02*
X011727Y017843D01*
X011727Y017849D02*
X011643Y017849D01*
X011643Y017855D02*
X011727Y017855D01*
X011727Y017861D02*
X011643Y017861D01*
X011643Y017867D02*
X011727Y017867D01*
X011727Y017873D02*
X011643Y017873D01*
X011643Y017879D02*
X011727Y017879D01*
X011727Y017885D02*
X011643Y017885D01*
X011643Y017891D02*
X011727Y017891D01*
X011727Y017897D02*
X011643Y017897D01*
X011643Y017903D02*
X011727Y017903D01*
X011727Y017909D02*
X011643Y017909D01*
X011643Y017915D02*
X011727Y017915D01*
X011727Y017921D02*
X011643Y017921D01*
X011643Y017927D02*
X011727Y017927D01*
X011727Y017933D02*
X011643Y017933D01*
X011643Y016446D02*
X011727Y016446D01*
X011643Y016446D02*
X011643Y016754D01*
X011727Y016754D01*
X011727Y016446D01*
X011727Y016452D02*
X011643Y016452D01*
X011643Y016458D02*
X011727Y016458D01*
X011727Y016464D02*
X011643Y016464D01*
X011643Y016470D02*
X011727Y016470D01*
X011727Y016476D02*
X011643Y016476D01*
X011643Y016482D02*
X011727Y016482D01*
X011727Y016488D02*
X011643Y016488D01*
X011643Y016494D02*
X011727Y016494D01*
X011727Y016500D02*
X011643Y016500D01*
X011643Y016506D02*
X011727Y016506D01*
X011727Y016512D02*
X011643Y016512D01*
X011643Y016518D02*
X011727Y016518D01*
X011727Y016524D02*
X011643Y016524D01*
X011643Y016530D02*
X011727Y016530D01*
X011727Y016536D02*
X011643Y016536D01*
X011643Y016542D02*
X011727Y016542D01*
X011727Y016548D02*
X011643Y016548D01*
X011643Y016554D02*
X011727Y016554D01*
X011727Y016560D02*
X011643Y016560D01*
X011643Y016566D02*
X011727Y016566D01*
X011727Y016572D02*
X011643Y016572D01*
X011643Y016578D02*
X011727Y016578D01*
X011727Y016584D02*
X011643Y016584D01*
X011643Y016590D02*
X011727Y016590D01*
X011727Y016596D02*
X011643Y016596D01*
X011643Y016602D02*
X011727Y016602D01*
X011727Y016608D02*
X011643Y016608D01*
X011643Y016614D02*
X011727Y016614D01*
X011727Y016620D02*
X011643Y016620D01*
X011643Y016626D02*
X011727Y016626D01*
X011727Y016632D02*
X011643Y016632D01*
X011643Y016638D02*
X011727Y016638D01*
X011727Y016644D02*
X011643Y016644D01*
X011643Y016650D02*
X011727Y016650D01*
X011727Y016656D02*
X011643Y016656D01*
X011643Y016662D02*
X011727Y016662D01*
X011727Y016668D02*
X011643Y016668D01*
X011643Y016674D02*
X011727Y016674D01*
X011727Y016680D02*
X011643Y016680D01*
X011643Y016686D02*
X011727Y016686D01*
X011727Y016692D02*
X011643Y016692D01*
X011643Y016698D02*
X011727Y016698D01*
X011727Y016704D02*
X011643Y016704D01*
X011643Y016710D02*
X011727Y016710D01*
X011727Y016716D02*
X011643Y016716D01*
X011643Y016722D02*
X011727Y016722D01*
X011727Y016728D02*
X011643Y016728D01*
X011643Y016734D02*
X011727Y016734D01*
X011727Y016740D02*
X011643Y016740D01*
X011643Y016746D02*
X011727Y016746D01*
X011727Y016752D02*
X011643Y016752D01*
X011531Y016446D02*
X011447Y016446D01*
X011447Y016754D01*
X011531Y016754D01*
X011531Y016446D01*
X011531Y016452D02*
X011447Y016452D01*
X011447Y016458D02*
X011531Y016458D01*
X011531Y016464D02*
X011447Y016464D01*
X011447Y016470D02*
X011531Y016470D01*
X011531Y016476D02*
X011447Y016476D01*
X011447Y016482D02*
X011531Y016482D01*
X011531Y016488D02*
X011447Y016488D01*
X011447Y016494D02*
X011531Y016494D01*
X011531Y016500D02*
X011447Y016500D01*
X011447Y016506D02*
X011531Y016506D01*
X011531Y016512D02*
X011447Y016512D01*
X011447Y016518D02*
X011531Y016518D01*
X011531Y016524D02*
X011447Y016524D01*
X011447Y016530D02*
X011531Y016530D01*
X011531Y016536D02*
X011447Y016536D01*
X011447Y016542D02*
X011531Y016542D01*
X011531Y016548D02*
X011447Y016548D01*
X011447Y016554D02*
X011531Y016554D01*
X011531Y016560D02*
X011447Y016560D01*
X011447Y016566D02*
X011531Y016566D01*
X011531Y016572D02*
X011447Y016572D01*
X011447Y016578D02*
X011531Y016578D01*
X011531Y016584D02*
X011447Y016584D01*
X011447Y016590D02*
X011531Y016590D01*
X011531Y016596D02*
X011447Y016596D01*
X011447Y016602D02*
X011531Y016602D01*
X011531Y016608D02*
X011447Y016608D01*
X011447Y016614D02*
X011531Y016614D01*
X011531Y016620D02*
X011447Y016620D01*
X011447Y016626D02*
X011531Y016626D01*
X011531Y016632D02*
X011447Y016632D01*
X011447Y016638D02*
X011531Y016638D01*
X011531Y016644D02*
X011447Y016644D01*
X011447Y016650D02*
X011531Y016650D01*
X011531Y016656D02*
X011447Y016656D01*
X011447Y016662D02*
X011531Y016662D01*
X011531Y016668D02*
X011447Y016668D01*
X011447Y016674D02*
X011531Y016674D01*
X011531Y016680D02*
X011447Y016680D01*
X011447Y016686D02*
X011531Y016686D01*
X011531Y016692D02*
X011447Y016692D01*
X011447Y016698D02*
X011531Y016698D01*
X011531Y016704D02*
X011447Y016704D01*
X011447Y016710D02*
X011531Y016710D01*
X011531Y016716D02*
X011447Y016716D01*
X011447Y016722D02*
X011531Y016722D01*
X011531Y016728D02*
X011447Y016728D01*
X011447Y016734D02*
X011531Y016734D01*
X011531Y016740D02*
X011447Y016740D01*
X011447Y016746D02*
X011531Y016746D01*
X011531Y016752D02*
X011447Y016752D01*
X011334Y016446D02*
X011250Y016446D01*
X011250Y016754D01*
X011334Y016754D01*
X011334Y016446D01*
X011334Y016452D02*
X011250Y016452D01*
X011250Y016458D02*
X011334Y016458D01*
X011334Y016464D02*
X011250Y016464D01*
X011250Y016470D02*
X011334Y016470D01*
X011334Y016476D02*
X011250Y016476D01*
X011250Y016482D02*
X011334Y016482D01*
X011334Y016488D02*
X011250Y016488D01*
X011250Y016494D02*
X011334Y016494D01*
X011334Y016500D02*
X011250Y016500D01*
X011250Y016506D02*
X011334Y016506D01*
X011334Y016512D02*
X011250Y016512D01*
X011250Y016518D02*
X011334Y016518D01*
X011334Y016524D02*
X011250Y016524D01*
X011250Y016530D02*
X011334Y016530D01*
X011334Y016536D02*
X011250Y016536D01*
X011250Y016542D02*
X011334Y016542D01*
X011334Y016548D02*
X011250Y016548D01*
X011250Y016554D02*
X011334Y016554D01*
X011334Y016560D02*
X011250Y016560D01*
X011250Y016566D02*
X011334Y016566D01*
X011334Y016572D02*
X011250Y016572D01*
X011250Y016578D02*
X011334Y016578D01*
X011334Y016584D02*
X011250Y016584D01*
X011250Y016590D02*
X011334Y016590D01*
X011334Y016596D02*
X011250Y016596D01*
X011250Y016602D02*
X011334Y016602D01*
X011334Y016608D02*
X011250Y016608D01*
X011250Y016614D02*
X011334Y016614D01*
X011334Y016620D02*
X011250Y016620D01*
X011250Y016626D02*
X011334Y016626D01*
X011334Y016632D02*
X011250Y016632D01*
X011250Y016638D02*
X011334Y016638D01*
X011334Y016644D02*
X011250Y016644D01*
X011250Y016650D02*
X011334Y016650D01*
X011334Y016656D02*
X011250Y016656D01*
X011250Y016662D02*
X011334Y016662D01*
X011334Y016668D02*
X011250Y016668D01*
X011250Y016674D02*
X011334Y016674D01*
X011334Y016680D02*
X011250Y016680D01*
X011250Y016686D02*
X011334Y016686D01*
X011334Y016692D02*
X011250Y016692D01*
X011250Y016698D02*
X011334Y016698D01*
X011334Y016704D02*
X011250Y016704D01*
X011250Y016710D02*
X011334Y016710D01*
X011334Y016716D02*
X011250Y016716D01*
X011250Y016722D02*
X011334Y016722D01*
X011334Y016728D02*
X011250Y016728D01*
X011250Y016734D02*
X011334Y016734D01*
X011334Y016740D02*
X011250Y016740D01*
X011250Y016746D02*
X011334Y016746D01*
X011334Y016752D02*
X011250Y016752D01*
X011137Y016446D02*
X011053Y016446D01*
X011053Y016754D01*
X011137Y016754D01*
X011137Y016446D01*
X011137Y016452D02*
X011053Y016452D01*
X011053Y016458D02*
X011137Y016458D01*
X011137Y016464D02*
X011053Y016464D01*
X011053Y016470D02*
X011137Y016470D01*
X011137Y016476D02*
X011053Y016476D01*
X011053Y016482D02*
X011137Y016482D01*
X011137Y016488D02*
X011053Y016488D01*
X011053Y016494D02*
X011137Y016494D01*
X011137Y016500D02*
X011053Y016500D01*
X011053Y016506D02*
X011137Y016506D01*
X011137Y016512D02*
X011053Y016512D01*
X011053Y016518D02*
X011137Y016518D01*
X011137Y016524D02*
X011053Y016524D01*
X011053Y016530D02*
X011137Y016530D01*
X011137Y016536D02*
X011053Y016536D01*
X011053Y016542D02*
X011137Y016542D01*
X011137Y016548D02*
X011053Y016548D01*
X011053Y016554D02*
X011137Y016554D01*
X011137Y016560D02*
X011053Y016560D01*
X011053Y016566D02*
X011137Y016566D01*
X011137Y016572D02*
X011053Y016572D01*
X011053Y016578D02*
X011137Y016578D01*
X011137Y016584D02*
X011053Y016584D01*
X011053Y016590D02*
X011137Y016590D01*
X011137Y016596D02*
X011053Y016596D01*
X011053Y016602D02*
X011137Y016602D01*
X011137Y016608D02*
X011053Y016608D01*
X011053Y016614D02*
X011137Y016614D01*
X011137Y016620D02*
X011053Y016620D01*
X011053Y016626D02*
X011137Y016626D01*
X011137Y016632D02*
X011053Y016632D01*
X011053Y016638D02*
X011137Y016638D01*
X011137Y016644D02*
X011053Y016644D01*
X011053Y016650D02*
X011137Y016650D01*
X011137Y016656D02*
X011053Y016656D01*
X011053Y016662D02*
X011137Y016662D01*
X011137Y016668D02*
X011053Y016668D01*
X011053Y016674D02*
X011137Y016674D01*
X011137Y016680D02*
X011053Y016680D01*
X011053Y016686D02*
X011137Y016686D01*
X011137Y016692D02*
X011053Y016692D01*
X011053Y016698D02*
X011137Y016698D01*
X011137Y016704D02*
X011053Y016704D01*
X011053Y016710D02*
X011137Y016710D01*
X011137Y016716D02*
X011053Y016716D01*
X011053Y016722D02*
X011137Y016722D01*
X011137Y016728D02*
X011053Y016728D01*
X011053Y016734D02*
X011137Y016734D01*
X011137Y016740D02*
X011053Y016740D01*
X011053Y016746D02*
X011137Y016746D01*
X011137Y016752D02*
X011053Y016752D01*
X010940Y016446D02*
X010856Y016446D01*
X010856Y016754D01*
X010940Y016754D01*
X010940Y016446D01*
X010940Y016452D02*
X010856Y016452D01*
X010856Y016458D02*
X010940Y016458D01*
X010940Y016464D02*
X010856Y016464D01*
X010856Y016470D02*
X010940Y016470D01*
X010940Y016476D02*
X010856Y016476D01*
X010856Y016482D02*
X010940Y016482D01*
X010940Y016488D02*
X010856Y016488D01*
X010856Y016494D02*
X010940Y016494D01*
X010940Y016500D02*
X010856Y016500D01*
X010856Y016506D02*
X010940Y016506D01*
X010940Y016512D02*
X010856Y016512D01*
X010856Y016518D02*
X010940Y016518D01*
X010940Y016524D02*
X010856Y016524D01*
X010856Y016530D02*
X010940Y016530D01*
X010940Y016536D02*
X010856Y016536D01*
X010856Y016542D02*
X010940Y016542D01*
X010940Y016548D02*
X010856Y016548D01*
X010856Y016554D02*
X010940Y016554D01*
X010940Y016560D02*
X010856Y016560D01*
X010856Y016566D02*
X010940Y016566D01*
X010940Y016572D02*
X010856Y016572D01*
X010856Y016578D02*
X010940Y016578D01*
X010940Y016584D02*
X010856Y016584D01*
X010856Y016590D02*
X010940Y016590D01*
X010940Y016596D02*
X010856Y016596D01*
X010856Y016602D02*
X010940Y016602D01*
X010940Y016608D02*
X010856Y016608D01*
X010856Y016614D02*
X010940Y016614D01*
X010940Y016620D02*
X010856Y016620D01*
X010856Y016626D02*
X010940Y016626D01*
X010940Y016632D02*
X010856Y016632D01*
X010856Y016638D02*
X010940Y016638D01*
X010940Y016644D02*
X010856Y016644D01*
X010856Y016650D02*
X010940Y016650D01*
X010940Y016656D02*
X010856Y016656D01*
X010856Y016662D02*
X010940Y016662D01*
X010940Y016668D02*
X010856Y016668D01*
X010856Y016674D02*
X010940Y016674D01*
X010940Y016680D02*
X010856Y016680D01*
X010856Y016686D02*
X010940Y016686D01*
X010940Y016692D02*
X010856Y016692D01*
X010856Y016698D02*
X010940Y016698D01*
X010940Y016704D02*
X010856Y016704D01*
X010856Y016710D02*
X010940Y016710D01*
X010940Y016716D02*
X010856Y016716D01*
X010856Y016722D02*
X010940Y016722D01*
X010940Y016728D02*
X010856Y016728D01*
X010856Y016734D02*
X010940Y016734D01*
X010940Y016740D02*
X010856Y016740D01*
X010856Y016746D02*
X010940Y016746D01*
X010940Y016752D02*
X010856Y016752D01*
D18*
X011026Y017181D03*
X011557Y017181D03*
D19*
X010819Y016716D03*
X010819Y017666D03*
D20*
X011764Y017661D03*
X011764Y016717D03*
D21*
X011292Y016935D03*
D22*
X011292Y017437D03*
D23*
X011292Y017181D03*
D24*
X010967Y019081D03*
X012168Y019081D03*
X012168Y014947D03*
X010967Y014947D03*
D25*
X009796Y016974D03*
X009796Y017644D03*
X012945Y017644D03*
X012945Y016974D03*
X016902Y015573D03*
X016902Y014904D03*
X023284Y018715D03*
X023284Y019384D03*
X025780Y019415D03*
X025780Y018746D03*
X034996Y011274D03*
X034996Y010604D03*
X005800Y010305D03*
X005800Y010974D03*
X005800Y009203D03*
X005800Y008533D03*
X002650Y008596D03*
X002650Y009266D03*
X002650Y010305D03*
X002650Y010974D03*
D26*
X005874Y005604D03*
X005874Y004935D03*
X006969Y004935D03*
X006969Y005604D03*
X017315Y005384D03*
X017315Y006053D03*
X018201Y006053D03*
X018201Y005384D03*
X019323Y008691D03*
X019323Y009360D03*
X023575Y009596D03*
X024402Y009596D03*
X024402Y010266D03*
X023575Y010266D03*
X024441Y006959D03*
X025268Y006959D03*
X025268Y006289D03*
X024441Y006289D03*
X026764Y006250D03*
X027591Y005659D03*
X027591Y004990D03*
X028398Y004990D03*
X028398Y005659D03*
X029008Y006722D03*
X029008Y007392D03*
X029835Y007392D03*
X029835Y006722D03*
X032315Y006722D03*
X032315Y007392D03*
X026764Y006919D03*
X032965Y011624D03*
X033634Y011624D03*
X033126Y013951D03*
X033126Y014620D03*
X034563Y014679D03*
X035233Y014679D03*
X035233Y015565D03*
X034563Y015565D03*
X025307Y014793D03*
X025307Y014124D03*
X012355Y015931D03*
X011685Y015931D03*
X011666Y013963D03*
X010996Y013963D03*
X006941Y018904D03*
X006272Y018904D03*
X010839Y020065D03*
X011508Y020065D03*
D27*
X002473Y018530D03*
X002473Y016325D03*
D28*
X018783Y016061D03*
X018783Y015871D03*
X018783Y015671D03*
X018783Y015471D03*
X018783Y015281D03*
X019943Y015281D03*
X019943Y015471D03*
X019943Y015671D03*
X019943Y015871D03*
X019943Y016061D03*
X026903Y018607D03*
X026903Y018807D03*
X026903Y019007D03*
X026903Y019207D03*
X028043Y019207D03*
X028043Y019007D03*
X028043Y018807D03*
X028043Y018607D03*
D29*
X019363Y015671D03*
D30*
X018288Y017297D02*
X018288Y021053D01*
X018288Y017297D02*
X017052Y017297D01*
X017052Y021053D01*
X018288Y021053D01*
X018288Y017481D02*
X017052Y017481D01*
X017052Y017665D02*
X018288Y017665D01*
X018288Y017849D02*
X017052Y017849D01*
X017052Y018033D02*
X018288Y018033D01*
X018288Y018217D02*
X017052Y018217D01*
X017052Y018401D02*
X018288Y018401D01*
X018288Y018585D02*
X017052Y018585D01*
X017052Y018769D02*
X018288Y018769D01*
X018288Y018953D02*
X017052Y018953D01*
X017052Y019137D02*
X018288Y019137D01*
X018288Y019321D02*
X017052Y019321D01*
X017052Y019505D02*
X018288Y019505D01*
X018288Y019689D02*
X017052Y019689D01*
X017052Y019873D02*
X018288Y019873D01*
X018288Y020057D02*
X017052Y020057D01*
X017052Y020241D02*
X018288Y020241D01*
X018288Y020425D02*
X017052Y020425D01*
X017052Y020609D02*
X018288Y020609D01*
X018288Y020793D02*
X017052Y020793D01*
X017052Y020977D02*
X018288Y020977D01*
X015768Y021053D02*
X015768Y017297D01*
X014532Y017297D01*
X014532Y021053D01*
X015768Y021053D01*
X015768Y017481D02*
X014532Y017481D01*
X014532Y017665D02*
X015768Y017665D01*
X015768Y017849D02*
X014532Y017849D01*
X014532Y018033D02*
X015768Y018033D01*
X015768Y018217D02*
X014532Y018217D01*
X014532Y018401D02*
X015768Y018401D01*
X015768Y018585D02*
X014532Y018585D01*
X014532Y018769D02*
X015768Y018769D01*
X015768Y018953D02*
X014532Y018953D01*
X014532Y019137D02*
X015768Y019137D01*
X015768Y019321D02*
X014532Y019321D01*
X014532Y019505D02*
X015768Y019505D01*
X015768Y019689D02*
X014532Y019689D01*
X014532Y019873D02*
X015768Y019873D01*
X015768Y020057D02*
X014532Y020057D01*
X014532Y020241D02*
X015768Y020241D01*
X015768Y020425D02*
X014532Y020425D01*
X014532Y020609D02*
X015768Y020609D01*
X015768Y020793D02*
X014532Y020793D01*
X014532Y020977D02*
X015768Y020977D01*
D31*
X019402Y017207D03*
X020504Y017207D03*
X027000Y017096D03*
X028103Y017096D03*
D32*
X022315Y017167D03*
X022315Y015278D03*
D33*
X023575Y012943D03*
X023575Y012274D03*
X021548Y011624D03*
X020878Y011624D03*
X017985Y014904D03*
X017985Y015573D03*
X026843Y015344D03*
X026843Y014675D03*
X030052Y015620D03*
X030859Y015620D03*
X030859Y016289D03*
X030052Y016289D03*
X030347Y017431D03*
X029678Y017431D03*
X033126Y013439D03*
X033126Y012770D03*
X030729Y022718D03*
X030059Y022718D03*
X006685Y010982D03*
X006685Y010313D03*
X001764Y010502D03*
X001764Y011171D03*
D34*
X009559Y010183D03*
X009559Y009002D03*
X018189Y009065D03*
X018189Y010246D03*
D35*
X018142Y004360D03*
X018142Y003770D03*
X017315Y003770D03*
X017315Y004360D03*
X027591Y004281D03*
X027591Y003691D03*
X028418Y003691D03*
X028418Y004281D03*
X006945Y004321D03*
X006945Y003730D03*
X005851Y003730D03*
X005851Y004321D03*
D36*
X005622Y023884D03*
X004835Y023884D03*
D37*
X003890Y025931D03*
X006567Y025931D03*
D38*
X034291Y013758D03*
X034291Y013498D03*
X034291Y013238D03*
X035111Y013238D03*
X035111Y013498D03*
X035111Y013758D03*
D39*
X034701Y013498D03*
D40*
X036867Y012829D03*
X036867Y014187D03*
D41*
X036276Y011687D03*
X036276Y010191D03*
X028300Y016152D03*
X026804Y016152D03*
D42*
X004723Y011030D03*
X004723Y010840D03*
X004723Y010640D03*
X004723Y010440D03*
X004723Y010250D03*
X003923Y010250D03*
X003923Y010440D03*
X003923Y010640D03*
X003923Y010840D03*
X003923Y011030D03*
D43*
X004323Y010640D03*
D44*
X003930Y007096D03*
X003024Y007096D03*
X002040Y006624D03*
D45*
X001941Y004341D03*
X004776Y004341D03*
D46*
X033457Y005325D03*
X033457Y007687D03*
X037788Y007687D03*
X037788Y005325D03*
D47*
X028528Y011250D03*
X028528Y011447D03*
X028528Y011644D03*
X028528Y011841D03*
X028528Y012037D03*
X028528Y012234D03*
X028528Y012431D03*
X028528Y012628D03*
X028528Y012825D03*
X028528Y013022D03*
X028528Y013218D03*
X028528Y013415D03*
X025300Y013415D03*
X025300Y013218D03*
X025300Y013022D03*
X025300Y012825D03*
X025300Y012628D03*
X025300Y012431D03*
X025300Y012234D03*
X025300Y012037D03*
X025300Y011841D03*
X025300Y011644D03*
X025300Y011447D03*
X025300Y011250D03*
D48*
X025831Y010718D03*
X026028Y010718D03*
X026225Y010718D03*
X026422Y010718D03*
X026619Y010718D03*
X026815Y010718D03*
X027012Y010718D03*
X027209Y010718D03*
X027406Y010718D03*
X027603Y010718D03*
X027800Y010718D03*
X027996Y010718D03*
X027996Y013947D03*
X027800Y013947D03*
X027603Y013947D03*
X027406Y013947D03*
X027209Y013947D03*
X027012Y013947D03*
X026815Y013947D03*
X026619Y013947D03*
X026422Y013947D03*
X026225Y013947D03*
X026028Y013947D03*
X025831Y013947D03*
D49*
X031181Y018725D03*
X031181Y018985D03*
X031181Y019245D03*
X031181Y019505D03*
X031181Y019765D03*
X031181Y020025D03*
X031181Y020285D03*
X031179Y020545D03*
X031181Y020805D03*
X031181Y021065D03*
X031181Y021325D03*
X031181Y021585D03*
X031181Y021845D03*
X031181Y022105D03*
X033481Y022105D03*
X033481Y021845D03*
X033481Y021585D03*
X033481Y021325D03*
X033481Y021065D03*
X033481Y020805D03*
X033483Y020545D03*
X033481Y020285D03*
X033481Y020025D03*
X033481Y019765D03*
X033481Y019505D03*
X033481Y019245D03*
X033481Y018985D03*
X033481Y018725D03*
D50*
X025524Y003986D03*
X024619Y003986D03*
D51*
X023595Y003986D03*
X026548Y003986D03*
D52*
X025583Y005039D03*
X025327Y005039D03*
X025071Y005039D03*
X024815Y005039D03*
X024559Y005039D03*
D53*
X023811Y004951D03*
X026331Y004951D03*
D54*
X025032Y018313D03*
X024166Y018313D03*
X024166Y019770D03*
X025032Y019770D03*
D55*
X023664Y024616D03*
X023172Y024616D03*
X022680Y024616D03*
X022187Y024616D03*
X021695Y024616D03*
X021203Y024616D03*
X017660Y024616D03*
X017168Y024616D03*
X016676Y024616D03*
X016183Y024616D03*
X026715Y024616D03*
X027207Y024616D03*
X027699Y024616D03*
X028191Y024616D03*
X028683Y024616D03*
X029176Y024616D03*
X032227Y024616D03*
X032719Y024616D03*
X033211Y024616D03*
X033703Y024616D03*
X034195Y024616D03*
X034687Y024616D03*
D56*
X035672Y025846D03*
X031243Y025846D03*
X030160Y025846D03*
X025731Y025846D03*
X024648Y025846D03*
X020219Y025846D03*
X018644Y025846D03*
X015199Y025846D03*
D57*
X028260Y007392D03*
X028260Y006644D03*
X027473Y007018D03*
D58*
X005707Y013647D03*
X005707Y014167D03*
X004907Y014167D03*
X004907Y013907D03*
X004907Y013647D03*
D59*
X030065Y010996D03*
X030065Y010496D03*
X030065Y009996D03*
X030065Y009496D03*
X032125Y009496D03*
X032125Y009996D03*
X032125Y010496D03*
X032125Y010996D03*
D60*
X031844Y015683D03*
X031844Y015873D03*
X031844Y016073D03*
X031844Y016273D03*
X031844Y016463D03*
X032944Y016463D03*
X032944Y016273D03*
X032944Y016073D03*
X032944Y015873D03*
X032944Y015683D03*
D61*
X032594Y015523D03*
X032394Y015523D03*
X032194Y015523D03*
X032194Y016623D03*
X032394Y016623D03*
X032594Y016623D03*
D62*
X027773Y018337D03*
X027573Y018337D03*
X027373Y018337D03*
X027173Y018337D03*
X027173Y019477D03*
X027373Y019477D03*
X027573Y019477D03*
X027773Y019477D03*
D63*
X027473Y018907D03*
M02*
