G75*
G70*
%OFA0B0*%
%FSLAX24Y24*%
%IPPOS*%
%LPD*%
%AMOC8*
5,1,8,0,0,1.08239X$1,22.5*
%
%ADD10C,0.0000*%
%ADD11C,0.0070*%
%ADD12C,0.0060*%
%ADD13C,0.0030*%
%ADD14C,0.0080*%
%ADD15C,0.0010*%
D10*
X000189Y003356D02*
X000189Y026978D01*
X039559Y026978D01*
X039559Y003356D01*
X000189Y003356D01*
X002827Y004341D02*
X002829Y004376D01*
X002835Y004411D01*
X002845Y004445D01*
X002858Y004478D01*
X002875Y004509D01*
X002896Y004537D01*
X002919Y004564D01*
X002946Y004587D01*
X002974Y004608D01*
X003005Y004625D01*
X003038Y004638D01*
X003072Y004648D01*
X003107Y004654D01*
X003142Y004656D01*
X003177Y004654D01*
X003212Y004648D01*
X003246Y004638D01*
X003279Y004625D01*
X003310Y004608D01*
X003338Y004587D01*
X003365Y004564D01*
X003388Y004537D01*
X003409Y004509D01*
X003426Y004478D01*
X003439Y004445D01*
X003449Y004411D01*
X003455Y004376D01*
X003457Y004341D01*
X003455Y004306D01*
X003449Y004271D01*
X003439Y004237D01*
X003426Y004204D01*
X003409Y004173D01*
X003388Y004145D01*
X003365Y004118D01*
X003338Y004095D01*
X003310Y004074D01*
X003279Y004057D01*
X003246Y004044D01*
X003212Y004034D01*
X003177Y004028D01*
X003142Y004026D01*
X003107Y004028D01*
X003072Y004034D01*
X003038Y004044D01*
X003005Y004057D01*
X002974Y004074D01*
X002946Y004095D01*
X002919Y004118D01*
X002896Y004145D01*
X002875Y004173D01*
X002858Y004204D01*
X002845Y004237D01*
X002835Y004271D01*
X002829Y004306D01*
X002827Y004341D01*
X002827Y005915D02*
X002829Y005950D01*
X002835Y005985D01*
X002845Y006019D01*
X002858Y006052D01*
X002875Y006083D01*
X002896Y006111D01*
X002919Y006138D01*
X002946Y006161D01*
X002974Y006182D01*
X003005Y006199D01*
X003038Y006212D01*
X003072Y006222D01*
X003107Y006228D01*
X003142Y006230D01*
X003177Y006228D01*
X003212Y006222D01*
X003246Y006212D01*
X003279Y006199D01*
X003310Y006182D01*
X003338Y006161D01*
X003365Y006138D01*
X003388Y006111D01*
X003409Y006083D01*
X003426Y006052D01*
X003439Y006019D01*
X003449Y005985D01*
X003455Y005950D01*
X003457Y005915D01*
X003455Y005880D01*
X003449Y005845D01*
X003439Y005811D01*
X003426Y005778D01*
X003409Y005747D01*
X003388Y005719D01*
X003365Y005692D01*
X003338Y005669D01*
X003310Y005648D01*
X003279Y005631D01*
X003246Y005618D01*
X003212Y005608D01*
X003177Y005602D01*
X003142Y005600D01*
X003107Y005602D01*
X003072Y005608D01*
X003038Y005618D01*
X003005Y005631D01*
X002974Y005648D01*
X002946Y005669D01*
X002919Y005692D01*
X002896Y005719D01*
X002875Y005747D01*
X002858Y005778D01*
X002845Y005811D01*
X002835Y005845D01*
X002829Y005880D01*
X002827Y005915D01*
X020170Y005325D02*
X020172Y005377D01*
X020178Y005429D01*
X020188Y005480D01*
X020201Y005530D01*
X020219Y005580D01*
X020240Y005627D01*
X020264Y005673D01*
X020293Y005717D01*
X020324Y005759D01*
X020358Y005798D01*
X020395Y005835D01*
X020435Y005868D01*
X020478Y005899D01*
X020522Y005926D01*
X020568Y005950D01*
X020617Y005970D01*
X020666Y005986D01*
X020717Y005999D01*
X020768Y006008D01*
X020820Y006013D01*
X020872Y006014D01*
X020924Y006011D01*
X020976Y006004D01*
X021027Y005993D01*
X021077Y005979D01*
X021126Y005960D01*
X021173Y005938D01*
X021218Y005913D01*
X021262Y005884D01*
X021303Y005852D01*
X021342Y005817D01*
X021377Y005779D01*
X021410Y005738D01*
X021440Y005696D01*
X021466Y005651D01*
X021489Y005604D01*
X021508Y005555D01*
X021524Y005505D01*
X021536Y005455D01*
X021544Y005403D01*
X021548Y005351D01*
X021548Y005299D01*
X021544Y005247D01*
X021536Y005195D01*
X021524Y005145D01*
X021508Y005095D01*
X021489Y005046D01*
X021466Y004999D01*
X021440Y004954D01*
X021410Y004912D01*
X021377Y004871D01*
X021342Y004833D01*
X021303Y004798D01*
X021262Y004766D01*
X021218Y004737D01*
X021173Y004712D01*
X021126Y004690D01*
X021077Y004671D01*
X021027Y004657D01*
X020976Y004646D01*
X020924Y004639D01*
X020872Y004636D01*
X020820Y004637D01*
X020768Y004642D01*
X020717Y004651D01*
X020666Y004664D01*
X020617Y004680D01*
X020568Y004700D01*
X020522Y004724D01*
X020478Y004751D01*
X020435Y004782D01*
X020395Y004815D01*
X020358Y004852D01*
X020324Y004891D01*
X020293Y004933D01*
X020264Y004977D01*
X020240Y005023D01*
X020219Y005070D01*
X020201Y005120D01*
X020188Y005170D01*
X020178Y005221D01*
X020172Y005273D01*
X020170Y005325D01*
X035228Y005325D02*
X035230Y005364D01*
X035236Y005403D01*
X035246Y005441D01*
X035259Y005478D01*
X035276Y005513D01*
X035296Y005547D01*
X035320Y005578D01*
X035347Y005607D01*
X035376Y005633D01*
X035408Y005656D01*
X035442Y005676D01*
X035478Y005692D01*
X035515Y005704D01*
X035554Y005713D01*
X035593Y005718D01*
X035632Y005719D01*
X035671Y005716D01*
X035710Y005709D01*
X035747Y005698D01*
X035784Y005684D01*
X035819Y005666D01*
X035852Y005645D01*
X035883Y005620D01*
X035911Y005593D01*
X035936Y005563D01*
X035958Y005530D01*
X035977Y005496D01*
X035992Y005460D01*
X036004Y005422D01*
X036012Y005384D01*
X036016Y005345D01*
X036016Y005305D01*
X036012Y005266D01*
X036004Y005228D01*
X035992Y005190D01*
X035977Y005154D01*
X035958Y005120D01*
X035936Y005087D01*
X035911Y005057D01*
X035883Y005030D01*
X035852Y005005D01*
X035819Y004984D01*
X035784Y004966D01*
X035747Y004952D01*
X035710Y004941D01*
X035671Y004934D01*
X035632Y004931D01*
X035593Y004932D01*
X035554Y004937D01*
X035515Y004946D01*
X035478Y004958D01*
X035442Y004974D01*
X035408Y004994D01*
X035376Y005017D01*
X035347Y005043D01*
X035320Y005072D01*
X035296Y005103D01*
X035276Y005137D01*
X035259Y005172D01*
X035246Y005209D01*
X035236Y005247D01*
X035230Y005286D01*
X035228Y005325D01*
X035228Y007096D02*
X035230Y007135D01*
X035236Y007174D01*
X035246Y007212D01*
X035259Y007249D01*
X035276Y007284D01*
X035296Y007318D01*
X035320Y007349D01*
X035347Y007378D01*
X035376Y007404D01*
X035408Y007427D01*
X035442Y007447D01*
X035478Y007463D01*
X035515Y007475D01*
X035554Y007484D01*
X035593Y007489D01*
X035632Y007490D01*
X035671Y007487D01*
X035710Y007480D01*
X035747Y007469D01*
X035784Y007455D01*
X035819Y007437D01*
X035852Y007416D01*
X035883Y007391D01*
X035911Y007364D01*
X035936Y007334D01*
X035958Y007301D01*
X035977Y007267D01*
X035992Y007231D01*
X036004Y007193D01*
X036012Y007155D01*
X036016Y007116D01*
X036016Y007076D01*
X036012Y007037D01*
X036004Y006999D01*
X035992Y006961D01*
X035977Y006925D01*
X035958Y006891D01*
X035936Y006858D01*
X035911Y006828D01*
X035883Y006801D01*
X035852Y006776D01*
X035819Y006755D01*
X035784Y006737D01*
X035747Y006723D01*
X035710Y006712D01*
X035671Y006705D01*
X035632Y006702D01*
X035593Y006703D01*
X035554Y006708D01*
X035515Y006717D01*
X035478Y006729D01*
X035442Y006745D01*
X035408Y006765D01*
X035376Y006788D01*
X035347Y006814D01*
X035320Y006843D01*
X035296Y006874D01*
X035276Y006908D01*
X035259Y006943D01*
X035246Y006980D01*
X035236Y007018D01*
X035230Y007057D01*
X035228Y007096D01*
D11*
X016021Y005533D02*
X016021Y005202D01*
X016021Y005367D02*
X015910Y005367D01*
X016021Y005533D02*
X015800Y005533D01*
X015652Y005422D02*
X015652Y005257D01*
X015597Y005202D01*
X015432Y005202D01*
X015432Y005422D01*
X015284Y005367D02*
X015229Y005422D01*
X015064Y005422D01*
X015119Y005312D02*
X015064Y005257D01*
X015119Y005202D01*
X015284Y005202D01*
X015229Y005312D02*
X015284Y005367D01*
X015229Y005312D02*
X015119Y005312D01*
X014916Y005202D02*
X014805Y005202D01*
X014861Y005202D02*
X014861Y005422D01*
X014916Y005422D01*
X014861Y005533D02*
X014861Y005588D01*
X014670Y005367D02*
X014615Y005422D01*
X014505Y005422D01*
X014450Y005367D01*
X014450Y005257D01*
X014505Y005202D01*
X014615Y005202D01*
X014670Y005257D01*
X014670Y005367D01*
X014302Y005422D02*
X014302Y005202D01*
X014082Y005202D02*
X014082Y005367D01*
X014137Y005422D01*
X014302Y005422D01*
X013933Y005422D02*
X013933Y005367D01*
X013878Y005367D01*
X013878Y005422D01*
X013933Y005422D01*
X013933Y005257D02*
X013933Y005202D01*
X013878Y005202D01*
X013878Y005257D01*
X013933Y005257D01*
X013381Y005257D02*
X013326Y005202D01*
X013216Y005202D01*
X013161Y005257D01*
X013161Y005367D01*
X013216Y005422D01*
X013271Y005422D01*
X013381Y005367D01*
X013381Y005533D01*
X013161Y005533D01*
X013013Y005422D02*
X012903Y005533D01*
X012903Y005202D01*
X013013Y005202D02*
X012792Y005202D01*
X012644Y005257D02*
X012589Y005202D01*
X012479Y005202D01*
X012424Y005257D01*
X012424Y005312D01*
X012479Y005367D01*
X012644Y005367D01*
X012644Y005257D01*
X012644Y005367D02*
X012534Y005478D01*
X012424Y005533D01*
X012276Y005533D02*
X012276Y005367D01*
X012166Y005422D01*
X012111Y005422D01*
X012056Y005367D01*
X012056Y005257D01*
X012111Y005202D01*
X012221Y005202D01*
X012276Y005257D01*
X012276Y005533D02*
X012056Y005533D01*
X011908Y005367D02*
X011743Y005533D01*
X011743Y005202D01*
X011687Y005367D02*
X011908Y005367D01*
D12*
X025642Y004797D02*
X025642Y004357D01*
X026862Y004357D02*
X026862Y004457D01*
X026862Y004697D01*
X026862Y004797D01*
X026862Y004697D02*
X026841Y004695D01*
X026821Y004690D01*
X026802Y004681D01*
X026785Y004669D01*
X026770Y004654D01*
X026758Y004637D01*
X026749Y004618D01*
X026744Y004598D01*
X026742Y004577D01*
X026744Y004556D01*
X026749Y004536D01*
X026758Y004517D01*
X026770Y004500D01*
X026785Y004485D01*
X026802Y004473D01*
X026821Y004464D01*
X026841Y004459D01*
X026862Y004457D01*
D13*
X026886Y004075D02*
X027199Y003762D01*
X027043Y003762D02*
X027043Y004075D01*
X027199Y004075D02*
X026886Y003762D01*
X026886Y003919D02*
X027199Y003919D01*
D14*
X025407Y004362D02*
X025284Y004239D01*
X025037Y004239D01*
X024913Y004362D01*
X024913Y004979D01*
X024652Y004609D02*
X024282Y004979D01*
X024282Y004239D01*
X024158Y004609D02*
X024652Y004609D01*
X025407Y004362D02*
X025407Y004979D01*
D15*
X027290Y017313D02*
X027340Y017313D01*
X027365Y017339D01*
X027315Y017389D02*
X027290Y017389D01*
X027265Y017364D01*
X027265Y017339D01*
X027290Y017313D01*
X027290Y017389D02*
X027265Y017414D01*
X027265Y017439D01*
X027290Y017464D01*
X027340Y017464D01*
X027365Y017439D01*
X027412Y017439D02*
X027412Y017464D01*
X027412Y017439D02*
X027462Y017389D01*
X027462Y017313D01*
X027462Y017389D02*
X027512Y017439D01*
X027512Y017464D01*
M02*
