G75*
G70*
%OFA0B0*%
%FSLAX24Y24*%
%IPPOS*%
%LPD*%
%AMOC8*
5,1,8,0,0,1.08239X$1,22.5*
%
%ADD10C,0.0000*%
%ADD11C,0.0100*%
%ADD12C,0.0180*%
%ADD13C,0.0040*%
%ADD14C,0.0080*%
%ADD15C,0.0500*%
%ADD16C,0.0070*%
%ADD17C,0.0050*%
%ADD18C,0.0060*%
%ADD19C,0.0030*%
%ADD20R,0.0118X0.0118*%
%ADD21C,0.0043*%
%ADD22R,0.0059X0.0118*%
%ADD23C,0.0020*%
%ADD24C,0.0010*%
%ADD25C,0.0160*%
%ADD26C,0.0020*%
%ADD27R,0.0197X0.0344*%
D10*
X000189Y003356D02*
X000189Y026978D01*
X039559Y026978D01*
X039559Y003356D01*
X000189Y003356D01*
X002827Y004341D02*
X002829Y004376D01*
X002835Y004411D01*
X002845Y004445D01*
X002858Y004478D01*
X002875Y004509D01*
X002896Y004537D01*
X002919Y004564D01*
X002946Y004587D01*
X002974Y004608D01*
X003005Y004625D01*
X003038Y004638D01*
X003072Y004648D01*
X003107Y004654D01*
X003142Y004656D01*
X003177Y004654D01*
X003212Y004648D01*
X003246Y004638D01*
X003279Y004625D01*
X003310Y004608D01*
X003338Y004587D01*
X003365Y004564D01*
X003388Y004537D01*
X003409Y004509D01*
X003426Y004478D01*
X003439Y004445D01*
X003449Y004411D01*
X003455Y004376D01*
X003457Y004341D01*
X003455Y004306D01*
X003449Y004271D01*
X003439Y004237D01*
X003426Y004204D01*
X003409Y004173D01*
X003388Y004145D01*
X003365Y004118D01*
X003338Y004095D01*
X003310Y004074D01*
X003279Y004057D01*
X003246Y004044D01*
X003212Y004034D01*
X003177Y004028D01*
X003142Y004026D01*
X003107Y004028D01*
X003072Y004034D01*
X003038Y004044D01*
X003005Y004057D01*
X002974Y004074D01*
X002946Y004095D01*
X002919Y004118D01*
X002896Y004145D01*
X002875Y004173D01*
X002858Y004204D01*
X002845Y004237D01*
X002835Y004271D01*
X002829Y004306D01*
X002827Y004341D01*
X002827Y005915D02*
X002829Y005950D01*
X002835Y005985D01*
X002845Y006019D01*
X002858Y006052D01*
X002875Y006083D01*
X002896Y006111D01*
X002919Y006138D01*
X002946Y006161D01*
X002974Y006182D01*
X003005Y006199D01*
X003038Y006212D01*
X003072Y006222D01*
X003107Y006228D01*
X003142Y006230D01*
X003177Y006228D01*
X003212Y006222D01*
X003246Y006212D01*
X003279Y006199D01*
X003310Y006182D01*
X003338Y006161D01*
X003365Y006138D01*
X003388Y006111D01*
X003409Y006083D01*
X003426Y006052D01*
X003439Y006019D01*
X003449Y005985D01*
X003455Y005950D01*
X003457Y005915D01*
X003455Y005880D01*
X003449Y005845D01*
X003439Y005811D01*
X003426Y005778D01*
X003409Y005747D01*
X003388Y005719D01*
X003365Y005692D01*
X003338Y005669D01*
X003310Y005648D01*
X003279Y005631D01*
X003246Y005618D01*
X003212Y005608D01*
X003177Y005602D01*
X003142Y005600D01*
X003107Y005602D01*
X003072Y005608D01*
X003038Y005618D01*
X003005Y005631D01*
X002974Y005648D01*
X002946Y005669D01*
X002919Y005692D01*
X002896Y005719D01*
X002875Y005747D01*
X002858Y005778D01*
X002845Y005811D01*
X002835Y005845D01*
X002829Y005880D01*
X002827Y005915D01*
X020170Y005325D02*
X020172Y005377D01*
X020178Y005429D01*
X020188Y005480D01*
X020201Y005530D01*
X020219Y005580D01*
X020240Y005627D01*
X020264Y005673D01*
X020293Y005717D01*
X020324Y005759D01*
X020358Y005798D01*
X020395Y005835D01*
X020435Y005868D01*
X020478Y005899D01*
X020522Y005926D01*
X020568Y005950D01*
X020617Y005970D01*
X020666Y005986D01*
X020717Y005999D01*
X020768Y006008D01*
X020820Y006013D01*
X020872Y006014D01*
X020924Y006011D01*
X020976Y006004D01*
X021027Y005993D01*
X021077Y005979D01*
X021126Y005960D01*
X021173Y005938D01*
X021218Y005913D01*
X021262Y005884D01*
X021303Y005852D01*
X021342Y005817D01*
X021377Y005779D01*
X021410Y005738D01*
X021440Y005696D01*
X021466Y005651D01*
X021489Y005604D01*
X021508Y005555D01*
X021524Y005505D01*
X021536Y005455D01*
X021544Y005403D01*
X021548Y005351D01*
X021548Y005299D01*
X021544Y005247D01*
X021536Y005195D01*
X021524Y005145D01*
X021508Y005095D01*
X021489Y005046D01*
X021466Y004999D01*
X021440Y004954D01*
X021410Y004912D01*
X021377Y004871D01*
X021342Y004833D01*
X021303Y004798D01*
X021262Y004766D01*
X021218Y004737D01*
X021173Y004712D01*
X021126Y004690D01*
X021077Y004671D01*
X021027Y004657D01*
X020976Y004646D01*
X020924Y004639D01*
X020872Y004636D01*
X020820Y004637D01*
X020768Y004642D01*
X020717Y004651D01*
X020666Y004664D01*
X020617Y004680D01*
X020568Y004700D01*
X020522Y004724D01*
X020478Y004751D01*
X020435Y004782D01*
X020395Y004815D01*
X020358Y004852D01*
X020324Y004891D01*
X020293Y004933D01*
X020264Y004977D01*
X020240Y005023D01*
X020219Y005070D01*
X020201Y005120D01*
X020188Y005170D01*
X020178Y005221D01*
X020172Y005273D01*
X020170Y005325D01*
X035228Y005325D02*
X035230Y005364D01*
X035236Y005403D01*
X035246Y005441D01*
X035259Y005478D01*
X035276Y005513D01*
X035296Y005547D01*
X035320Y005578D01*
X035347Y005607D01*
X035376Y005633D01*
X035408Y005656D01*
X035442Y005676D01*
X035478Y005692D01*
X035515Y005704D01*
X035554Y005713D01*
X035593Y005718D01*
X035632Y005719D01*
X035671Y005716D01*
X035710Y005709D01*
X035747Y005698D01*
X035784Y005684D01*
X035819Y005666D01*
X035852Y005645D01*
X035883Y005620D01*
X035911Y005593D01*
X035936Y005563D01*
X035958Y005530D01*
X035977Y005496D01*
X035992Y005460D01*
X036004Y005422D01*
X036012Y005384D01*
X036016Y005345D01*
X036016Y005305D01*
X036012Y005266D01*
X036004Y005228D01*
X035992Y005190D01*
X035977Y005154D01*
X035958Y005120D01*
X035936Y005087D01*
X035911Y005057D01*
X035883Y005030D01*
X035852Y005005D01*
X035819Y004984D01*
X035784Y004966D01*
X035747Y004952D01*
X035710Y004941D01*
X035671Y004934D01*
X035632Y004931D01*
X035593Y004932D01*
X035554Y004937D01*
X035515Y004946D01*
X035478Y004958D01*
X035442Y004974D01*
X035408Y004994D01*
X035376Y005017D01*
X035347Y005043D01*
X035320Y005072D01*
X035296Y005103D01*
X035276Y005137D01*
X035259Y005172D01*
X035246Y005209D01*
X035236Y005247D01*
X035230Y005286D01*
X035228Y005325D01*
X035228Y007096D02*
X035230Y007135D01*
X035236Y007174D01*
X035246Y007212D01*
X035259Y007249D01*
X035276Y007284D01*
X035296Y007318D01*
X035320Y007349D01*
X035347Y007378D01*
X035376Y007404D01*
X035408Y007427D01*
X035442Y007447D01*
X035478Y007463D01*
X035515Y007475D01*
X035554Y007484D01*
X035593Y007489D01*
X035632Y007490D01*
X035671Y007487D01*
X035710Y007480D01*
X035747Y007469D01*
X035784Y007455D01*
X035819Y007437D01*
X035852Y007416D01*
X035883Y007391D01*
X035911Y007364D01*
X035936Y007334D01*
X035958Y007301D01*
X035977Y007267D01*
X035992Y007231D01*
X036004Y007193D01*
X036012Y007155D01*
X036016Y007116D01*
X036016Y007076D01*
X036012Y007037D01*
X036004Y006999D01*
X035992Y006961D01*
X035977Y006925D01*
X035958Y006891D01*
X035936Y006858D01*
X035911Y006828D01*
X035883Y006801D01*
X035852Y006776D01*
X035819Y006755D01*
X035784Y006737D01*
X035747Y006723D01*
X035710Y006712D01*
X035671Y006705D01*
X035632Y006702D01*
X035593Y006703D01*
X035554Y006708D01*
X035515Y006717D01*
X035478Y006729D01*
X035442Y006745D01*
X035408Y006765D01*
X035376Y006788D01*
X035347Y006814D01*
X035320Y006843D01*
X035296Y006874D01*
X035276Y006908D01*
X035259Y006943D01*
X035246Y006980D01*
X035236Y007018D01*
X035230Y007057D01*
X035228Y007096D01*
D11*
X038734Y008176D02*
X038734Y008406D01*
X038811Y008483D01*
X038964Y008483D01*
X039041Y008406D01*
X039041Y008176D01*
X039041Y008329D02*
X039194Y008483D01*
X039118Y008691D02*
X038964Y008691D01*
X038888Y008768D01*
X038888Y008922D01*
X038964Y008998D01*
X039041Y008998D01*
X039041Y008691D01*
X039118Y008691D02*
X039194Y008768D01*
X039194Y008922D01*
X038888Y009207D02*
X039194Y009360D01*
X038888Y009514D01*
X038888Y009723D02*
X038888Y009799D01*
X039194Y009799D01*
X039194Y009723D02*
X039194Y009876D01*
X039194Y010066D02*
X039194Y010297D01*
X039118Y010373D01*
X039041Y010297D01*
X039041Y010143D01*
X038964Y010066D01*
X038888Y010143D01*
X038888Y010373D01*
X038888Y010582D02*
X038888Y010659D01*
X039194Y010659D01*
X039194Y010735D02*
X039194Y010582D01*
X039118Y010926D02*
X039194Y011003D01*
X039194Y011156D01*
X039118Y011233D01*
X038964Y011233D01*
X038888Y011156D01*
X038888Y011003D01*
X038964Y010926D01*
X039118Y010926D01*
X038734Y010659D02*
X038657Y010659D01*
X038888Y011441D02*
X038888Y011672D01*
X038964Y011748D01*
X039194Y011748D01*
X039194Y011957D02*
X039118Y011957D01*
X039118Y012034D01*
X039194Y012034D01*
X039194Y011957D01*
X038964Y011957D02*
X038888Y011957D01*
X038888Y012034D01*
X038964Y012034D01*
X038964Y011957D01*
X038888Y011441D02*
X039194Y011441D01*
X039194Y012731D02*
X038888Y012731D01*
X038734Y012884D01*
X038888Y013037D01*
X039194Y013037D01*
X039118Y013246D02*
X038811Y013246D01*
X038734Y013323D01*
X038734Y013476D01*
X038811Y013553D01*
X039118Y013246D01*
X039194Y013323D01*
X039194Y013476D01*
X039118Y013553D01*
X038811Y013553D01*
X038964Y013037D02*
X038964Y012731D01*
X038734Y009799D02*
X038657Y009799D01*
X038734Y008176D02*
X039194Y008176D01*
X039194Y005407D02*
X039194Y005254D01*
X039194Y005330D02*
X038888Y005330D01*
X038888Y005254D01*
X038734Y005330D02*
X038657Y005330D01*
X038964Y005045D02*
X039194Y005045D01*
X038964Y005045D02*
X038888Y004968D01*
X038888Y004738D01*
X039194Y004738D01*
X039194Y004548D02*
X039194Y004394D01*
X039194Y004471D02*
X038888Y004471D01*
X038888Y004394D01*
X038734Y004471D02*
X038657Y004471D01*
X038734Y004186D02*
X039194Y004186D01*
X039194Y003879D02*
X038734Y003879D01*
X038888Y004032D01*
X038734Y004186D01*
X038378Y003356D02*
X038378Y023041D01*
X038773Y023034D02*
X038773Y023187D01*
X038850Y023264D01*
X038927Y023264D01*
X039234Y022957D01*
X039234Y023264D01*
X038850Y022957D02*
X038773Y023034D01*
X039234Y022748D02*
X039234Y022441D01*
X039234Y022595D02*
X038773Y022595D01*
X038927Y022441D01*
X038850Y022232D02*
X038773Y022156D01*
X038773Y022002D01*
X038850Y021926D01*
X039157Y021926D01*
X038850Y022232D01*
X039157Y022232D01*
X039234Y022156D01*
X039234Y022002D01*
X039157Y021926D01*
X039234Y021717D02*
X039234Y021410D01*
X038927Y021717D01*
X038850Y021717D01*
X038773Y021640D01*
X038773Y021487D01*
X038850Y021410D01*
X038773Y021201D02*
X039234Y020894D01*
X039157Y020686D02*
X039234Y020609D01*
X039234Y020455D01*
X039157Y020379D01*
X039004Y020379D02*
X038927Y020532D01*
X038927Y020609D01*
X039004Y020686D01*
X039157Y020686D01*
X038773Y020686D02*
X038773Y020379D01*
X039004Y020379D01*
X039157Y020170D02*
X039234Y020093D01*
X039234Y019940D01*
X039157Y019863D01*
X038850Y020170D01*
X039157Y020170D01*
X038850Y020170D02*
X038773Y020093D01*
X038773Y019940D01*
X038850Y019863D01*
X039157Y019863D01*
X025831Y013218D02*
X025833Y013245D01*
X025839Y013272D01*
X025848Y013298D01*
X025861Y013322D01*
X025877Y013345D01*
X025896Y013364D01*
X025918Y013381D01*
X025942Y013395D01*
X025967Y013405D01*
X025994Y013412D01*
X026021Y013415D01*
X026049Y013414D01*
X026076Y013409D01*
X026102Y013401D01*
X026126Y013389D01*
X026149Y013373D01*
X026170Y013355D01*
X026187Y013334D01*
X026202Y013310D01*
X026213Y013285D01*
X026221Y013259D01*
X026225Y013232D01*
X026225Y013204D01*
X026221Y013177D01*
X026213Y013151D01*
X026202Y013126D01*
X026187Y013102D01*
X026170Y013081D01*
X026149Y013063D01*
X026127Y013047D01*
X026102Y013035D01*
X026076Y013027D01*
X026049Y013022D01*
X026021Y013021D01*
X025994Y013024D01*
X025967Y013031D01*
X025942Y013041D01*
X025918Y013055D01*
X025896Y013072D01*
X025877Y013091D01*
X025861Y013114D01*
X025848Y013138D01*
X025839Y013164D01*
X025833Y013191D01*
X025831Y013218D01*
X013591Y022807D02*
X013341Y022807D01*
X013341Y023057D01*
X012841Y023057D01*
X012841Y022807D01*
X012341Y022807D01*
X012341Y023057D01*
X011841Y023057D01*
X011841Y022807D01*
X011591Y022807D01*
X011591Y024057D01*
X012091Y024057D01*
X012091Y027207D01*
X012191Y027407D01*
X012611Y027407D01*
X012571Y027407D01*
X012611Y027407D02*
X012991Y027407D01*
X013091Y027207D01*
X013091Y024057D01*
X013241Y024057D02*
X013241Y026507D01*
X013111Y026647D01*
X012071Y026647D02*
X011941Y026507D01*
X011941Y024057D01*
X012091Y024057D02*
X013241Y024057D01*
X013591Y024057D01*
X013591Y022807D01*
X011360Y022932D02*
X011283Y022855D01*
X011360Y022932D02*
X011360Y023085D01*
X011283Y023162D01*
X011130Y023162D01*
X011053Y023085D01*
X011053Y023009D01*
X011130Y022855D01*
X010899Y022855D01*
X010899Y023162D01*
X010899Y023371D02*
X011206Y023371D01*
X011360Y023524D01*
X011206Y023678D01*
X010899Y023678D01*
X010638Y024057D02*
X010288Y024057D01*
X010288Y026507D01*
X010158Y026647D01*
X010138Y027207D02*
X010038Y027407D01*
X009658Y027407D01*
X009618Y027407D01*
X009658Y027407D02*
X009238Y027407D01*
X009138Y027207D01*
X009138Y024057D01*
X008638Y024057D01*
X008638Y022807D01*
X008888Y022807D01*
X008888Y023057D01*
X009388Y023057D01*
X009388Y022807D01*
X009888Y022807D01*
X009888Y023057D01*
X010388Y023057D01*
X010388Y022807D01*
X010638Y022807D01*
X010638Y024057D01*
X010288Y024057D02*
X009138Y024057D01*
X008988Y024057D02*
X008988Y026507D01*
X009118Y026647D01*
X008814Y026432D02*
X008507Y026432D01*
X008661Y026585D02*
X008661Y026278D01*
X010138Y027207D02*
X010138Y024057D01*
X010899Y024555D02*
X011053Y024709D01*
X011360Y024709D01*
X011283Y024918D02*
X010899Y024918D01*
X010899Y025225D02*
X011283Y025225D01*
X011360Y025148D01*
X011360Y024994D01*
X011283Y024918D01*
X011130Y024709D02*
X011130Y024402D01*
X011053Y024402D02*
X010899Y024555D01*
X011053Y024402D02*
X011360Y024402D01*
X011360Y025433D02*
X010899Y025740D01*
X010899Y025433D02*
X011360Y025740D01*
X011574Y026278D02*
X011574Y026585D01*
X011727Y026432D02*
X011420Y026432D01*
X008328Y024674D02*
X007868Y024674D01*
X007868Y024827D02*
X007868Y024520D01*
X007868Y024311D02*
X007868Y024004D01*
X007868Y024158D02*
X008328Y024158D01*
X008328Y023796D02*
X008021Y023796D01*
X007868Y023642D01*
X008021Y023489D01*
X008328Y023489D01*
X008252Y023280D02*
X008175Y023280D01*
X008098Y023203D01*
X008098Y022973D01*
X007868Y022973D02*
X007868Y023203D01*
X007945Y023280D01*
X008021Y023280D01*
X008098Y023203D01*
X008252Y023280D02*
X008328Y023203D01*
X008328Y022973D01*
X007868Y022973D01*
X008098Y023489D02*
X008098Y023796D01*
X006815Y023237D02*
X006815Y022776D01*
X006508Y023237D01*
X006508Y022776D01*
X006317Y022776D02*
X006164Y022776D01*
X006241Y022776D02*
X006241Y023237D01*
X006317Y023237D02*
X006164Y023237D01*
X005440Y023237D02*
X005133Y023237D01*
X005286Y023237D02*
X005286Y022776D01*
X004771Y022776D02*
X004771Y023237D01*
X004924Y023237D02*
X004617Y023237D01*
X004408Y023083D02*
X004408Y022776D01*
X004408Y023007D02*
X004101Y023007D01*
X004101Y023083D02*
X004255Y023237D01*
X004408Y023083D01*
X004101Y023083D02*
X004101Y022776D01*
X003893Y022853D02*
X003816Y022776D01*
X003586Y022776D01*
X003586Y023237D01*
X003816Y023237D01*
X003893Y023160D01*
X003893Y023083D01*
X003816Y023007D01*
X003586Y023007D01*
X003816Y023007D02*
X003893Y022930D01*
X003893Y022853D01*
X002973Y022758D02*
X002973Y020758D01*
X001973Y020758D01*
X001973Y022758D01*
X002973Y022758D01*
X001370Y023041D02*
X001370Y003356D01*
X001748Y014077D02*
X003748Y014077D01*
X003748Y015077D01*
X001748Y015077D01*
X001748Y014077D01*
D12*
X011106Y012636D02*
X011106Y012363D01*
X011243Y012226D01*
X011516Y012226D01*
X011653Y012499D02*
X011106Y012499D01*
X011106Y012636D02*
X011243Y012773D01*
X011516Y012773D01*
X011653Y012636D01*
X011653Y012499D01*
X012027Y012363D02*
X012164Y012363D01*
X012164Y012226D01*
X012027Y012226D01*
X012027Y012363D01*
X012487Y012363D02*
X012487Y012636D01*
X012624Y012773D01*
X013034Y012773D01*
X013034Y011952D01*
X013034Y012226D02*
X012624Y012226D01*
X012487Y012363D01*
X013408Y012363D02*
X013545Y012226D01*
X013955Y012226D01*
X013955Y012773D01*
X014329Y012773D02*
X014466Y012773D01*
X014466Y012226D01*
X014602Y012226D02*
X014329Y012226D01*
X014943Y012226D02*
X014943Y012773D01*
X015353Y012773D01*
X015490Y012636D01*
X015490Y012226D01*
X015864Y012363D02*
X015864Y012636D01*
X016000Y012773D01*
X016274Y012773D01*
X016411Y012636D01*
X016411Y012363D01*
X016274Y012226D01*
X016000Y012226D01*
X015864Y012363D01*
X016784Y012226D02*
X017331Y012773D01*
X016784Y012773D02*
X017331Y012226D01*
X014466Y013047D02*
X014466Y013183D01*
X013408Y012773D02*
X013408Y012363D01*
D13*
X013430Y011727D02*
X013384Y011681D01*
X013384Y011494D01*
X013430Y011447D01*
X013524Y011447D01*
X013570Y011494D01*
X013678Y011494D02*
X013725Y011447D01*
X013818Y011447D01*
X013865Y011494D01*
X013865Y011587D01*
X013818Y011634D01*
X013725Y011634D01*
X013678Y011587D01*
X013678Y011494D01*
X013570Y011681D02*
X013524Y011727D01*
X013430Y011727D01*
X012986Y011447D02*
X012893Y011447D01*
X012939Y011447D02*
X012939Y011727D01*
X012893Y011727D01*
X012785Y011587D02*
X012785Y011447D01*
X012645Y011447D01*
X012598Y011494D01*
X012645Y011541D01*
X012785Y011541D01*
X012785Y011587D02*
X012738Y011634D01*
X012645Y011634D01*
X012448Y011634D02*
X012448Y011447D01*
X012401Y011447D02*
X012495Y011447D01*
X012448Y011634D02*
X012401Y011634D01*
X012448Y011727D02*
X012448Y011774D01*
X012296Y011634D02*
X012249Y011634D01*
X012156Y011541D01*
X012156Y011634D02*
X012156Y011447D01*
X012048Y011541D02*
X012048Y011587D01*
X012001Y011634D01*
X011908Y011634D01*
X011861Y011587D01*
X011861Y011494D01*
X011908Y011447D01*
X012001Y011447D01*
X012048Y011541D02*
X011861Y011541D01*
X011753Y011587D02*
X011753Y011494D01*
X011707Y011447D01*
X011567Y011447D01*
X011567Y011354D02*
X011567Y011634D01*
X011707Y011634D01*
X011753Y011587D01*
X011459Y011587D02*
X011459Y011447D01*
X011365Y011447D02*
X011365Y011587D01*
X011412Y011634D01*
X011459Y011587D01*
X011365Y011587D02*
X011319Y011634D01*
X011272Y011634D01*
X011272Y011447D01*
X011169Y011447D02*
X011076Y011447D01*
X011122Y011447D02*
X011122Y011727D01*
X011076Y011727D02*
X011169Y011727D01*
X009680Y011551D02*
X009680Y011245D01*
X009373Y011551D01*
X009296Y011551D01*
X009220Y011475D01*
X009220Y011321D01*
X009296Y011245D01*
X009680Y011091D02*
X009680Y010784D01*
X009220Y010784D01*
X009207Y009892D02*
X009207Y009292D01*
X009907Y009292D02*
X009907Y009892D01*
X007665Y010064D02*
X007665Y010217D01*
X007588Y010294D01*
X007665Y010447D02*
X007358Y010754D01*
X007281Y010754D01*
X007204Y010677D01*
X007204Y010524D01*
X007281Y010447D01*
X007281Y010294D02*
X007204Y010217D01*
X007204Y010064D01*
X007281Y009987D01*
X007588Y009987D01*
X007665Y010064D01*
X007665Y010447D02*
X007665Y010754D01*
X007588Y010908D02*
X007281Y011215D01*
X007588Y011215D01*
X007665Y011138D01*
X007665Y010984D01*
X007588Y010908D01*
X007281Y010908D01*
X007204Y010984D01*
X007204Y011138D01*
X007281Y011215D01*
X005340Y011106D02*
X005340Y010953D01*
X005264Y010876D01*
X005340Y010723D02*
X005340Y010416D01*
X005340Y010569D02*
X004880Y010569D01*
X005033Y010416D01*
X004957Y010262D02*
X004880Y010186D01*
X004880Y010032D01*
X004957Y009955D01*
X005264Y009955D01*
X005340Y010032D01*
X005340Y010186D01*
X005264Y010262D01*
X005033Y010876D02*
X005110Y010953D01*
X005110Y011183D01*
X004957Y011183D02*
X004880Y011106D01*
X004880Y010953D01*
X004957Y010876D01*
X005033Y010876D01*
X004957Y011183D02*
X005264Y011183D01*
X005340Y011106D01*
X004737Y011875D02*
X004737Y011952D01*
X005044Y012259D01*
X005044Y012335D01*
X004737Y012335D01*
X004584Y012259D02*
X004507Y012335D01*
X004354Y012335D01*
X004277Y012259D01*
X004277Y011952D01*
X004354Y011875D01*
X004507Y011875D01*
X004584Y011952D01*
X003903Y012761D02*
X003443Y012761D01*
X003443Y012992D01*
X003520Y013068D01*
X003673Y013068D01*
X003750Y012992D01*
X003750Y012761D01*
X003750Y012915D02*
X003903Y013068D01*
X003903Y013222D02*
X003826Y013222D01*
X003520Y013529D01*
X003443Y013529D01*
X003443Y013222D01*
X002860Y012642D02*
X002783Y012719D01*
X002706Y012719D01*
X002630Y012642D01*
X002630Y012488D01*
X002553Y012412D01*
X002476Y012412D01*
X002400Y012488D01*
X002400Y012642D01*
X002476Y012719D01*
X002553Y012719D01*
X002630Y012642D01*
X002630Y012488D02*
X002706Y012412D01*
X002783Y012412D01*
X002860Y012488D01*
X002860Y012642D01*
X002860Y012258D02*
X002860Y011951D01*
X002860Y012105D02*
X002400Y012105D01*
X002553Y011951D01*
X002476Y011798D02*
X002400Y011721D01*
X002400Y011568D01*
X002476Y011491D01*
X002783Y011491D01*
X002860Y011568D01*
X002860Y011721D01*
X002783Y011798D01*
X001917Y011721D02*
X001917Y011568D01*
X001840Y011491D01*
X001533Y011491D01*
X001456Y011568D01*
X001456Y011721D01*
X001533Y011798D01*
X001533Y011951D02*
X001456Y012028D01*
X001456Y012181D01*
X001533Y012258D01*
X001610Y012258D01*
X001917Y011951D01*
X001917Y012258D01*
X001917Y012412D02*
X001917Y012719D01*
X001917Y012565D02*
X001456Y012565D01*
X001610Y012412D01*
X001840Y011798D02*
X001917Y011721D01*
X001919Y009379D02*
X001842Y009302D01*
X001842Y009072D01*
X001996Y009072D01*
X002073Y009149D01*
X002073Y009302D01*
X001996Y009379D01*
X001919Y009379D01*
X001689Y009226D02*
X001842Y009072D01*
X001842Y008919D02*
X001919Y008842D01*
X001919Y008612D01*
X001919Y008765D02*
X002073Y008919D01*
X001842Y008919D02*
X001689Y008919D01*
X001612Y008842D01*
X001612Y008612D01*
X002073Y008612D01*
X001689Y009226D02*
X001612Y009379D01*
X004692Y006729D02*
X004879Y006729D01*
X004973Y006636D01*
X004879Y006542D01*
X004692Y006542D01*
X004739Y006435D02*
X004926Y006248D01*
X004973Y006295D01*
X004973Y006388D01*
X004926Y006435D01*
X004739Y006435D01*
X004692Y006388D01*
X004692Y006295D01*
X004739Y006248D01*
X004926Y006248D01*
X004973Y006140D02*
X004973Y005953D01*
X004786Y006140D01*
X004739Y006140D01*
X004692Y006093D01*
X004692Y006000D01*
X004739Y005953D01*
X004832Y005845D02*
X004832Y005658D01*
X004879Y005551D02*
X004692Y005551D01*
X004879Y005551D02*
X004973Y005457D01*
X004879Y005364D01*
X004692Y005364D01*
X004692Y005256D02*
X004692Y005069D01*
X004832Y005069D01*
X004786Y005163D01*
X004786Y005209D01*
X004832Y005256D01*
X004926Y005256D01*
X004973Y005209D01*
X004973Y005116D01*
X004926Y005069D01*
X005136Y005010D02*
X005366Y004780D01*
X005366Y005087D01*
X005136Y005010D02*
X005597Y005010D01*
X005520Y004627D02*
X005213Y004627D01*
X005136Y004550D01*
X005136Y004320D01*
X005597Y004320D01*
X005597Y004550D01*
X005520Y004627D01*
X005597Y004166D02*
X005597Y003859D01*
X005136Y003859D01*
X005136Y004166D01*
X005366Y004013D02*
X005366Y003859D01*
X005597Y003706D02*
X005597Y003399D01*
X005136Y003399D01*
X006191Y003438D02*
X006652Y003438D01*
X006652Y003745D01*
X006652Y003899D02*
X006191Y003899D01*
X006191Y004206D01*
X006191Y004359D02*
X006191Y004589D01*
X006268Y004666D01*
X006575Y004666D01*
X006652Y004589D01*
X006652Y004359D01*
X006191Y004359D01*
X006421Y004052D02*
X006421Y003899D01*
X006652Y003899D02*
X006652Y004206D01*
X006575Y004819D02*
X006652Y004896D01*
X006652Y005050D01*
X006575Y005126D01*
X006498Y005126D01*
X006421Y005050D01*
X006421Y004973D01*
X006421Y005050D02*
X006345Y005126D01*
X006268Y005126D01*
X006191Y005050D01*
X006191Y004896D01*
X006268Y004819D01*
X006056Y006121D02*
X005595Y006121D01*
X005595Y006351D01*
X005672Y006428D01*
X005825Y006428D01*
X005902Y006351D01*
X005902Y006121D01*
X005902Y006274D02*
X006056Y006428D01*
X005825Y006581D02*
X005825Y006888D01*
X005595Y006811D02*
X005825Y006581D01*
X006056Y006811D02*
X005595Y006811D01*
X006729Y006772D02*
X006729Y006619D01*
X006806Y006542D01*
X006806Y006388D02*
X006959Y006388D01*
X007036Y006312D01*
X007036Y006081D01*
X007189Y006081D02*
X006729Y006081D01*
X006729Y006312D01*
X006806Y006388D01*
X007036Y006235D02*
X007189Y006388D01*
X007189Y006542D02*
X006883Y006849D01*
X006806Y006849D01*
X006729Y006772D01*
X007189Y006849D02*
X007189Y006542D01*
X008792Y006366D02*
X008792Y006319D01*
X008839Y006272D01*
X008932Y006272D01*
X008979Y006226D01*
X008979Y006179D01*
X008932Y006132D01*
X008839Y006132D01*
X008792Y006179D01*
X008792Y006366D02*
X008839Y006412D01*
X008932Y006412D01*
X008979Y006366D01*
X009087Y006412D02*
X009087Y006132D01*
X009180Y006226D01*
X009274Y006132D01*
X009274Y006412D01*
X009381Y006319D02*
X009475Y006412D01*
X009475Y006132D01*
X009568Y006132D02*
X009381Y006132D01*
X006758Y008273D02*
X006297Y008273D01*
X006297Y008503D01*
X006374Y008580D01*
X006527Y008580D01*
X006604Y008503D01*
X006604Y008273D01*
X006604Y008427D02*
X006758Y008580D01*
X006681Y008734D02*
X006758Y008810D01*
X006758Y008964D01*
X006681Y009040D01*
X006527Y009040D01*
X006451Y008964D01*
X006451Y008887D01*
X006527Y008734D01*
X006297Y008734D01*
X006297Y009040D01*
X009464Y013692D02*
X009617Y013692D01*
X009694Y013769D01*
X009847Y013692D02*
X010154Y013692D01*
X010001Y013692D02*
X010001Y014152D01*
X009847Y013999D01*
X009694Y014076D02*
X009617Y014152D01*
X009464Y014152D01*
X009387Y014076D01*
X009387Y013769D01*
X009464Y013692D01*
X010308Y013769D02*
X010384Y013692D01*
X010538Y013692D01*
X010615Y013769D01*
X010615Y013922D01*
X010538Y013999D01*
X010461Y013999D01*
X010308Y013922D01*
X010308Y014152D01*
X010615Y014152D01*
X010045Y015336D02*
X009585Y015336D01*
X009585Y015566D01*
X009661Y015643D01*
X009815Y015643D01*
X009891Y015566D01*
X009891Y015336D01*
X009891Y015490D02*
X010045Y015643D01*
X010045Y015797D02*
X010045Y016103D01*
X010045Y015950D02*
X009585Y015950D01*
X009738Y015797D01*
X009661Y016257D02*
X009585Y016334D01*
X009585Y016487D01*
X009661Y016564D01*
X009968Y016257D01*
X010045Y016334D01*
X010045Y016487D01*
X009968Y016564D01*
X009661Y016564D01*
X009661Y016257D02*
X009968Y016257D01*
X008972Y017038D02*
X008895Y016961D01*
X008742Y016961D01*
X008665Y017038D01*
X008511Y016961D02*
X008204Y016961D01*
X008051Y016961D02*
X007897Y017115D01*
X007974Y017115D02*
X007744Y017115D01*
X007744Y016961D02*
X007744Y017422D01*
X007974Y017422D01*
X008051Y017345D01*
X008051Y017192D01*
X007974Y017115D01*
X008204Y017268D02*
X008358Y017422D01*
X008358Y016961D01*
X008359Y016541D02*
X008359Y016081D01*
X008512Y016081D02*
X008205Y016081D01*
X008052Y016158D02*
X007975Y016081D01*
X007821Y016081D01*
X007745Y016158D01*
X007745Y016465D01*
X007821Y016541D01*
X007975Y016541D01*
X008052Y016465D01*
X008205Y016388D02*
X008359Y016541D01*
X008972Y017038D02*
X008972Y017115D01*
X008895Y017192D01*
X008818Y017192D01*
X008895Y017192D02*
X008972Y017268D01*
X008972Y017345D01*
X008895Y017422D01*
X008742Y017422D01*
X008665Y017345D01*
X008625Y017847D02*
X008932Y018154D01*
X008932Y018231D01*
X008856Y018308D01*
X008702Y018308D01*
X008625Y018231D01*
X008319Y018308D02*
X008319Y017847D01*
X008472Y017847D02*
X008165Y017847D01*
X008012Y017847D02*
X007858Y018001D01*
X007935Y018001D02*
X007705Y018001D01*
X007705Y017847D02*
X007705Y018308D01*
X007935Y018308D01*
X008012Y018231D01*
X008012Y018077D01*
X007935Y018001D01*
X008165Y018154D02*
X008319Y018308D01*
X008335Y018633D02*
X008335Y019093D01*
X008182Y018940D01*
X008182Y018633D02*
X008489Y018633D01*
X008028Y018633D02*
X007721Y018633D01*
X007875Y018633D02*
X007875Y019093D01*
X007721Y018940D01*
X007568Y019017D02*
X007491Y019093D01*
X007338Y019093D01*
X007261Y019017D01*
X007261Y018710D01*
X007338Y018633D01*
X007491Y018633D01*
X007568Y018710D01*
X008625Y017847D02*
X008932Y017847D01*
X009857Y018798D02*
X010011Y018798D01*
X010088Y018874D01*
X010241Y018874D02*
X010318Y018798D01*
X010471Y018798D01*
X010548Y018874D01*
X010548Y019181D01*
X010471Y019258D01*
X010318Y019258D01*
X010241Y019181D01*
X010241Y019104D01*
X010318Y019028D01*
X010548Y019028D01*
X010088Y019181D02*
X010011Y019258D01*
X009857Y019258D01*
X009781Y019181D01*
X009781Y018874D01*
X009857Y018798D01*
X009843Y019834D02*
X009843Y020294D01*
X009690Y020141D01*
X009536Y020217D02*
X009460Y020294D01*
X009306Y020294D01*
X009229Y020217D01*
X009229Y019910D01*
X009306Y019834D01*
X009460Y019834D01*
X009536Y019910D01*
X009690Y019834D02*
X009997Y019834D01*
X010150Y019910D02*
X010227Y019834D01*
X010380Y019834D01*
X010457Y019910D01*
X010457Y019987D01*
X010380Y020064D01*
X010150Y020064D01*
X010150Y019910D01*
X010150Y020064D02*
X010304Y020217D01*
X010457Y020294D01*
X011572Y020977D02*
X011632Y020916D01*
X011692Y020916D01*
X011752Y020977D01*
X011752Y021277D01*
X011692Y021277D02*
X011812Y021277D01*
X011940Y021217D02*
X012000Y021277D01*
X012120Y021277D01*
X012180Y021217D01*
X012180Y021157D01*
X012120Y021097D01*
X012180Y021037D01*
X012180Y020977D01*
X012120Y020916D01*
X012000Y020916D01*
X011940Y020977D01*
X012060Y021097D02*
X012120Y021097D01*
X014092Y021914D02*
X014399Y021914D01*
X014552Y021914D02*
X014859Y021914D01*
X014706Y021914D02*
X014706Y022374D01*
X014552Y022221D01*
X014092Y022374D02*
X014092Y021914D01*
X016459Y023445D02*
X016613Y023445D01*
X016536Y023445D02*
X016536Y023906D01*
X016459Y023906D02*
X016613Y023906D01*
X016766Y023829D02*
X016843Y023906D01*
X016996Y023906D01*
X017073Y023829D01*
X017073Y023752D01*
X016766Y023445D01*
X017073Y023445D01*
X017227Y023522D02*
X017303Y023445D01*
X017457Y023445D01*
X017534Y023522D01*
X017534Y023829D02*
X017457Y023906D01*
X017303Y023906D01*
X017227Y023829D01*
X017227Y023522D01*
X021400Y023522D02*
X021477Y023445D01*
X021631Y023445D01*
X021707Y023522D01*
X021707Y023906D01*
X021861Y023752D02*
X022014Y023906D01*
X022168Y023752D01*
X022168Y023445D01*
X022321Y023445D02*
X022321Y023906D01*
X022551Y023906D01*
X022628Y023829D01*
X022628Y023675D01*
X022551Y023599D01*
X022321Y023599D01*
X022475Y023599D02*
X022628Y023445D01*
X022935Y023445D02*
X022935Y023906D01*
X023088Y023906D02*
X022781Y023906D01*
X023242Y023752D02*
X023395Y023906D01*
X023395Y023445D01*
X023242Y023445D02*
X023549Y023445D01*
X022168Y023675D02*
X021861Y023675D01*
X021861Y023752D02*
X021861Y023445D01*
X021400Y023522D02*
X021400Y023906D01*
X023112Y021051D02*
X023342Y020821D01*
X023342Y021128D01*
X023112Y021051D02*
X023573Y021051D01*
X023573Y020668D02*
X023573Y020361D01*
X023266Y020668D01*
X023189Y020668D01*
X023112Y020591D01*
X023112Y020437D01*
X023189Y020361D01*
X023189Y020207D02*
X023112Y020130D01*
X023112Y019977D01*
X023189Y019900D01*
X023496Y019900D01*
X023573Y019977D01*
X023573Y020130D01*
X023496Y020207D01*
X025529Y020091D02*
X025529Y019938D01*
X025606Y019861D01*
X025913Y019861D01*
X025990Y019938D01*
X025990Y020091D01*
X025913Y020168D01*
X025990Y020321D02*
X025683Y020628D01*
X025606Y020628D01*
X025529Y020552D01*
X025529Y020398D01*
X025606Y020321D01*
X025606Y020168D02*
X025529Y020091D01*
X025990Y020321D02*
X025990Y020628D01*
X025913Y020782D02*
X025990Y020858D01*
X025990Y021012D01*
X025913Y021089D01*
X025760Y021089D01*
X025683Y021012D01*
X025683Y020935D01*
X025760Y020782D01*
X025529Y020782D01*
X025529Y021089D01*
X028552Y022474D02*
X028552Y022935D01*
X028782Y022935D01*
X028859Y022858D01*
X028859Y022705D01*
X028782Y022628D01*
X028552Y022628D01*
X028706Y022628D02*
X028859Y022474D01*
X029013Y022474D02*
X029320Y022474D01*
X029166Y022474D02*
X029166Y022935D01*
X029013Y022781D01*
X029473Y022781D02*
X029473Y022858D01*
X029550Y022935D01*
X029703Y022935D01*
X029780Y022858D01*
X029780Y022781D01*
X029703Y022705D01*
X029550Y022705D01*
X029473Y022781D01*
X029550Y022705D02*
X029473Y022628D01*
X029473Y022551D01*
X029550Y022474D01*
X029703Y022474D01*
X029780Y022551D01*
X029780Y022628D01*
X029703Y022705D01*
X028943Y023445D02*
X028636Y023445D01*
X028943Y023752D01*
X028943Y023829D01*
X028866Y023906D01*
X028712Y023906D01*
X028636Y023829D01*
X028482Y023906D02*
X028175Y023906D01*
X028329Y023906D02*
X028329Y023445D01*
X028022Y023445D02*
X027868Y023599D01*
X027945Y023599D02*
X027715Y023599D01*
X027715Y023445D02*
X027715Y023906D01*
X027945Y023906D01*
X028022Y023829D01*
X028022Y023675D01*
X027945Y023599D01*
X027561Y023675D02*
X027254Y023675D01*
X027254Y023752D02*
X027254Y023445D01*
X027101Y023522D02*
X027101Y023906D01*
X027254Y023752D02*
X027408Y023906D01*
X027561Y023752D01*
X027561Y023445D01*
X027101Y023522D02*
X027024Y023445D01*
X026871Y023445D01*
X026794Y023522D01*
X026794Y023906D01*
X032345Y023906D02*
X032345Y023522D01*
X032422Y023445D01*
X032575Y023445D01*
X032652Y023522D01*
X032652Y023906D01*
X032806Y023752D02*
X032806Y023445D01*
X032806Y023675D02*
X033113Y023675D01*
X033113Y023752D02*
X033113Y023445D01*
X033266Y023445D02*
X033266Y023906D01*
X033496Y023906D01*
X033573Y023829D01*
X033573Y023675D01*
X033496Y023599D01*
X033266Y023599D01*
X033419Y023599D02*
X033573Y023445D01*
X033880Y023445D02*
X033880Y023906D01*
X034033Y023906D02*
X033726Y023906D01*
X034187Y023829D02*
X034263Y023906D01*
X034417Y023906D01*
X034494Y023829D01*
X034494Y023752D01*
X034417Y023675D01*
X034494Y023599D01*
X034494Y023522D01*
X034417Y023445D01*
X034263Y023445D01*
X034187Y023522D01*
X034340Y023675D02*
X034417Y023675D01*
X034790Y022826D02*
X034714Y022750D01*
X034714Y022443D01*
X034790Y022366D01*
X034944Y022366D01*
X035021Y022443D01*
X035174Y022366D02*
X035481Y022673D01*
X035481Y022750D01*
X035404Y022826D01*
X035251Y022826D01*
X035174Y022750D01*
X035021Y022750D02*
X034944Y022826D01*
X034790Y022826D01*
X035174Y022366D02*
X035481Y022366D01*
X035634Y022443D02*
X035711Y022366D01*
X035865Y022366D01*
X035941Y022443D01*
X035941Y022520D01*
X035865Y022596D01*
X035788Y022596D01*
X035865Y022596D02*
X035941Y022673D01*
X035941Y022750D01*
X035865Y022826D01*
X035711Y022826D01*
X035634Y022750D01*
X033113Y023752D02*
X032959Y023906D01*
X032806Y023752D01*
X032182Y018409D02*
X032182Y017949D01*
X032335Y017949D02*
X032028Y017949D01*
X031875Y018025D02*
X031798Y017949D01*
X031644Y017949D01*
X031568Y018025D01*
X031414Y018025D02*
X031338Y017949D01*
X031184Y017949D01*
X031107Y018025D01*
X031107Y018332D01*
X031184Y018409D01*
X031338Y018409D01*
X031414Y018332D01*
X031568Y018332D02*
X031644Y018409D01*
X031798Y018409D01*
X031875Y018332D01*
X031875Y018256D01*
X031798Y018179D01*
X031875Y018102D01*
X031875Y018025D01*
X031798Y018179D02*
X031721Y018179D01*
X032028Y018256D02*
X032182Y018409D01*
X030544Y018091D02*
X030237Y018091D01*
X030467Y018321D01*
X030467Y017861D01*
X030083Y017861D02*
X029776Y017861D01*
X030083Y018168D01*
X030083Y018245D01*
X030007Y018321D01*
X029853Y018321D01*
X029776Y018245D01*
X029623Y018245D02*
X029623Y018091D01*
X029546Y018014D01*
X029316Y018014D01*
X029316Y017861D02*
X029316Y018321D01*
X029546Y018321D01*
X029623Y018245D01*
X029469Y018014D02*
X029623Y017861D01*
X029154Y017554D02*
X029154Y017401D01*
X029077Y017324D01*
X029001Y017324D01*
X028924Y017401D01*
X028924Y017554D01*
X029001Y017631D01*
X029077Y017631D01*
X029154Y017554D01*
X028924Y017554D02*
X028847Y017631D01*
X028770Y017631D01*
X028694Y017554D01*
X028694Y017401D01*
X028770Y017324D01*
X028847Y017324D01*
X028924Y017401D01*
X028847Y017171D02*
X028770Y017171D01*
X028694Y017094D01*
X028694Y016940D01*
X028770Y016864D01*
X028770Y016710D02*
X028694Y016634D01*
X028694Y016480D01*
X028770Y016403D01*
X029077Y016403D01*
X029154Y016480D01*
X029154Y016634D01*
X029077Y016710D01*
X029154Y016864D02*
X028847Y017171D01*
X029154Y017171D02*
X029154Y016864D01*
X026442Y015313D02*
X026365Y015313D01*
X026058Y015620D01*
X025981Y015620D01*
X025981Y015313D01*
X026058Y015160D02*
X025981Y015083D01*
X025981Y014929D01*
X026058Y014853D01*
X026058Y014699D02*
X025981Y014623D01*
X025981Y014469D01*
X026058Y014392D01*
X026365Y014392D01*
X026442Y014469D01*
X026442Y014623D01*
X026365Y014699D01*
X026442Y014853D02*
X026135Y015160D01*
X026058Y015160D01*
X026442Y015160D02*
X026442Y014853D01*
X026292Y015935D02*
X025985Y015935D01*
X026292Y016242D01*
X026292Y016319D01*
X026215Y016396D01*
X026061Y016396D01*
X025985Y016319D01*
X025831Y016319D02*
X025831Y016012D01*
X025755Y015935D01*
X025524Y015935D01*
X025524Y016396D01*
X025755Y016396D01*
X025831Y016319D01*
X024861Y015356D02*
X024554Y015356D01*
X024477Y015280D01*
X024477Y015126D01*
X024554Y015049D01*
X024631Y015049D01*
X024707Y015126D01*
X024707Y015356D01*
X024861Y015356D02*
X024937Y015280D01*
X024937Y015126D01*
X024861Y015049D01*
X024937Y014896D02*
X024937Y014589D01*
X024631Y014896D01*
X024554Y014896D01*
X024477Y014819D01*
X024477Y014666D01*
X024554Y014589D01*
X024554Y014436D02*
X024707Y014436D01*
X024784Y014359D01*
X024784Y014129D01*
X024784Y014282D02*
X024937Y014436D01*
X024937Y014129D02*
X024477Y014129D01*
X024477Y014359D01*
X024554Y014436D01*
X023595Y014943D02*
X022689Y014943D01*
X021941Y014943D02*
X021036Y014943D01*
X021036Y016833D01*
X021705Y017502D01*
X021941Y017502D01*
X022689Y017502D02*
X022926Y017502D01*
X023595Y016833D01*
X023595Y014943D01*
X021941Y015061D02*
X021877Y015083D01*
X021814Y015110D01*
X021752Y015140D01*
X021693Y015173D01*
X021635Y015209D01*
X021579Y015249D01*
X021526Y015292D01*
X021475Y015337D01*
X021427Y015385D01*
X021382Y015436D01*
X021339Y015490D01*
X021300Y015546D01*
X021263Y015603D01*
X021230Y015663D01*
X021201Y015725D01*
X021175Y015788D01*
X021152Y015852D01*
X021133Y015918D01*
X021118Y015985D01*
X021107Y016052D01*
X021099Y016120D01*
X021095Y016188D01*
X021095Y016256D01*
X021099Y016324D01*
X021107Y016392D01*
X021118Y016459D01*
X021133Y016526D01*
X021152Y016592D01*
X021175Y016656D01*
X021201Y016719D01*
X021230Y016781D01*
X021263Y016841D01*
X021300Y016898D01*
X021339Y016954D01*
X021382Y017008D01*
X021427Y017059D01*
X021475Y017107D01*
X021526Y017152D01*
X021579Y017195D01*
X021635Y017235D01*
X021693Y017271D01*
X021752Y017304D01*
X021814Y017334D01*
X021877Y017361D01*
X021941Y017383D01*
X020763Y018045D02*
X020456Y018045D01*
X020610Y018045D02*
X020610Y018506D01*
X020456Y018352D01*
X020303Y018429D02*
X020226Y018506D01*
X020073Y018506D01*
X019996Y018429D01*
X019996Y018122D01*
X020073Y018045D01*
X020226Y018045D01*
X020303Y018122D01*
X018085Y016415D02*
X017855Y016184D01*
X018162Y016184D01*
X018085Y015954D02*
X018085Y016415D01*
X017701Y016338D02*
X017625Y016415D01*
X017471Y016415D01*
X017394Y016338D01*
X017394Y016031D01*
X017471Y015954D01*
X017625Y015954D01*
X017701Y016031D01*
X017217Y016108D02*
X017140Y016031D01*
X016987Y016031D01*
X016910Y016108D01*
X016757Y016108D02*
X016680Y016031D01*
X016526Y016031D01*
X016450Y016108D01*
X016450Y016415D01*
X016526Y016492D01*
X016680Y016492D01*
X016757Y016415D01*
X016910Y016415D02*
X016987Y016492D01*
X017140Y016492D01*
X017217Y016415D01*
X017217Y016338D01*
X017140Y016262D01*
X017217Y016185D01*
X017217Y016108D01*
X017140Y016262D02*
X017063Y016262D01*
X014020Y016123D02*
X014020Y015816D01*
X013943Y015739D01*
X013790Y015739D01*
X013713Y015816D01*
X014020Y016123D01*
X013943Y016200D01*
X013790Y016200D01*
X013713Y016123D01*
X013713Y015816D01*
X013560Y015739D02*
X013253Y015739D01*
X013406Y015739D02*
X013406Y016200D01*
X013253Y016046D01*
X013099Y016123D02*
X013023Y016200D01*
X012869Y016200D01*
X012792Y016123D01*
X012792Y015816D01*
X012869Y015739D01*
X013023Y015739D01*
X013099Y015816D01*
X013192Y015163D02*
X013345Y015163D01*
X013422Y015087D01*
X013422Y015010D01*
X013345Y014933D01*
X013192Y014933D01*
X013115Y015010D01*
X013115Y015087D01*
X013192Y015163D01*
X013192Y014933D02*
X013115Y014857D01*
X013115Y014780D01*
X013192Y014703D01*
X013345Y014703D01*
X013422Y014780D01*
X013422Y014857D01*
X013345Y014933D01*
X012962Y014780D02*
X012885Y014703D01*
X012731Y014703D01*
X012655Y014780D01*
X012655Y015087D01*
X012731Y015163D01*
X012885Y015163D01*
X012962Y015087D01*
X013520Y016377D02*
X013827Y016377D01*
X013904Y016453D01*
X013904Y016607D01*
X013827Y016684D01*
X013904Y016837D02*
X013904Y017144D01*
X013904Y017297D02*
X013827Y017297D01*
X013520Y017604D01*
X013444Y017604D01*
X013444Y017297D01*
X013444Y016990D02*
X013904Y016990D01*
X013597Y016837D02*
X013444Y016990D01*
X013520Y016684D02*
X013444Y016607D01*
X013444Y016453D01*
X013520Y016377D01*
X018846Y013481D02*
X018846Y013020D01*
X018846Y013174D02*
X019077Y013174D01*
X019153Y013251D01*
X019153Y013404D01*
X019077Y013481D01*
X018846Y013481D01*
X019000Y013174D02*
X019153Y013020D01*
X019307Y013020D02*
X019614Y013020D01*
X019460Y013020D02*
X019460Y013481D01*
X019307Y013327D01*
X020647Y012612D02*
X020877Y012612D01*
X020954Y012535D01*
X020954Y012382D01*
X020877Y012305D01*
X020647Y012305D01*
X020800Y012305D02*
X020954Y012151D01*
X021107Y012151D02*
X021414Y012458D01*
X021414Y012535D01*
X021337Y012612D01*
X021184Y012612D01*
X021107Y012535D01*
X021107Y012151D02*
X021414Y012151D01*
X021568Y012228D02*
X021644Y012151D01*
X021798Y012151D01*
X021874Y012228D01*
X021874Y012382D01*
X021798Y012458D01*
X021721Y012458D01*
X021568Y012382D01*
X021568Y012612D01*
X021874Y012612D01*
X022795Y012508D02*
X022795Y012355D01*
X022872Y012278D01*
X023178Y012278D01*
X023255Y012355D01*
X023255Y012508D01*
X023178Y012585D01*
X023255Y012739D02*
X022948Y013046D01*
X022872Y013046D01*
X022795Y012969D01*
X022795Y012815D01*
X022872Y012739D01*
X022872Y012585D02*
X022795Y012508D01*
X023255Y012739D02*
X023255Y013046D01*
X023178Y013199D02*
X023255Y013276D01*
X023255Y013429D01*
X023178Y013506D01*
X023102Y013506D01*
X023025Y013429D01*
X023025Y013199D01*
X023178Y013199D01*
X023025Y013199D02*
X022872Y013352D01*
X022795Y013506D01*
X020647Y012612D02*
X020647Y012151D01*
X019465Y011067D02*
X019388Y011144D01*
X019312Y011144D01*
X019235Y011067D01*
X019235Y010837D01*
X019388Y010837D01*
X019465Y010914D01*
X019465Y011067D01*
X019235Y010837D02*
X019081Y010990D01*
X019005Y011144D01*
X019081Y010683D02*
X019005Y010607D01*
X019005Y010453D01*
X019081Y010376D01*
X019081Y010223D02*
X019235Y010223D01*
X019312Y010146D01*
X019312Y009916D01*
X019465Y009916D02*
X019005Y009916D01*
X019005Y010146D01*
X019081Y010223D01*
X019312Y010070D02*
X019465Y010223D01*
X019465Y010376D02*
X019158Y010683D01*
X019081Y010683D01*
X019465Y010683D02*
X019465Y010376D01*
X018542Y009955D02*
X018542Y009355D01*
X017842Y009355D02*
X017842Y009955D01*
X017990Y010536D02*
X018450Y010536D01*
X018450Y010843D01*
X018373Y010996D02*
X018450Y011073D01*
X018450Y011226D01*
X018373Y011303D01*
X018297Y011303D01*
X018220Y011226D01*
X018220Y011150D01*
X018220Y011226D02*
X018143Y011303D01*
X018066Y011303D01*
X017990Y011226D01*
X017990Y011073D01*
X018066Y010996D01*
X017204Y011447D02*
X017204Y011587D01*
X017158Y011634D01*
X017018Y011634D01*
X017018Y011447D01*
X016910Y011494D02*
X016910Y011587D01*
X016863Y011634D01*
X016770Y011634D01*
X016723Y011587D01*
X016723Y011494D01*
X016770Y011447D01*
X016863Y011447D01*
X016910Y011494D01*
X016615Y011447D02*
X016615Y011727D01*
X016615Y011634D02*
X016475Y011634D01*
X016428Y011587D01*
X016428Y011494D01*
X016475Y011447D01*
X016615Y011447D01*
X016321Y011447D02*
X016321Y011587D01*
X016274Y011634D01*
X016134Y011634D01*
X016134Y011447D01*
X016026Y011494D02*
X016026Y011587D01*
X015979Y011634D01*
X015886Y011634D01*
X015839Y011587D01*
X015839Y011494D01*
X015886Y011447D01*
X015979Y011447D01*
X016026Y011494D01*
X015731Y011447D02*
X015544Y011447D01*
X015544Y011727D01*
X015142Y011587D02*
X015142Y011541D01*
X014955Y011541D01*
X014955Y011587D02*
X014955Y011494D01*
X015002Y011447D01*
X015095Y011447D01*
X015142Y011587D02*
X015095Y011634D01*
X015002Y011634D01*
X014955Y011587D01*
X014847Y011634D02*
X014707Y011634D01*
X014660Y011587D01*
X014660Y011494D01*
X014707Y011447D01*
X014847Y011447D01*
X014847Y011400D02*
X014847Y011634D01*
X014847Y011400D02*
X014801Y011354D01*
X014754Y011354D01*
X014506Y011447D02*
X014412Y011447D01*
X014366Y011494D01*
X014366Y011587D01*
X014412Y011634D01*
X014506Y011634D01*
X014553Y011587D01*
X014553Y011541D01*
X014366Y011541D01*
X014263Y011447D02*
X014169Y011447D01*
X014216Y011447D02*
X014216Y011727D01*
X014169Y011727D01*
X014020Y011727D02*
X014020Y011447D01*
X014066Y011447D02*
X013973Y011447D01*
X013973Y011727D02*
X014020Y011727D01*
X017922Y007719D02*
X017922Y007412D01*
X018152Y007412D01*
X018075Y007565D01*
X018075Y007642D01*
X018152Y007719D01*
X018306Y007719D01*
X018382Y007642D01*
X018382Y007488D01*
X018306Y007412D01*
X018382Y007258D02*
X018382Y006951D01*
X018382Y006798D02*
X018229Y006644D01*
X018229Y006721D02*
X018229Y006491D01*
X018382Y006491D02*
X017922Y006491D01*
X017922Y006721D01*
X017999Y006798D01*
X018152Y006798D01*
X018229Y006721D01*
X018075Y006951D02*
X017922Y007105D01*
X018382Y007105D01*
X016827Y006079D02*
X016827Y005926D01*
X016751Y005849D01*
X016674Y005849D01*
X016597Y005926D01*
X016597Y006079D01*
X016674Y006156D01*
X016751Y006156D01*
X016827Y006079D01*
X016597Y006079D02*
X016520Y006156D01*
X016444Y006156D01*
X016367Y006079D01*
X016367Y005926D01*
X016444Y005849D01*
X016520Y005849D01*
X016597Y005926D01*
X016597Y005695D02*
X016674Y005619D01*
X016674Y005388D01*
X016827Y005388D02*
X016367Y005388D01*
X016367Y005619D01*
X016444Y005695D01*
X016597Y005695D01*
X016674Y005542D02*
X016827Y005695D01*
X022646Y009235D02*
X022646Y009465D01*
X022722Y009542D01*
X022876Y009542D01*
X022953Y009465D01*
X022953Y009235D01*
X023106Y009235D02*
X022646Y009235D01*
X022953Y009388D02*
X023106Y009542D01*
X023106Y009695D02*
X023106Y010002D01*
X023106Y009849D02*
X022646Y009849D01*
X022799Y009695D01*
X022876Y010156D02*
X022876Y010386D01*
X022953Y010463D01*
X023029Y010463D01*
X023106Y010386D01*
X023106Y010232D01*
X023029Y010156D01*
X022876Y010156D01*
X022722Y010309D01*
X022646Y010463D01*
X024929Y010423D02*
X024929Y010116D01*
X024929Y009809D02*
X025389Y009809D01*
X025389Y009656D02*
X025389Y009963D01*
X025389Y010116D02*
X025313Y010116D01*
X025006Y010423D01*
X024929Y010423D01*
X024929Y009809D02*
X025083Y009656D01*
X025159Y009502D02*
X025006Y009502D01*
X024929Y009426D01*
X024929Y009195D01*
X025389Y009195D01*
X025236Y009195D02*
X025236Y009426D01*
X025159Y009502D01*
X025236Y009349D02*
X025389Y009502D01*
X025875Y009776D02*
X025951Y009699D01*
X026105Y009699D01*
X026182Y009776D01*
X026182Y010160D01*
X026335Y010006D02*
X026489Y010160D01*
X026489Y009699D01*
X026642Y009699D02*
X026335Y009699D01*
X026796Y009699D02*
X027102Y010006D01*
X027102Y010083D01*
X027026Y010160D01*
X026872Y010160D01*
X026796Y010083D01*
X026796Y009699D02*
X027102Y009699D01*
X025875Y009776D02*
X025875Y010160D01*
X025410Y008663D02*
X025410Y008357D01*
X025103Y008663D01*
X025026Y008663D01*
X024950Y008587D01*
X024950Y008433D01*
X025026Y008357D01*
X025026Y008203D02*
X024950Y008126D01*
X024950Y007973D01*
X025026Y007896D01*
X025026Y007743D02*
X025180Y007743D01*
X025256Y007666D01*
X025256Y007436D01*
X025256Y007589D02*
X025410Y007743D01*
X025410Y007896D02*
X025103Y008203D01*
X025026Y008203D01*
X024662Y008242D02*
X024662Y007935D01*
X024355Y008242D01*
X024278Y008242D01*
X024201Y008166D01*
X024201Y008012D01*
X024278Y007935D01*
X024278Y007782D02*
X024432Y007782D01*
X024508Y007705D01*
X024508Y007475D01*
X024508Y007629D02*
X024662Y007782D01*
X024662Y007475D02*
X024201Y007475D01*
X024201Y007705D01*
X024278Y007782D01*
X024950Y007666D02*
X025026Y007743D01*
X024950Y007666D02*
X024950Y007436D01*
X025410Y007436D01*
X025410Y007896D02*
X025410Y008203D01*
X024662Y008473D02*
X024585Y008396D01*
X024662Y008473D02*
X024662Y008626D01*
X024585Y008703D01*
X024508Y008703D01*
X024432Y008626D01*
X024432Y008549D01*
X024432Y008626D02*
X024355Y008703D01*
X024278Y008703D01*
X024201Y008626D01*
X024201Y008473D01*
X024278Y008396D01*
X023597Y007308D02*
X023290Y007308D01*
X023597Y007002D01*
X023673Y007078D01*
X023673Y007232D01*
X023597Y007308D01*
X023597Y007002D02*
X023290Y007002D01*
X023213Y007078D01*
X023213Y007232D01*
X023290Y007308D01*
X023290Y006848D02*
X023366Y006848D01*
X023443Y006771D01*
X023443Y006541D01*
X023520Y006388D02*
X023597Y006388D01*
X023673Y006311D01*
X023673Y006157D01*
X023597Y006081D01*
X023597Y005927D02*
X023213Y005927D01*
X023290Y006081D02*
X023366Y006081D01*
X023443Y006157D01*
X023443Y006311D01*
X023520Y006388D01*
X023673Y006541D02*
X023673Y006771D01*
X023597Y006848D01*
X023520Y006848D01*
X023443Y006771D01*
X023290Y006848D02*
X023213Y006771D01*
X023213Y006541D01*
X023673Y006541D01*
X023290Y006388D02*
X023213Y006311D01*
X023213Y006157D01*
X023290Y006081D01*
X023597Y005927D02*
X023673Y005851D01*
X023673Y005697D01*
X023597Y005620D01*
X023213Y005620D01*
X025934Y006255D02*
X025934Y006485D01*
X026011Y006562D01*
X026164Y006562D01*
X026241Y006485D01*
X026241Y006255D01*
X026241Y006408D02*
X026394Y006562D01*
X026394Y006715D02*
X026087Y007022D01*
X026011Y007022D01*
X025934Y006945D01*
X025934Y006792D01*
X026011Y006715D01*
X026394Y006715D02*
X026394Y007022D01*
X026394Y007175D02*
X026394Y007482D01*
X026394Y007329D02*
X025934Y007329D01*
X026087Y007175D01*
X025934Y006255D02*
X026394Y006255D01*
X027687Y005444D02*
X027764Y005291D01*
X027918Y005137D01*
X027918Y005368D01*
X027994Y005444D01*
X028071Y005444D01*
X028148Y005368D01*
X028148Y005214D01*
X028071Y005137D01*
X027918Y005137D01*
X028002Y005092D02*
X028002Y004939D01*
X028079Y004862D01*
X028148Y004907D02*
X028071Y004984D01*
X027764Y004984D01*
X027687Y004907D01*
X027687Y004677D01*
X028148Y004677D01*
X028148Y004907D01*
X028079Y004708D02*
X028002Y004632D01*
X028002Y004401D01*
X028463Y004401D01*
X028463Y004632D01*
X028386Y004708D01*
X028079Y004708D01*
X028148Y004524D02*
X028148Y004217D01*
X027687Y004217D01*
X027687Y004524D01*
X027918Y004370D02*
X027918Y004217D01*
X028002Y004248D02*
X028002Y003941D01*
X028463Y003941D01*
X028463Y004248D01*
X028232Y004094D02*
X028232Y003941D01*
X028148Y004063D02*
X028148Y003756D01*
X027687Y003756D01*
X028002Y003481D02*
X028463Y003481D01*
X028463Y003788D01*
X028768Y004314D02*
X028768Y004544D01*
X028844Y004621D01*
X028998Y004621D01*
X029075Y004544D01*
X029075Y004314D01*
X029228Y004314D02*
X028768Y004314D01*
X029075Y004467D02*
X029228Y004621D01*
X029228Y004774D02*
X028921Y005081D01*
X028844Y005081D01*
X028768Y005004D01*
X028768Y004851D01*
X028844Y004774D01*
X029228Y004774D02*
X029228Y005081D01*
X029151Y005234D02*
X029075Y005234D01*
X028998Y005311D01*
X028998Y005465D01*
X029075Y005541D01*
X029151Y005541D01*
X029228Y005465D01*
X029228Y005311D01*
X029151Y005234D01*
X028998Y005311D02*
X028921Y005234D01*
X028844Y005234D01*
X028768Y005311D01*
X028768Y005465D01*
X028844Y005541D01*
X028921Y005541D01*
X028998Y005465D01*
X028460Y005365D02*
X028000Y005365D01*
X028000Y005595D01*
X028077Y005671D01*
X028230Y005671D01*
X028307Y005595D01*
X028307Y005365D01*
X028307Y005518D02*
X028460Y005671D01*
X028384Y005825D02*
X028460Y005902D01*
X028460Y006055D01*
X028384Y006132D01*
X028077Y006132D01*
X028000Y006055D01*
X028000Y005902D01*
X028077Y005825D01*
X028153Y005825D01*
X028230Y005902D01*
X028230Y006132D01*
X028156Y005169D02*
X028079Y005169D01*
X028002Y005092D01*
X028156Y005169D02*
X028463Y004862D01*
X028463Y005169D01*
X030406Y006179D02*
X030453Y006132D01*
X030546Y006132D01*
X030593Y006179D01*
X030593Y006226D01*
X030546Y006272D01*
X030453Y006272D01*
X030406Y006319D01*
X030406Y006366D01*
X030453Y006412D01*
X030546Y006412D01*
X030593Y006366D01*
X030701Y006412D02*
X030701Y006132D01*
X030794Y006226D01*
X030888Y006132D01*
X030888Y006412D01*
X030996Y006366D02*
X031042Y006412D01*
X031136Y006412D01*
X031182Y006366D01*
X031182Y006319D01*
X030996Y006132D01*
X031182Y006132D01*
X031209Y006570D02*
X031209Y006800D01*
X031286Y006877D01*
X031440Y006877D01*
X031516Y006800D01*
X031516Y006570D01*
X031516Y006723D02*
X031670Y006877D01*
X031670Y007030D02*
X031363Y007337D01*
X031286Y007337D01*
X031209Y007260D01*
X031209Y007107D01*
X031286Y007030D01*
X031670Y007030D02*
X031670Y007337D01*
X031670Y007490D02*
X031593Y007490D01*
X031286Y007797D01*
X031209Y007797D01*
X031209Y007490D01*
X030114Y007660D02*
X029653Y007660D01*
X029653Y007890D01*
X029730Y007967D01*
X029884Y007967D01*
X029960Y007890D01*
X029960Y007660D01*
X029960Y007814D02*
X030114Y007967D01*
X030114Y008120D02*
X030114Y008427D01*
X030114Y008274D02*
X029653Y008274D01*
X029807Y008120D01*
X029807Y008581D02*
X029730Y008581D01*
X029653Y008658D01*
X029653Y008811D01*
X029730Y008888D01*
X030037Y008888D01*
X030114Y008811D01*
X030114Y008658D01*
X030037Y008581D01*
X029884Y008658D02*
X029884Y008888D01*
X029884Y008658D02*
X029807Y008581D01*
X029229Y008557D02*
X029229Y008250D01*
X028922Y008557D01*
X028845Y008557D01*
X028768Y008481D01*
X028768Y008327D01*
X028845Y008250D01*
X028845Y008097D02*
X028999Y008097D01*
X029075Y008020D01*
X029075Y007790D01*
X029075Y007944D02*
X029229Y008097D01*
X029229Y007790D02*
X028768Y007790D01*
X028768Y008020D01*
X028845Y008097D01*
X028845Y008711D02*
X028768Y008788D01*
X028768Y008941D01*
X028845Y009018D01*
X029152Y008711D01*
X029229Y008788D01*
X029229Y008941D01*
X029152Y009018D01*
X028845Y009018D01*
X028845Y008711D02*
X029152Y008711D01*
X031209Y006570D02*
X031670Y006570D01*
X033162Y008400D02*
X033162Y008631D01*
X033238Y008707D01*
X033392Y008707D01*
X033469Y008631D01*
X033469Y008400D01*
X033622Y008400D02*
X033162Y008400D01*
X033238Y008861D02*
X033162Y008937D01*
X033162Y009091D01*
X033238Y009168D01*
X033315Y009168D01*
X033622Y008861D01*
X033622Y009168D01*
X034114Y010333D02*
X034037Y010410D01*
X034037Y010564D01*
X034114Y010640D01*
X034191Y010794D02*
X034037Y010947D01*
X034498Y010947D01*
X034498Y010794D02*
X034498Y011101D01*
X034421Y011254D02*
X034498Y011331D01*
X034498Y011484D01*
X034421Y011561D01*
X034344Y011561D01*
X034268Y011484D01*
X034268Y011408D01*
X034268Y011484D02*
X034191Y011561D01*
X034114Y011561D01*
X034037Y011484D01*
X034037Y011331D01*
X034114Y011254D01*
X034421Y010640D02*
X034498Y010564D01*
X034498Y010410D01*
X034421Y010333D01*
X034114Y010333D01*
X033843Y011983D02*
X033536Y011983D01*
X033843Y012290D01*
X033843Y012367D01*
X033766Y012444D01*
X033613Y012444D01*
X033536Y012367D01*
X033383Y012367D02*
X033383Y012290D01*
X033306Y012214D01*
X033383Y012137D01*
X033383Y012060D01*
X033306Y011983D01*
X033152Y011983D01*
X033076Y012060D01*
X032922Y012060D02*
X032845Y011983D01*
X032692Y011983D01*
X032615Y012060D01*
X032615Y012367D01*
X032692Y012444D01*
X032845Y012444D01*
X032922Y012367D01*
X033076Y012367D02*
X033152Y012444D01*
X033306Y012444D01*
X033383Y012367D01*
X033306Y012214D02*
X033229Y012214D01*
X032607Y012670D02*
X032607Y012823D01*
X032530Y012900D01*
X032530Y013053D02*
X032607Y013130D01*
X032607Y013283D01*
X032530Y013360D01*
X032377Y013360D01*
X032300Y013283D01*
X032300Y013207D01*
X032377Y013053D01*
X032147Y013053D01*
X032147Y013360D01*
X032197Y013813D02*
X032197Y014044D01*
X032274Y014120D01*
X032427Y014120D01*
X032504Y014044D01*
X032504Y013813D01*
X032657Y013813D02*
X032197Y013813D01*
X032504Y013967D02*
X032657Y014120D01*
X032580Y014274D02*
X032657Y014350D01*
X032657Y014504D01*
X032580Y014581D01*
X032504Y014581D01*
X032427Y014504D01*
X032427Y014427D01*
X032427Y014504D02*
X032350Y014581D01*
X032274Y014581D01*
X032197Y014504D01*
X032197Y014350D01*
X032274Y014274D01*
X033060Y014566D02*
X033060Y014873D01*
X033137Y014950D01*
X033290Y014950D01*
X033367Y014873D01*
X033520Y014797D02*
X033674Y014950D01*
X033674Y014490D01*
X033827Y014490D02*
X033520Y014490D01*
X033367Y014566D02*
X033290Y014490D01*
X033137Y014490D01*
X033060Y014566D01*
X033981Y014490D02*
X034288Y014797D01*
X034288Y014873D01*
X034211Y014950D01*
X034058Y014950D01*
X033981Y014873D01*
X033981Y014490D02*
X034288Y014490D01*
X035705Y015093D02*
X036012Y015093D01*
X036166Y015323D02*
X036473Y015323D01*
X036396Y015093D02*
X036396Y015553D01*
X036166Y015323D01*
X035705Y015553D02*
X035705Y015093D01*
X035274Y015927D02*
X035274Y016387D01*
X035044Y016157D01*
X035351Y016157D01*
X034890Y015927D02*
X034583Y015927D01*
X034737Y015927D02*
X034737Y016387D01*
X034583Y016234D01*
X034430Y016310D02*
X034353Y016387D01*
X034200Y016387D01*
X034123Y016310D01*
X034123Y016003D01*
X034200Y015927D01*
X034353Y015927D01*
X034430Y016003D01*
X036052Y016207D02*
X036129Y016130D01*
X036282Y016130D01*
X036359Y016207D01*
X036513Y016130D02*
X036820Y016437D01*
X036820Y016513D01*
X036743Y016590D01*
X036589Y016590D01*
X036513Y016513D01*
X036359Y016513D02*
X036282Y016590D01*
X036129Y016590D01*
X036052Y016513D01*
X036052Y016207D01*
X036513Y016130D02*
X036820Y016130D01*
X036973Y016130D02*
X037280Y016437D01*
X037280Y016513D01*
X037203Y016590D01*
X037050Y016590D01*
X036973Y016513D01*
X036973Y016130D02*
X037280Y016130D01*
X032224Y012900D02*
X032147Y012823D01*
X032147Y012670D01*
X032224Y012593D01*
X032530Y012593D01*
X032607Y012670D01*
X036859Y011140D02*
X037012Y010986D01*
X036935Y010833D02*
X036859Y010756D01*
X036859Y010526D01*
X037319Y010526D01*
X037319Y010756D01*
X037242Y010833D01*
X036935Y010833D01*
X036859Y011140D02*
X037319Y011140D01*
X037319Y011293D02*
X037319Y010986D01*
X022689Y015061D02*
X022753Y015083D01*
X022816Y015110D01*
X022878Y015140D01*
X022937Y015173D01*
X022995Y015209D01*
X023051Y015249D01*
X023104Y015292D01*
X023155Y015337D01*
X023203Y015385D01*
X023248Y015436D01*
X023291Y015490D01*
X023330Y015546D01*
X023367Y015603D01*
X023400Y015663D01*
X023429Y015725D01*
X023455Y015788D01*
X023478Y015852D01*
X023497Y015918D01*
X023512Y015985D01*
X023523Y016052D01*
X023531Y016120D01*
X023535Y016188D01*
X023535Y016256D01*
X023531Y016324D01*
X023523Y016392D01*
X023512Y016459D01*
X023497Y016526D01*
X023478Y016592D01*
X023455Y016656D01*
X023429Y016719D01*
X023400Y016781D01*
X023367Y016841D01*
X023330Y016898D01*
X023291Y016954D01*
X023248Y017008D01*
X023203Y017059D01*
X023155Y017107D01*
X023104Y017152D01*
X023051Y017195D01*
X022995Y017235D01*
X022937Y017271D01*
X022878Y017304D01*
X022816Y017334D01*
X022753Y017361D01*
X022689Y017383D01*
X009227Y021097D02*
X008987Y021097D01*
X009167Y021277D01*
X009167Y020916D01*
X008799Y020977D02*
X008799Y021277D01*
X008739Y021277D02*
X008859Y021277D01*
X008799Y020977D02*
X008739Y020916D01*
X008679Y020916D01*
X008619Y020977D01*
X005232Y020125D02*
X004925Y020125D01*
X005155Y020355D01*
X005155Y019894D01*
X004771Y019894D02*
X004464Y019894D01*
X004311Y019894D02*
X004157Y020048D01*
X004234Y020048D02*
X004004Y020048D01*
X004004Y019894D02*
X004004Y020355D01*
X004234Y020355D01*
X004311Y020278D01*
X004311Y020125D01*
X004234Y020048D01*
X004464Y020201D02*
X004618Y020355D01*
X004618Y019894D01*
X003821Y017044D02*
X003821Y016738D01*
X003821Y016891D02*
X003361Y016891D01*
X003514Y016738D01*
X003821Y016584D02*
X003821Y016277D01*
X003821Y016124D02*
X003667Y015970D01*
X003667Y016047D02*
X003667Y015817D01*
X003821Y015817D02*
X003361Y015817D01*
X003361Y016047D01*
X003437Y016124D01*
X003591Y016124D01*
X003667Y016047D01*
X003514Y016277D02*
X003361Y016431D01*
X003821Y016431D01*
X006277Y015380D02*
X006277Y015073D01*
X006353Y014997D01*
X006507Y014997D01*
X006584Y015073D01*
X006737Y015073D02*
X006814Y014997D01*
X006967Y014997D01*
X007044Y015073D01*
X007044Y015150D01*
X006967Y015227D01*
X006737Y015227D01*
X006737Y015073D01*
X006737Y015227D02*
X006891Y015380D01*
X007044Y015457D01*
X006584Y015380D02*
X006507Y015457D01*
X006353Y015457D01*
X006277Y015380D01*
X007438Y016081D02*
X007591Y016081D01*
X007514Y016081D02*
X007514Y016541D01*
X007438Y016541D02*
X007591Y016541D01*
D14*
X001016Y016826D02*
X000805Y016546D01*
X000595Y016826D01*
X000805Y017006D02*
X000945Y017006D01*
X001016Y017076D01*
X001016Y017287D01*
X000945Y017467D02*
X000875Y017537D01*
X000875Y017747D01*
X000805Y017747D02*
X001016Y017747D01*
X001016Y017537D01*
X000945Y017467D01*
X000735Y017537D02*
X000735Y017677D01*
X000805Y017747D01*
X000805Y017927D02*
X000735Y018067D01*
X000735Y018137D01*
X000805Y018207D01*
X000945Y018207D01*
X001016Y018137D01*
X001016Y017997D01*
X000945Y017927D01*
X000805Y017927D02*
X000595Y017927D01*
X000595Y018207D01*
X000665Y018387D02*
X000595Y018458D01*
X000595Y018598D01*
X000665Y018668D01*
X000945Y018387D01*
X001016Y018458D01*
X001016Y018598D01*
X000945Y018668D01*
X000665Y018668D01*
X000665Y018848D02*
X000735Y018848D01*
X000805Y018918D01*
X000805Y019058D01*
X000875Y019128D01*
X000945Y019128D01*
X001016Y019058D01*
X001016Y018918D01*
X000945Y018848D01*
X000875Y018848D01*
X000805Y018918D01*
X000805Y019058D02*
X000735Y019128D01*
X000665Y019128D01*
X000595Y019058D01*
X000595Y018918D01*
X000665Y018848D01*
X000665Y019308D02*
X000595Y019378D01*
X000595Y019518D01*
X000665Y019588D01*
X000805Y019588D01*
X000875Y019518D01*
X000735Y019518D01*
X000735Y019378D01*
X000875Y019378D01*
X000875Y019518D01*
X000945Y019588D02*
X001016Y019518D01*
X001016Y019378D01*
X000945Y019308D01*
X000665Y019308D01*
X000735Y019769D02*
X000735Y019839D01*
X001016Y019839D01*
X001016Y019769D02*
X001016Y019909D01*
X000945Y020076D02*
X001016Y020146D01*
X001016Y020356D01*
X001016Y020536D02*
X001016Y020606D01*
X000945Y020606D01*
X000945Y020536D01*
X001016Y020536D01*
X000945Y020766D02*
X000875Y020836D01*
X000875Y021046D01*
X000805Y021046D02*
X001016Y021046D01*
X001016Y020836D01*
X000945Y020766D01*
X000735Y020836D02*
X000735Y020976D01*
X000805Y021046D01*
X000805Y021227D02*
X000945Y021227D01*
X001016Y021297D01*
X001016Y021507D01*
X001016Y021687D02*
X001016Y021757D01*
X000945Y021757D01*
X000945Y021687D01*
X001016Y021687D01*
X000945Y021917D02*
X000735Y021917D01*
X000945Y021917D02*
X001016Y021987D01*
X001016Y022197D01*
X000735Y022197D01*
X000595Y022378D02*
X001016Y022378D01*
X000875Y022378D02*
X000735Y022588D01*
X000595Y022761D02*
X000805Y023041D01*
X001016Y022761D01*
X001016Y022588D02*
X000875Y022378D01*
X000735Y021507D02*
X000735Y021297D01*
X000805Y021227D01*
X000735Y020356D02*
X000735Y020146D01*
X000805Y020076D01*
X000945Y020076D01*
X000595Y019839D02*
X000525Y019839D01*
X000665Y018387D02*
X000945Y018387D01*
X000735Y017287D02*
X000735Y017076D01*
X000805Y017006D01*
X000836Y016038D02*
X000836Y015758D01*
X000766Y015758D02*
X000696Y015828D01*
X000696Y015968D01*
X000766Y016038D01*
X000836Y016038D01*
X000976Y015968D02*
X000976Y015828D01*
X000906Y015758D01*
X000766Y015758D01*
X000766Y015578D02*
X000976Y015578D01*
X000766Y015578D02*
X000696Y015508D01*
X000696Y015368D01*
X000766Y015298D01*
X000696Y015118D02*
X000696Y014907D01*
X000766Y014837D01*
X000906Y014837D01*
X000976Y014907D01*
X000976Y015118D01*
X001046Y015118D02*
X000696Y015118D01*
X000556Y015298D02*
X000976Y015298D01*
X001046Y015118D02*
X001116Y015048D01*
X001116Y014978D01*
X000976Y014657D02*
X000766Y014657D01*
X000696Y014587D01*
X000696Y014377D01*
X000976Y014377D01*
X000976Y014210D02*
X000976Y014070D01*
X000976Y014140D02*
X000696Y014140D01*
X000696Y014070D01*
X000556Y014140D02*
X000486Y014140D01*
X000696Y013890D02*
X000696Y013680D01*
X000766Y013610D01*
X000836Y013680D01*
X000836Y013820D01*
X000906Y013890D01*
X000976Y013820D01*
X000976Y013610D01*
X000976Y013430D02*
X000766Y013430D01*
X000696Y013359D01*
X000696Y013219D01*
X000836Y013219D02*
X000836Y013430D01*
X000976Y013430D02*
X000976Y013219D01*
X000906Y013149D01*
X000836Y013219D01*
X000696Y012976D02*
X000696Y012906D01*
X000836Y012766D01*
X000976Y012766D02*
X000696Y012766D01*
X000766Y012585D02*
X000976Y012585D01*
X000976Y012375D01*
X000906Y012305D01*
X000836Y012375D01*
X000836Y012585D01*
X000766Y012585D02*
X000696Y012515D01*
X000696Y012375D01*
X000766Y012125D02*
X000976Y012125D01*
X000976Y011985D02*
X000766Y011985D01*
X000696Y012055D01*
X000766Y012125D01*
X000766Y011985D02*
X000696Y011915D01*
X000696Y011845D01*
X000976Y011845D01*
X000976Y011665D02*
X000696Y011665D01*
X000556Y011525D01*
X000696Y011384D01*
X000976Y011384D01*
X000766Y011384D02*
X000766Y011665D01*
X000766Y010744D02*
X000976Y010744D01*
X000766Y010744D02*
X000696Y010674D01*
X000696Y010534D01*
X000766Y010464D01*
X000696Y010297D02*
X000696Y010157D01*
X000626Y010227D02*
X000906Y010227D01*
X000976Y010297D01*
X000976Y010464D02*
X000556Y010464D01*
X000976Y009990D02*
X000976Y009850D01*
X000976Y009920D02*
X000696Y009920D01*
X000696Y009850D01*
X000556Y009920D02*
X000486Y009920D01*
X000696Y009676D02*
X000696Y009606D01*
X000836Y009466D01*
X000976Y009466D02*
X000696Y009466D01*
X000766Y009286D02*
X000976Y009286D01*
X000976Y009076D01*
X000906Y009006D01*
X000836Y009076D01*
X000836Y009286D01*
X000766Y009286D02*
X000696Y009216D01*
X000696Y009076D01*
X000766Y008826D02*
X000976Y008826D01*
X000766Y008826D02*
X000696Y008756D01*
X000696Y008615D01*
X000766Y008545D01*
X000556Y008545D02*
X000976Y008545D01*
X000906Y008365D02*
X000976Y008295D01*
X000976Y008155D01*
X000906Y008085D01*
X000626Y008085D01*
X000556Y008155D01*
X000556Y008295D01*
X000626Y008365D01*
X001558Y008002D02*
X001768Y008002D01*
X001839Y007932D01*
X001839Y007791D01*
X001768Y007721D01*
X001558Y007721D01*
X001558Y007581D02*
X001558Y008002D01*
X002019Y008002D02*
X002019Y007721D01*
X002159Y007581D01*
X002299Y007721D01*
X002299Y008002D01*
X002939Y007932D02*
X002939Y007651D01*
X003010Y007581D01*
X003150Y007581D01*
X003220Y007651D01*
X003400Y007581D02*
X003400Y008002D01*
X003220Y007932D02*
X003150Y008002D01*
X003010Y008002D01*
X002939Y007932D01*
X003400Y007791D02*
X003680Y007791D01*
X003860Y007791D02*
X004140Y007791D01*
X004140Y007862D02*
X004140Y007581D01*
X004321Y007581D02*
X004321Y008002D01*
X004531Y008002D01*
X004601Y007932D01*
X004601Y007791D01*
X004531Y007721D01*
X004321Y007721D01*
X004461Y007721D02*
X004601Y007581D01*
X004781Y007651D02*
X004781Y007932D01*
X004851Y008002D01*
X004991Y008002D01*
X005061Y007932D01*
X005061Y007791D02*
X004921Y007791D01*
X005061Y007791D02*
X005061Y007651D01*
X004991Y007581D01*
X004851Y007581D01*
X004781Y007651D01*
X005241Y007581D02*
X005522Y007581D01*
X005382Y007791D02*
X005241Y007791D01*
X005241Y007581D02*
X005241Y008002D01*
X005522Y008002D01*
X004140Y007862D02*
X004000Y008002D01*
X003860Y007862D01*
X003860Y007581D01*
X003680Y007581D02*
X003680Y008002D01*
X000976Y007464D02*
X000976Y007394D01*
X000906Y007394D01*
X000906Y007464D01*
X000976Y007464D01*
X000766Y007464D02*
X000766Y007394D01*
X000696Y007394D01*
X000696Y007464D01*
X000766Y007464D01*
X000766Y006754D02*
X000836Y006684D01*
X000836Y006474D01*
X000976Y006474D02*
X000556Y006474D01*
X000556Y006684D01*
X000626Y006754D01*
X000766Y006754D01*
X000626Y006293D02*
X000556Y006293D01*
X000626Y006293D02*
X000766Y006153D01*
X000976Y006153D01*
X000766Y006153D02*
X000626Y006013D01*
X000556Y006013D01*
X000556Y005833D02*
X000556Y005553D01*
X000976Y005553D01*
X000766Y005553D02*
X000766Y005693D01*
X000766Y004912D02*
X000766Y004632D01*
X000556Y004842D01*
X000976Y004842D01*
X000976Y004452D02*
X000976Y004172D01*
X000556Y004172D01*
X000556Y004452D01*
X000766Y004312D02*
X000766Y004172D01*
X000976Y003991D02*
X000976Y003711D01*
X000556Y003711D01*
X000556Y003991D01*
X000766Y003851D02*
X000766Y003711D01*
X012473Y004490D02*
X012544Y004420D01*
X012684Y004420D01*
X012754Y004490D01*
X012754Y004840D01*
X012934Y004770D02*
X012934Y004700D01*
X013004Y004630D01*
X013144Y004630D01*
X013214Y004560D01*
X013214Y004490D01*
X013144Y004420D01*
X013004Y004420D01*
X012934Y004490D01*
X012934Y004770D02*
X013004Y004840D01*
X013144Y004840D01*
X013214Y004770D01*
X013394Y004840D02*
X013394Y004420D01*
X013604Y004420D01*
X013674Y004490D01*
X013674Y004560D01*
X013604Y004630D01*
X013394Y004630D01*
X013394Y004840D02*
X013604Y004840D01*
X013674Y004770D01*
X013674Y004700D01*
X013604Y004630D01*
X014315Y004560D02*
X014525Y004560D01*
X014595Y004630D01*
X014595Y004770D01*
X014525Y004840D01*
X014315Y004840D01*
X014315Y004420D01*
X014775Y004420D02*
X014775Y004840D01*
X015056Y004840D02*
X015056Y004420D01*
X014916Y004560D01*
X014775Y004420D01*
X015236Y004420D02*
X015236Y004840D01*
X015446Y004840D01*
X015516Y004770D01*
X015516Y004630D01*
X015446Y004560D01*
X015236Y004560D01*
X015376Y004560D02*
X015516Y004420D01*
X012473Y004490D02*
X012473Y004840D01*
X025704Y011123D02*
X025704Y013542D01*
X028124Y013542D01*
X028124Y011123D01*
X025704Y011123D01*
X030648Y010956D02*
X030650Y010971D01*
X030656Y010984D01*
X030665Y010996D01*
X030676Y011005D01*
X030690Y011011D01*
X030705Y011013D01*
X030720Y011011D01*
X030733Y011005D01*
X030745Y010996D01*
X030754Y010985D01*
X030760Y010971D01*
X030762Y010956D01*
X030760Y010941D01*
X030754Y010928D01*
X030745Y010916D01*
X030734Y010907D01*
X030720Y010901D01*
X030705Y010899D01*
X030690Y010901D01*
X030677Y010907D01*
X030665Y010916D01*
X030656Y010927D01*
X030650Y010941D01*
X030648Y010956D01*
X034532Y006648D02*
X034812Y006648D01*
X034953Y006508D01*
X034812Y006368D01*
X034532Y006368D01*
X034602Y006187D02*
X034742Y006187D01*
X034812Y006117D01*
X034812Y005907D01*
X034812Y006047D02*
X034953Y006187D01*
X034953Y005907D02*
X034532Y005907D01*
X034532Y006117D01*
X034602Y006187D01*
X034602Y005727D02*
X034532Y005657D01*
X034532Y005447D01*
X034953Y005447D01*
X034953Y005657D01*
X034882Y005727D01*
X034602Y005727D01*
X034602Y004806D02*
X034532Y004736D01*
X034532Y004596D01*
X034602Y004526D01*
X034882Y004526D01*
X034953Y004596D01*
X034953Y004736D01*
X034882Y004806D01*
X034882Y004346D02*
X034953Y004276D01*
X034953Y004136D01*
X034882Y004066D01*
X034602Y004066D01*
X034532Y004136D01*
X034532Y004276D01*
X034602Y004346D01*
X006804Y023569D02*
X006804Y024947D01*
X006489Y024553D02*
X006489Y023569D01*
X006804Y023569D01*
X006489Y024553D02*
X006016Y024553D01*
X004441Y024553D02*
X003969Y024553D01*
X003969Y023569D01*
X003654Y023569D01*
X003654Y024947D01*
X004441Y026522D02*
X006016Y026522D01*
X015632Y026634D02*
X015632Y025059D01*
X015839Y025059D01*
X018004Y025059D01*
X018211Y025059D01*
X018211Y026634D01*
X018152Y026634D01*
X015691Y026634D01*
X015632Y026634D01*
X020652Y026634D02*
X020652Y025059D01*
X020859Y025059D01*
X024008Y025059D01*
X024215Y025059D01*
X024215Y026634D01*
X024156Y026634D01*
X020711Y026634D01*
X020652Y026634D01*
X026164Y026634D02*
X026164Y025059D01*
X026370Y025059D01*
X029520Y025059D01*
X029727Y025059D01*
X029727Y026634D01*
X029668Y026634D01*
X026223Y026634D01*
X026164Y026634D01*
X031676Y026634D02*
X031676Y025059D01*
X031882Y025059D01*
X035032Y025059D01*
X035239Y025059D01*
X035239Y026634D01*
X035180Y026634D01*
X031735Y026634D01*
X031676Y026634D01*
D15*
X022748Y007293D02*
X018890Y007293D01*
X018890Y003632D01*
X022748Y003632D02*
X022748Y007293D01*
D16*
X016250Y005367D02*
X016030Y005367D01*
X016195Y005533D01*
X016195Y005202D01*
X015882Y005257D02*
X015827Y005202D01*
X015717Y005202D01*
X015662Y005257D01*
X015662Y005367D02*
X015772Y005422D01*
X015827Y005422D01*
X015882Y005367D01*
X015882Y005257D01*
X015662Y005367D02*
X015662Y005533D01*
X015882Y005533D01*
X015514Y005533D02*
X015404Y005478D01*
X015293Y005367D01*
X015459Y005367D01*
X015514Y005312D01*
X015514Y005257D01*
X015459Y005202D01*
X015349Y005202D01*
X015293Y005257D01*
X015293Y005367D01*
X015145Y005202D02*
X014925Y005202D01*
X015035Y005202D02*
X015035Y005533D01*
X014925Y005422D01*
X014777Y005367D02*
X014777Y005257D01*
X014722Y005202D01*
X014612Y005202D01*
X014557Y005257D01*
X014557Y005367D02*
X014667Y005422D01*
X014722Y005422D01*
X014777Y005367D01*
X014777Y005533D02*
X014557Y005533D01*
X014557Y005367D01*
X014059Y005367D02*
X014004Y005367D01*
X014004Y005422D01*
X014059Y005422D01*
X014059Y005367D01*
X014059Y005257D02*
X014059Y005202D01*
X014004Y005202D01*
X014004Y005257D01*
X014059Y005257D01*
X013856Y005202D02*
X013856Y005367D01*
X013801Y005422D01*
X013636Y005422D01*
X013636Y005202D01*
X013488Y005257D02*
X013433Y005202D01*
X013323Y005202D01*
X013268Y005257D01*
X013268Y005367D01*
X013323Y005422D01*
X013433Y005422D01*
X013488Y005367D01*
X013488Y005257D01*
X013132Y005202D02*
X013022Y005202D01*
X013077Y005202D02*
X013077Y005422D01*
X013022Y005422D01*
X013077Y005533D02*
X013077Y005588D01*
X012874Y005422D02*
X012709Y005422D01*
X012654Y005367D01*
X012709Y005312D01*
X012819Y005312D01*
X012874Y005257D01*
X012819Y005202D01*
X012654Y005202D01*
X012506Y005202D02*
X012506Y005422D01*
X012506Y005202D02*
X012341Y005202D01*
X012286Y005257D01*
X012286Y005422D01*
X012137Y005533D02*
X011917Y005533D01*
X011917Y005202D01*
X011917Y005367D02*
X012027Y005367D01*
X002190Y015245D02*
X001970Y015245D01*
X002190Y015465D01*
X002190Y015520D01*
X002135Y015575D01*
X002025Y015575D01*
X001970Y015520D01*
X001822Y015575D02*
X001712Y015575D01*
X001767Y015575D02*
X001767Y015300D01*
X001712Y015245D01*
X001657Y015245D01*
X001602Y015300D01*
X003482Y020808D02*
X003537Y020863D01*
X003537Y020918D01*
X003482Y020973D01*
X003206Y020973D01*
X003206Y020918D02*
X003206Y021028D01*
X003316Y021177D02*
X003206Y021287D01*
X003537Y021287D01*
X003537Y021177D02*
X003537Y021397D01*
X008863Y023575D02*
X009294Y023575D01*
X009294Y023718D02*
X009294Y023431D01*
X009007Y023431D02*
X008863Y023575D01*
X009843Y023597D02*
X009843Y023453D01*
X009915Y023381D01*
X009843Y023597D02*
X009915Y023668D01*
X009987Y023668D01*
X010274Y023381D01*
X010274Y023668D01*
X011816Y023575D02*
X012247Y023575D01*
X012247Y023718D02*
X012247Y023431D01*
X011960Y023431D02*
X011816Y023575D01*
X012796Y023597D02*
X012796Y023453D01*
X012868Y023381D01*
X012796Y023597D02*
X012868Y023668D01*
X012940Y023668D01*
X013227Y023381D01*
X013227Y023668D01*
D17*
X014617Y021675D02*
X018203Y021675D01*
X018253Y021673D01*
X018304Y021668D01*
X018353Y021659D01*
X018402Y021646D01*
X018450Y021630D01*
X018497Y021611D01*
X018542Y021589D01*
X018585Y021563D01*
X018627Y021534D01*
X018666Y021502D01*
X018703Y021468D01*
X018737Y021431D01*
X018769Y021392D01*
X018798Y021350D01*
X018824Y021307D01*
X018846Y021262D01*
X018865Y021215D01*
X018881Y021167D01*
X018894Y021118D01*
X018903Y021069D01*
X018908Y021018D01*
X018910Y020968D01*
X018910Y017382D01*
X018908Y017332D01*
X018903Y017281D01*
X018894Y017232D01*
X018881Y017183D01*
X018865Y017135D01*
X018846Y017088D01*
X018824Y017043D01*
X018798Y017000D01*
X018769Y016958D01*
X018737Y016919D01*
X018703Y016882D01*
X018666Y016848D01*
X018627Y016816D01*
X018585Y016787D01*
X018542Y016761D01*
X018497Y016739D01*
X018450Y016720D01*
X018402Y016704D01*
X018353Y016691D01*
X018304Y016682D01*
X018253Y016677D01*
X018203Y016675D01*
X014410Y016675D01*
X014366Y016677D01*
X014323Y016683D01*
X014281Y016692D01*
X014239Y016705D01*
X014199Y016722D01*
X014160Y016742D01*
X014123Y016765D01*
X014089Y016792D01*
X014056Y016821D01*
X014027Y016854D01*
X014000Y016888D01*
X013977Y016925D01*
X013957Y016964D01*
X013940Y017004D01*
X013927Y017046D01*
X013918Y017088D01*
X013912Y017131D01*
X013910Y017175D01*
X013910Y020968D01*
X013912Y021018D01*
X013917Y021069D01*
X013926Y021118D01*
X013939Y021167D01*
X013955Y021215D01*
X013974Y021262D01*
X013996Y021307D01*
X014022Y021350D01*
X014051Y021392D01*
X014083Y021431D01*
X014117Y021468D01*
X014154Y021502D01*
X014193Y021534D01*
X014235Y021563D01*
X014278Y021589D01*
X014323Y021611D01*
X014370Y021630D01*
X014418Y021646D01*
X014467Y021659D01*
X014516Y021668D01*
X014567Y021673D01*
X014617Y021675D01*
X011882Y017978D02*
X010701Y017978D01*
X010701Y016404D01*
X011882Y016404D01*
X011882Y017978D01*
X008811Y015778D02*
X008811Y015344D01*
X008024Y015344D02*
X008024Y015778D01*
X006290Y014282D02*
X006215Y014357D01*
X006065Y014357D01*
X005990Y014282D01*
X005990Y014207D01*
X006065Y014056D01*
X005840Y014056D01*
X005840Y014357D01*
X006290Y014282D02*
X006290Y014132D01*
X006215Y014056D01*
X006215Y013896D02*
X005840Y013896D01*
X005840Y013596D02*
X006215Y013596D01*
X006290Y013671D01*
X006290Y013821D01*
X006215Y013896D01*
X004733Y011800D02*
X004733Y011725D01*
X004433Y011425D01*
X004433Y011350D01*
X004273Y011425D02*
X004273Y011800D01*
X004433Y011800D02*
X004733Y011800D01*
X004273Y011425D02*
X004198Y011350D01*
X004048Y011350D01*
X003972Y011425D01*
X003972Y011800D01*
X004520Y007096D02*
X004559Y007096D01*
X004559Y004931D01*
X004559Y003750D02*
X004559Y003356D01*
X002197Y003356D01*
X002197Y003750D01*
X002197Y004931D02*
X002197Y006112D01*
X007807Y005915D02*
X010681Y005915D01*
X010681Y004734D02*
X010681Y003455D01*
X007807Y003455D01*
X007807Y004734D01*
X018799Y014549D02*
X018874Y014474D01*
X019024Y014474D01*
X019100Y014549D01*
X019100Y014924D01*
X019260Y014774D02*
X019410Y014924D01*
X019410Y014474D01*
X019260Y014474D02*
X019560Y014474D01*
X018799Y014549D02*
X018799Y014924D01*
X024441Y018057D02*
X024756Y018057D01*
X025229Y018766D02*
X025229Y019317D01*
X024756Y020026D02*
X024441Y020026D01*
X023969Y019317D02*
X023969Y018766D01*
X031435Y018490D02*
X031435Y022341D01*
X033227Y022341D01*
X033227Y018490D01*
X031435Y018490D01*
X031685Y022530D02*
X031835Y022530D01*
X031911Y022605D01*
X031911Y022980D01*
X032071Y022905D02*
X032071Y022830D01*
X032146Y022755D01*
X032296Y022755D01*
X032371Y022680D01*
X032371Y022605D01*
X032296Y022530D01*
X032146Y022530D01*
X032071Y022605D01*
X032071Y022680D01*
X032146Y022755D01*
X032296Y022755D02*
X032371Y022830D01*
X032371Y022905D01*
X032296Y022980D01*
X032146Y022980D01*
X032071Y022905D01*
X031610Y022980D02*
X031610Y022605D01*
X031685Y022530D01*
X037703Y021280D02*
X037703Y021130D01*
X037778Y021055D01*
X037778Y020895D02*
X037703Y020895D01*
X037778Y020895D02*
X037928Y020744D01*
X038153Y020744D01*
X037928Y020744D02*
X037778Y020594D01*
X037703Y020594D01*
X038153Y021055D02*
X037853Y021355D01*
X037778Y021355D01*
X037703Y021280D01*
X038153Y021355D02*
X038153Y021055D01*
X037851Y014876D02*
X035882Y014876D01*
X035685Y014679D01*
X035685Y012317D01*
X035882Y012120D01*
X037851Y012120D01*
X038048Y012317D01*
X038048Y014679D01*
X037851Y014876D01*
X037197Y009459D02*
X034048Y009459D01*
X034048Y009262D01*
X037197Y009262D01*
X037197Y009459D01*
X037197Y009262D02*
X037223Y009260D01*
X037248Y009255D01*
X037272Y009247D01*
X037296Y009236D01*
X037317Y009221D01*
X037336Y009204D01*
X037353Y009185D01*
X037368Y009163D01*
X037379Y009140D01*
X037387Y009116D01*
X037392Y009091D01*
X037394Y009065D01*
X037394Y003356D01*
X033851Y003356D01*
X033851Y009065D01*
X033853Y009091D01*
X033858Y009116D01*
X033866Y009140D01*
X033877Y009164D01*
X033892Y009185D01*
X033909Y009204D01*
X033928Y009221D01*
X033949Y009236D01*
X033973Y009247D01*
X033997Y009255D01*
X034022Y009260D01*
X034048Y009262D01*
X032178Y005915D02*
X029304Y005915D01*
X029304Y004734D02*
X029304Y003455D01*
X032178Y003455D01*
X032178Y004734D01*
X027079Y005443D02*
X027079Y003415D01*
X023063Y003415D01*
X023063Y005443D01*
X027079Y005443D01*
D18*
X027607Y006399D02*
X027607Y006815D01*
X027607Y006399D02*
X028123Y006399D01*
X028127Y006846D02*
X028127Y007184D01*
X028123Y007637D02*
X027607Y007637D01*
X027607Y007240D01*
X030385Y009316D02*
X031805Y009316D01*
X031805Y011176D02*
X030385Y011176D01*
X031804Y015483D02*
X032004Y015483D01*
X032784Y015483D02*
X032984Y015483D01*
X033214Y015873D02*
X033614Y015873D01*
X032984Y016663D02*
X032784Y016663D01*
X032004Y016663D02*
X031804Y016663D01*
X028083Y018297D02*
X028083Y018417D01*
X028083Y018297D02*
X027963Y018297D01*
X027403Y018057D02*
X027403Y017657D01*
X026983Y018297D02*
X026863Y018297D01*
X026863Y018417D01*
X026863Y019397D02*
X026863Y019517D01*
X026983Y019517D01*
X027963Y019517D02*
X028083Y019517D01*
X028083Y019397D01*
X035749Y018694D02*
X035749Y020994D01*
X035751Y021045D01*
X035756Y021096D01*
X035766Y021146D01*
X035779Y021196D01*
X035795Y021244D01*
X035815Y021291D01*
X035839Y021337D01*
X035865Y021380D01*
X035895Y021422D01*
X035928Y021461D01*
X035963Y021498D01*
X036001Y021532D01*
X036042Y021563D01*
X036084Y021592D01*
X036129Y021617D01*
X036175Y021638D01*
X036223Y021657D01*
X036272Y021671D01*
X036322Y021682D01*
X036372Y021690D01*
X036423Y021694D01*
X036475Y021694D01*
X036526Y021690D01*
X036576Y021682D01*
X036626Y021671D01*
X036675Y021657D01*
X036723Y021638D01*
X036769Y021617D01*
X036814Y021592D01*
X036856Y021563D01*
X036897Y021532D01*
X036935Y021498D01*
X036970Y021461D01*
X037003Y021422D01*
X037033Y021380D01*
X037059Y021337D01*
X037083Y021291D01*
X037103Y021244D01*
X037119Y021196D01*
X037132Y021146D01*
X037142Y021096D01*
X037147Y021045D01*
X037149Y020994D01*
X037149Y018694D01*
X037147Y018643D01*
X037142Y018592D01*
X037132Y018542D01*
X037119Y018492D01*
X037103Y018444D01*
X037083Y018397D01*
X037059Y018351D01*
X037033Y018308D01*
X037003Y018266D01*
X036970Y018227D01*
X036935Y018190D01*
X036897Y018156D01*
X036856Y018125D01*
X036814Y018096D01*
X036769Y018071D01*
X036723Y018050D01*
X036675Y018031D01*
X036626Y018017D01*
X036576Y018006D01*
X036526Y017998D01*
X036475Y017994D01*
X036423Y017994D01*
X036372Y017998D01*
X036322Y018006D01*
X036272Y018017D01*
X036223Y018031D01*
X036175Y018050D01*
X036129Y018071D01*
X036084Y018096D01*
X036042Y018125D01*
X036001Y018156D01*
X035963Y018190D01*
X035928Y018227D01*
X035895Y018266D01*
X035865Y018308D01*
X035839Y018351D01*
X035815Y018397D01*
X035795Y018444D01*
X035779Y018492D01*
X035766Y018542D01*
X035756Y018592D01*
X035751Y018643D01*
X035749Y018694D01*
X036449Y019344D02*
X036449Y019594D01*
X036099Y019594D01*
X036099Y019744D02*
X036099Y019944D01*
X036799Y019944D01*
X036799Y019744D01*
X036099Y019744D01*
X036099Y020094D02*
X036449Y020094D01*
X036449Y020344D01*
X036449Y020094D02*
X036799Y020094D01*
X036799Y019594D02*
X036449Y019594D01*
X019983Y016291D02*
X018743Y016291D01*
X018743Y015051D02*
X019983Y015051D01*
X005577Y013967D02*
X005577Y013847D01*
X005437Y013477D02*
X005177Y013477D01*
X005177Y014337D02*
X005437Y014337D01*
X005377Y014247D02*
X005361Y014237D01*
X005344Y014229D01*
X005326Y014225D01*
X005307Y014223D01*
X005288Y014225D01*
X005270Y014229D01*
X005253Y014237D01*
X005237Y014247D01*
X005327Y016975D02*
X004107Y016975D01*
X003053Y016837D02*
X003053Y018007D01*
X004107Y018195D02*
X005327Y018195D01*
X001893Y018007D02*
X001893Y016837D01*
X003913Y011250D02*
X004733Y011250D01*
X004733Y010030D02*
X003913Y010030D01*
D19*
X003915Y008515D02*
X003722Y008515D01*
X003819Y008515D02*
X003819Y008224D01*
X004017Y008224D02*
X004017Y008515D01*
X004162Y008515D01*
X004210Y008466D01*
X004210Y008370D01*
X004162Y008321D01*
X004017Y008321D01*
X004311Y008273D02*
X004360Y008224D01*
X004456Y008224D01*
X004505Y008273D01*
X004505Y008321D01*
X004456Y008370D01*
X004311Y008370D01*
X004311Y008273D01*
X004311Y008370D02*
X004408Y008466D01*
X004505Y008515D01*
X004592Y014341D02*
X004906Y014654D01*
X004906Y014498D02*
X004592Y014498D01*
X004592Y014654D02*
X004906Y014341D01*
X004749Y014341D02*
X004749Y014654D01*
X004569Y015592D02*
X004569Y015785D01*
X004569Y015688D02*
X004859Y015688D01*
X004859Y015886D02*
X004569Y015886D01*
X004569Y016032D01*
X004617Y016080D01*
X004714Y016080D01*
X004763Y016032D01*
X004763Y015886D01*
X004811Y016181D02*
X004859Y016229D01*
X004859Y016326D01*
X004811Y016375D01*
X004763Y016375D01*
X004714Y016326D01*
X004714Y016278D01*
X004714Y016326D02*
X004666Y016375D01*
X004617Y016375D01*
X004569Y016326D01*
X004569Y016229D01*
X004617Y016181D01*
X004308Y016181D02*
X004115Y016375D01*
X004066Y016375D01*
X004018Y016326D01*
X004018Y016229D01*
X004066Y016181D01*
X004066Y016080D02*
X004163Y016080D01*
X004211Y016032D01*
X004211Y015886D01*
X004308Y015886D02*
X004018Y015886D01*
X004018Y016032D01*
X004066Y016080D01*
X004308Y016181D02*
X004308Y016375D01*
X004018Y015785D02*
X004018Y015592D01*
X004018Y015688D02*
X004308Y015688D01*
X005519Y016138D02*
X005713Y016138D01*
X005616Y016138D02*
X005616Y015848D01*
X005814Y015848D02*
X005814Y016138D01*
X005959Y016138D01*
X006007Y016090D01*
X006007Y015993D01*
X005959Y015944D01*
X005814Y015944D01*
X006109Y015848D02*
X006302Y015848D01*
X006205Y015848D02*
X006205Y016138D01*
X006109Y016041D01*
X004636Y018370D02*
X004443Y018370D01*
X004636Y018564D01*
X004636Y018612D01*
X004588Y018660D01*
X004491Y018660D01*
X004443Y018612D01*
X004342Y018660D02*
X004342Y018418D01*
X004293Y018370D01*
X004197Y018370D01*
X004148Y018418D01*
X004148Y018660D01*
X010298Y017134D02*
X010298Y017037D01*
X010346Y016989D01*
X010298Y016888D02*
X010539Y016888D01*
X010588Y016839D01*
X010588Y016742D01*
X010539Y016694D01*
X010298Y016694D01*
X010539Y016989D02*
X010588Y017037D01*
X010588Y017134D01*
X010539Y017182D01*
X010491Y017182D01*
X010443Y017134D01*
X010443Y017086D01*
X010443Y017134D02*
X010394Y017182D01*
X010346Y017182D01*
X010298Y017134D01*
X007224Y023674D02*
X007273Y023723D01*
X007273Y023771D01*
X007224Y023820D01*
X006983Y023820D01*
X006983Y023868D02*
X006983Y023771D01*
X006983Y023969D02*
X006983Y024114D01*
X007031Y024163D01*
X007128Y024163D01*
X007176Y024114D01*
X007176Y023969D01*
X007273Y023969D02*
X006983Y023969D01*
X007079Y024264D02*
X006983Y024360D01*
X007273Y024360D01*
X007273Y024264D02*
X007273Y024457D01*
X021536Y016102D02*
X021536Y015978D01*
X021598Y015917D01*
X021598Y015795D02*
X021536Y015734D01*
X021536Y015610D01*
X021598Y015548D01*
X021845Y015548D01*
X021907Y015610D01*
X021907Y015734D01*
X021845Y015795D01*
X021907Y015917D02*
X021660Y016164D01*
X021598Y016164D01*
X021536Y016102D01*
X021907Y016164D02*
X021907Y015917D01*
X021943Y014252D02*
X021846Y014252D01*
X021798Y014204D01*
X021798Y014155D01*
X021846Y014107D01*
X021943Y014107D01*
X021991Y014059D01*
X021991Y014010D01*
X021943Y013962D01*
X021846Y013962D01*
X021798Y014010D01*
X021696Y013962D02*
X021503Y013962D01*
X021503Y014252D01*
X021696Y014252D01*
X021600Y014107D02*
X021503Y014107D01*
X021402Y014107D02*
X021353Y014059D01*
X021208Y014059D01*
X021305Y014059D02*
X021402Y013962D01*
X021402Y014107D02*
X021402Y014204D01*
X021353Y014252D01*
X021208Y014252D01*
X021208Y013962D01*
X021193Y014312D02*
X022667Y014312D01*
X022580Y014252D02*
X022387Y014252D01*
X022484Y014252D02*
X022484Y013962D01*
X022286Y013962D02*
X022092Y013962D01*
X022092Y014252D01*
X022286Y014252D01*
X022189Y014107D02*
X022092Y014107D01*
X021991Y014204D02*
X021943Y014252D01*
X021549Y013386D02*
X021404Y013386D01*
X021404Y013096D01*
X021549Y013096D01*
X021597Y013144D01*
X021597Y013338D01*
X021549Y013386D01*
X021303Y013386D02*
X021303Y013096D01*
X021109Y013386D01*
X021109Y013096D01*
X021008Y013144D02*
X021008Y013241D01*
X020911Y013241D01*
X020815Y013338D02*
X020815Y013144D01*
X020863Y013096D01*
X020960Y013096D01*
X021008Y013144D01*
X021008Y013338D02*
X020960Y013386D01*
X020863Y013386D01*
X020815Y013338D01*
X022925Y009174D02*
X022973Y009174D01*
X023021Y009125D01*
X023021Y009029D01*
X022973Y008980D01*
X022925Y008980D01*
X022876Y009029D01*
X022876Y009125D01*
X022925Y009174D01*
X023021Y009125D02*
X023070Y009174D01*
X023118Y009174D01*
X023166Y009125D01*
X023166Y009029D01*
X023118Y008980D01*
X023070Y008980D01*
X023021Y009029D01*
X023070Y008879D02*
X022876Y008879D01*
X022876Y008686D02*
X023070Y008686D01*
X023166Y008782D01*
X023070Y008879D01*
X023166Y008584D02*
X023166Y008391D01*
X023166Y008488D02*
X022876Y008488D01*
X022973Y008391D01*
X017870Y004535D02*
X017870Y004438D01*
X017822Y004390D01*
X017725Y004390D02*
X017677Y004486D01*
X017677Y004535D01*
X017725Y004583D01*
X017822Y004583D01*
X017870Y004535D01*
X017725Y004390D02*
X017580Y004390D01*
X017580Y004583D01*
X017628Y004288D02*
X017580Y004240D01*
X017580Y004095D01*
X017870Y004095D01*
X017870Y004240D01*
X017822Y004288D01*
X017628Y004288D01*
X017580Y003994D02*
X017580Y003800D01*
X017870Y003800D01*
X017870Y003994D01*
X017725Y003897D02*
X017725Y003800D01*
X017870Y003699D02*
X017870Y003506D01*
X017580Y003506D01*
X016965Y003466D02*
X016965Y003660D01*
X016965Y003761D02*
X016965Y003954D01*
X016965Y004056D02*
X016965Y004201D01*
X016916Y004249D01*
X016723Y004249D01*
X016675Y004201D01*
X016675Y004056D01*
X016965Y004056D01*
X016820Y003858D02*
X016820Y003761D01*
X016675Y003761D02*
X016965Y003761D01*
X016675Y003761D02*
X016675Y003954D01*
X016771Y004350D02*
X016675Y004447D01*
X016965Y004447D01*
X016965Y004350D02*
X016965Y004544D01*
X016965Y003466D02*
X016675Y003466D01*
X029829Y012151D02*
X029829Y012441D01*
X029925Y012441D02*
X029732Y012441D01*
X030027Y012441D02*
X030027Y012151D01*
X030027Y012248D02*
X030172Y012248D01*
X030220Y012296D01*
X030220Y012393D01*
X030172Y012441D01*
X030027Y012441D01*
X030321Y012441D02*
X030321Y012296D01*
X030418Y012344D01*
X030466Y012344D01*
X030515Y012296D01*
X030515Y012199D01*
X030466Y012151D01*
X030370Y012151D01*
X030321Y012199D01*
X030321Y012441D02*
X030515Y012441D01*
X030471Y011924D02*
X030374Y011924D01*
X030326Y011876D01*
X030326Y011827D01*
X030374Y011779D01*
X030471Y011779D01*
X030519Y011731D01*
X030519Y011682D01*
X030471Y011634D01*
X030374Y011634D01*
X030326Y011682D01*
X030519Y011876D02*
X030471Y011924D01*
X030620Y011924D02*
X030620Y011634D01*
X030717Y011731D01*
X030814Y011634D01*
X030814Y011924D01*
X030915Y011876D02*
X030915Y011682D01*
X030963Y011634D01*
X031060Y011634D01*
X031108Y011682D01*
X031210Y011634D02*
X031403Y011634D01*
X031504Y011634D02*
X031504Y011924D01*
X031553Y011779D02*
X031698Y011634D01*
X031504Y011731D02*
X031698Y011924D01*
X031210Y011924D02*
X031210Y011634D01*
X031108Y011876D02*
X031060Y011924D01*
X030963Y011924D01*
X030915Y011876D01*
X030703Y013096D02*
X030703Y013386D01*
X030557Y013241D01*
X030751Y013241D01*
X030456Y013241D02*
X030408Y013192D01*
X030263Y013192D01*
X030263Y013096D02*
X030263Y013386D01*
X030408Y013386D01*
X030456Y013338D01*
X030456Y013241D01*
X030162Y013386D02*
X029968Y013386D01*
X030065Y013386D02*
X030065Y013096D01*
X028915Y014227D02*
X028866Y014178D01*
X028915Y014227D02*
X028915Y014323D01*
X028866Y014372D01*
X028818Y014372D01*
X028769Y014323D01*
X028769Y014227D01*
X028721Y014178D01*
X028673Y014178D01*
X028624Y014227D01*
X028624Y014323D01*
X028673Y014372D01*
X028624Y014473D02*
X028915Y014473D01*
X028818Y014570D01*
X028915Y014667D01*
X028624Y014667D01*
X028624Y014768D02*
X028624Y014913D01*
X028673Y014961D01*
X028866Y014961D01*
X028915Y014913D01*
X028915Y014768D01*
X028624Y014768D01*
X028624Y015062D02*
X028624Y015159D01*
X028624Y015111D02*
X028915Y015111D01*
X028915Y015159D02*
X028915Y015062D01*
X028866Y015259D02*
X028915Y015307D01*
X028915Y015404D01*
X028866Y015452D01*
X028673Y015452D01*
X028624Y015404D01*
X028624Y015307D01*
X028673Y015259D01*
X028866Y015259D01*
X029933Y015186D02*
X029933Y015089D01*
X029982Y015041D01*
X030175Y015041D01*
X029982Y015234D01*
X030175Y015234D01*
X030224Y015186D01*
X030224Y015089D01*
X030175Y015041D01*
X030175Y014940D02*
X030224Y014891D01*
X030224Y014795D01*
X030175Y014746D01*
X030175Y014645D02*
X030224Y014597D01*
X030224Y014500D01*
X030175Y014451D01*
X029982Y014451D01*
X029933Y014500D01*
X029933Y014597D01*
X029982Y014645D01*
X029982Y014746D02*
X029933Y014795D01*
X029933Y014891D01*
X029982Y014940D01*
X030030Y014940D01*
X030078Y014891D01*
X030127Y014940D01*
X030175Y014940D01*
X030078Y014891D02*
X030078Y014843D01*
X029933Y015186D02*
X029982Y015234D01*
X030780Y015186D02*
X030780Y015089D01*
X030828Y015041D01*
X030876Y015041D01*
X030925Y015089D01*
X030925Y015234D01*
X031022Y015234D02*
X030828Y015234D01*
X030780Y015186D01*
X031022Y015234D02*
X031070Y015186D01*
X031070Y015089D01*
X031022Y015041D01*
X031070Y014940D02*
X031070Y014746D01*
X030876Y014940D01*
X030828Y014940D01*
X030780Y014891D01*
X030780Y014795D01*
X030828Y014746D01*
X030828Y014645D02*
X030780Y014597D01*
X030780Y014500D01*
X030828Y014451D01*
X031022Y014451D01*
X031070Y014500D01*
X031070Y014597D01*
X031022Y014645D01*
X031259Y016556D02*
X031573Y016870D01*
X031573Y016713D02*
X031259Y016713D01*
X031259Y016870D02*
X031573Y016556D01*
X031416Y016556D02*
X031416Y016870D01*
X031813Y016829D02*
X031861Y016781D01*
X031958Y016781D01*
X032006Y016829D01*
X032006Y017071D01*
X032107Y017023D02*
X032107Y016974D01*
X032156Y016926D01*
X032301Y016926D01*
X032301Y017023D02*
X032252Y017071D01*
X032156Y017071D01*
X032107Y017023D01*
X032301Y017023D02*
X032301Y016829D01*
X032252Y016781D01*
X032156Y016781D01*
X032107Y016829D01*
X031813Y016829D02*
X031813Y017071D01*
X028170Y019789D02*
X027856Y020102D01*
X027856Y019946D02*
X028170Y019946D01*
X028170Y020102D02*
X027856Y019789D01*
X028013Y019789D02*
X028013Y020102D01*
X023796Y018403D02*
X023796Y018209D01*
X023796Y018306D02*
X023506Y018306D01*
X023603Y018209D01*
X023555Y018108D02*
X023506Y018108D01*
X023555Y018108D02*
X023651Y018011D01*
X023796Y018011D01*
X023651Y018011D02*
X023555Y017915D01*
X023506Y017915D01*
X033835Y013704D02*
X033883Y013607D01*
X033980Y013511D01*
X033980Y013656D01*
X034028Y013704D01*
X034077Y013704D01*
X034125Y013656D01*
X034125Y013559D01*
X034077Y013511D01*
X033980Y013511D01*
X034077Y013409D02*
X033835Y013409D01*
X033835Y013216D02*
X034077Y013216D01*
X034125Y013264D01*
X034125Y013361D01*
X034077Y013409D01*
D20*
X028418Y004045D03*
X027591Y004045D03*
X018142Y004006D03*
X017315Y004006D03*
X006945Y003967D03*
X005851Y003967D03*
X010544Y016502D03*
D21*
X010426Y010640D02*
X017512Y010640D01*
X017512Y006703D01*
X016587Y006703D01*
X016587Y003325D01*
X011351Y003325D01*
X011351Y006683D01*
X010426Y006683D01*
X010426Y010640D01*
D22*
X007093Y003967D03*
X006798Y003967D03*
X005998Y003967D03*
X005703Y003967D03*
X017168Y004006D03*
X017463Y004006D03*
X017994Y004006D03*
X018290Y004006D03*
X027443Y004045D03*
X027739Y004045D03*
X028270Y004045D03*
X028565Y004045D03*
D23*
X032944Y018687D02*
X032946Y018701D01*
X032952Y018715D01*
X032960Y018727D01*
X032972Y018735D01*
X032986Y018741D01*
X033000Y018743D01*
X033014Y018741D01*
X033028Y018735D01*
X033040Y018727D01*
X033048Y018715D01*
X033054Y018701D01*
X033056Y018687D01*
X033054Y018673D01*
X033048Y018659D01*
X033040Y018647D01*
X033028Y018639D01*
X033014Y018633D01*
X033000Y018631D01*
X032986Y018633D01*
X032972Y018639D01*
X032960Y018647D01*
X032952Y018659D01*
X032946Y018673D01*
X032944Y018687D01*
D24*
X032947Y018406D02*
X032947Y018331D01*
X032932Y018316D01*
X032902Y018316D01*
X032887Y018331D01*
X032887Y018406D01*
X032979Y018376D02*
X033009Y018406D01*
X033009Y018316D01*
X032979Y018316D02*
X033039Y018316D01*
X033071Y018331D02*
X033131Y018391D01*
X033131Y018331D01*
X033116Y018316D01*
X033086Y018316D01*
X033071Y018331D01*
X033071Y018391D01*
X033086Y018406D01*
X033116Y018406D01*
X033131Y018391D01*
X031250Y010704D02*
X031250Y010604D01*
X031250Y010556D02*
X031250Y010456D01*
X031250Y010506D02*
X031100Y010506D01*
X031150Y010456D01*
X031100Y010409D02*
X031225Y010409D01*
X031250Y010384D01*
X031250Y010334D01*
X031225Y010309D01*
X031100Y010309D01*
X031150Y010604D02*
X031100Y010654D01*
X031250Y010654D01*
X027762Y007970D02*
X027762Y007870D01*
X027762Y007823D02*
X027711Y007773D01*
X027737Y007823D02*
X027762Y007798D01*
X027762Y007748D01*
X027737Y007723D01*
X027636Y007723D01*
X027611Y007748D01*
X027611Y007798D01*
X027636Y007823D01*
X027737Y007823D01*
X027661Y007870D02*
X027611Y007920D01*
X027762Y007920D01*
D25*
X035549Y018694D02*
X035549Y020994D01*
X035551Y021053D01*
X035557Y021111D01*
X035566Y021170D01*
X035580Y021227D01*
X035597Y021283D01*
X035618Y021338D01*
X035642Y021392D01*
X035670Y021444D01*
X035701Y021494D01*
X035735Y021542D01*
X035772Y021587D01*
X035813Y021630D01*
X035856Y021671D01*
X035901Y021708D01*
X035949Y021742D01*
X035999Y021773D01*
X036051Y021801D01*
X036105Y021825D01*
X036160Y021846D01*
X036216Y021863D01*
X036273Y021877D01*
X036332Y021886D01*
X036390Y021892D01*
X036449Y021894D01*
X036508Y021892D01*
X036566Y021886D01*
X036625Y021877D01*
X036682Y021863D01*
X036738Y021846D01*
X036793Y021825D01*
X036847Y021801D01*
X036899Y021773D01*
X036949Y021742D01*
X036997Y021708D01*
X037042Y021671D01*
X037085Y021630D01*
X037126Y021587D01*
X037163Y021542D01*
X037197Y021494D01*
X037228Y021444D01*
X037256Y021392D01*
X037280Y021338D01*
X037301Y021283D01*
X037318Y021227D01*
X037332Y021170D01*
X037341Y021111D01*
X037347Y021053D01*
X037349Y020994D01*
X037349Y018694D01*
X037347Y018635D01*
X037341Y018577D01*
X037332Y018518D01*
X037318Y018461D01*
X037301Y018405D01*
X037280Y018350D01*
X037256Y018296D01*
X037228Y018244D01*
X037197Y018194D01*
X037163Y018146D01*
X037126Y018101D01*
X037085Y018058D01*
X037042Y018017D01*
X036997Y017980D01*
X036949Y017946D01*
X036899Y017915D01*
X036847Y017887D01*
X036793Y017863D01*
X036738Y017842D01*
X036682Y017825D01*
X036625Y017811D01*
X036566Y017802D01*
X036508Y017796D01*
X036449Y017794D01*
X036390Y017796D01*
X036332Y017802D01*
X036273Y017811D01*
X036216Y017825D01*
X036160Y017842D01*
X036105Y017863D01*
X036051Y017887D01*
X035999Y017915D01*
X035949Y017946D01*
X035901Y017980D01*
X035856Y018017D01*
X035813Y018058D01*
X035772Y018101D01*
X035735Y018146D01*
X035701Y018194D01*
X035670Y018244D01*
X035642Y018296D01*
X035618Y018350D01*
X035597Y018405D01*
X035580Y018461D01*
X035566Y018518D01*
X035557Y018577D01*
X035551Y018635D01*
X035549Y018694D01*
D26*
X035032Y025059D02*
X035032Y025305D01*
X035229Y025305D01*
X034786Y025305D02*
X034786Y025108D01*
X034589Y025108D02*
X034589Y025305D01*
X034786Y025305D01*
X034294Y025305D02*
X034294Y025108D01*
X034294Y025305D02*
X034097Y025305D01*
X034097Y025108D01*
X033802Y025108D02*
X033802Y025305D01*
X033605Y025305D01*
X033605Y025108D01*
X033309Y025108D02*
X033309Y025305D01*
X033113Y025305D01*
X033113Y025108D01*
X032817Y025108D02*
X032817Y025305D01*
X032620Y025305D01*
X032620Y025108D01*
X032325Y025108D02*
X032325Y025305D01*
X032128Y025305D01*
X032128Y025108D01*
X031882Y025059D02*
X031882Y025305D01*
X031685Y025305D01*
X031981Y025994D02*
X034933Y025994D01*
X034933Y026240D01*
X035032Y026240D01*
X035032Y026486D01*
X035180Y026634D01*
X035032Y026486D02*
X031882Y026486D01*
X031735Y026634D01*
X031882Y026486D02*
X031882Y026240D01*
X031981Y026240D01*
X031981Y025994D01*
X031882Y026240D02*
X031685Y026240D01*
X029717Y026240D02*
X029520Y026240D01*
X029520Y026486D01*
X029668Y026634D01*
X029520Y026486D02*
X026370Y026486D01*
X026223Y026634D01*
X026370Y026486D02*
X026370Y026240D01*
X026469Y026240D01*
X026469Y025994D01*
X029422Y025994D01*
X029422Y026240D01*
X029520Y026240D01*
X029520Y025305D02*
X029520Y025059D01*
X029520Y025305D02*
X029717Y025305D01*
X029274Y025305D02*
X029274Y025108D01*
X029077Y025108D02*
X029077Y025305D01*
X029274Y025305D01*
X028782Y025305D02*
X028782Y025108D01*
X028585Y025108D02*
X028585Y025305D01*
X028782Y025305D01*
X028290Y025305D02*
X028290Y025108D01*
X028093Y025108D02*
X028093Y025305D01*
X028290Y025305D01*
X027798Y025305D02*
X027798Y025108D01*
X027798Y025305D02*
X027601Y025305D01*
X027601Y025108D01*
X027306Y025108D02*
X027306Y025305D01*
X027109Y025305D01*
X027109Y025108D01*
X026813Y025108D02*
X026813Y025305D01*
X026617Y025305D01*
X026617Y025108D01*
X026370Y025059D02*
X026370Y025305D01*
X026174Y025305D01*
X026174Y026240D02*
X026370Y026240D01*
X024205Y026240D02*
X024008Y026240D01*
X024008Y026486D01*
X024156Y026634D01*
X024008Y026486D02*
X020859Y026486D01*
X020711Y026634D01*
X020859Y026486D02*
X020859Y026240D01*
X020957Y026240D01*
X020957Y025994D01*
X023910Y025994D01*
X023910Y026240D01*
X024008Y026240D01*
X024008Y025305D02*
X024008Y025059D01*
X024008Y025305D02*
X024205Y025305D01*
X023762Y025305D02*
X023762Y025108D01*
X023565Y025108D02*
X023565Y025305D01*
X023762Y025305D01*
X023270Y025305D02*
X023270Y025108D01*
X023073Y025108D02*
X023073Y025305D01*
X023270Y025305D01*
X022778Y025305D02*
X022778Y025108D01*
X022581Y025108D02*
X022581Y025305D01*
X022778Y025305D01*
X022286Y025305D02*
X022286Y025108D01*
X022089Y025108D02*
X022089Y025305D01*
X022286Y025305D01*
X021794Y025305D02*
X021794Y025108D01*
X021794Y025305D02*
X021597Y025305D01*
X021597Y025108D01*
X021302Y025108D02*
X021302Y025305D01*
X021105Y025305D01*
X021105Y025108D01*
X020859Y025059D02*
X020859Y025305D01*
X020662Y025305D01*
X020662Y026240D02*
X020859Y026240D01*
X018201Y026240D02*
X018004Y026240D01*
X018004Y026486D01*
X018152Y026634D01*
X018004Y026486D02*
X015839Y026486D01*
X015691Y026634D01*
X015839Y026486D02*
X015839Y026240D01*
X015937Y026240D01*
X015937Y025994D01*
X017906Y025994D01*
X017906Y026240D01*
X018004Y026240D01*
X018004Y025305D02*
X018004Y025059D01*
X018004Y025305D02*
X018201Y025305D01*
X017758Y025305D02*
X017758Y025108D01*
X017561Y025108D02*
X017561Y025305D01*
X017758Y025305D01*
X017266Y025305D02*
X017266Y025108D01*
X017069Y025108D02*
X017069Y025305D01*
X017266Y025305D01*
X016774Y025305D02*
X016774Y025108D01*
X016577Y025108D02*
X016577Y025305D01*
X016774Y025305D01*
X016282Y025305D02*
X016282Y025108D01*
X016085Y025108D02*
X016085Y025305D01*
X016282Y025305D01*
X015839Y025305D02*
X015839Y025059D01*
X015839Y025305D02*
X015642Y025305D01*
X015642Y026240D02*
X015839Y026240D01*
X035032Y026240D02*
X035229Y026240D01*
D27*
X034687Y026166D03*
X034195Y026166D03*
X033703Y026166D03*
X033211Y026166D03*
X032719Y026166D03*
X032227Y026166D03*
X029176Y026166D03*
X028683Y026166D03*
X028191Y026166D03*
X027699Y026166D03*
X027207Y026166D03*
X026715Y026166D03*
X023664Y026166D03*
X023172Y026166D03*
X022680Y026166D03*
X022187Y026166D03*
X021695Y026166D03*
X021203Y026166D03*
X017660Y026166D03*
X017168Y026166D03*
X016676Y026166D03*
X016183Y026166D03*
M02*
