%
M48
M72
T01C0.0157
T02C0.0197
T03C0.0236
T04C0.0320
T05C0.0354
T06C0.0394
T07C0.0400
T08C0.0591
T09C0.0630
T10C0.0787
T11C0.0906
T12C0.1378
T13C0.1417
%
T01
X6489Y3734
X5796Y6002
X6449Y6309
X6922Y7844
X7237Y7844
X7552Y7844
X9638Y7844
X9953Y7844
X11567Y11033
X11882Y11033
X14008Y13514
X14008Y13829
X16213Y14341
X16213Y14655
X17552Y14892
X17552Y15167
X18386Y15293
X20544Y15612
X20898Y15474
X21095Y15159
X20591Y14057
X23575Y14104
X23575Y13711
X24638Y13750
X24914Y14026
X24835Y14813
X25701Y15246
X25937Y15010
X25937Y14695
X27394Y15522
X27670Y14970
X29678Y14931
X30741Y14065
X31056Y14065
X31370Y14065
X32119Y13947
X32433Y14262
X32079Y15167
X31410Y15915
X30465Y16624
X29559Y18435
X29323Y19026
X27276Y20128
X27473Y20758
X27670Y21624
X26725Y22333
X27197Y22963
X29284Y22175
X29284Y21585
X30780Y22175
X32827Y23337
X33654Y23829
X32867Y24026
X33851Y22628
X35150Y23789
X35465Y23356
X38930Y17490
X38930Y17175
X38930Y16860
X37040Y15955
X36725Y15955
X36410Y15955
X33615Y16073
X32906Y17057
X35465Y13553
X33181Y10994
X33851Y10522
X33851Y10207
X29796Y12844
X29363Y12569
X30741Y13002
X31056Y13002
X31370Y13002
X27827Y13278
X26626Y13396
X24008Y12254
X22433Y11821
X22158Y11545
X22119Y11152
X22433Y10364
X22985Y10246
X24008Y11033
X24993Y9419
X24481Y8317
X22433Y8435
X20465Y8159
X19363Y8199
X20465Y9970
X26331Y9695
X26607Y9419
X28378Y10561
X28378Y10876
X28536Y9813
X28811Y9459
X29205Y8514
X29520Y8514
X28615Y7608
X27512Y7805
X28260Y6152
X26016Y6309
X24678Y5876
X24323Y5423
X16134Y5443
X16134Y5128
X16134Y4813
X4890Y9262
X3418Y9301
X3418Y9734
X2646Y9718
X3276Y10726
X3063Y11663
X3536Y11663
X7788Y12136
X8418Y14341
X8693Y16348
X11095Y17033
X11095Y17348
X11489Y17348
X11489Y17033
X12150Y17821
X11327Y18388
X10906Y18407
X10071Y18396
X9819Y18136
X11233Y15990
X6370Y16427
X3654Y15522
X3339Y15522
X3024Y15522
X2197Y19459
X3496Y20167
X3733Y21506
X3733Y21821
X3733Y22136
X6528Y21152
X6843Y21152
X8772Y25837
X9087Y25837
X9402Y25837
X10662Y25837
X10977Y25837
X11292Y25837
X16174Y23907
X17197Y25443
X19008Y24065
X19323Y24065
X19638Y24065
X21213Y23868
X22197Y21663
X22197Y19931
X21449Y19380
X22709Y18238
X23772Y17530
X23772Y17136
X22985Y17136
X25780Y17136
X25780Y17530
X26370Y17096
X25347Y20994
T02
X23496Y21427
X22906Y21427
X24874Y23317
X30622Y23711
X30898Y24262
X34678Y22648
X34244Y20679
X33811Y20797
X34244Y19695
X33536Y18435
X34244Y16585
X27827Y11427
X25504Y8671
X25701Y5915
X19874Y7766
X19284Y3750
X14914Y3750
X32315Y7805
X33457Y6309
X25071Y15640
X3851Y18411
X3457Y17978
X3457Y17467
T03
X8142Y16900
X9559Y15128
X12473Y13435
X17827Y14262
X21607Y18199
X19599Y20679
X21292Y20955
X13103Y19655
X5859Y12215
X6685Y9459
X18181Y7175
T04
X36449Y18894
X36449Y20794
T05
X15347Y9655
X14363Y9655
X13575Y9655
X12591Y9655
X12591Y8624
X13575Y8624
X14363Y8624
X15347Y8624
T06
X10130Y4341
X8359Y4341
X29855Y4341
X31626Y4341
T07
X13091Y22057
X12091Y22057
X10138Y22057
X9138Y22057
X2473Y22258
X2473Y21258
X2248Y14577
X3248Y14577
T08
X7867Y5325
X10622Y5325
X29363Y5325
X32119Y5325
T09
X3142Y4341
X3142Y5915
T10
X35622Y5325
X35622Y7096
T11
X16556Y7557
X16556Y9793
X11382Y9793
X11382Y7557
T12
X20859Y5325
T13
X37591Y25010
X2158Y25010
M30
